<?xml version="1.0" encoding="utf-8"?>
<!-- Generator: Adobe Illustrator 27.7.0, SVG Export Plug-In . SVG Version: 6.00 Build 0)  -->
<svg version="1.1" id="레이어_1" xmlns="http://www.w3.org/2000/svg" xmlns:xlink="http://www.w3.org/1999/xlink" x="0px"
	 y="0px" viewBox="0 0 595.28 841.89" style="enable-background:new 0 0 595.28 841.89;" xml:space="preserve">
<style type="text/css">
	.st0{fill:#FF98A8;}
	.st1{fill:none;}
	.st2{fill:#FFFFFF;}
</style>
	<g>
		<path class="st1" d="M265.07,344.56c-0.2,0-0.4-0.02-0.6-0.02c-0.03,0-0.05,0-0.08,0l0.35,0.35L265.07,344.56z"/>
		<path class="st0" d="M275.4,323.19h-21.32l-8.01,10.33l6.85,6.97l4.51,4.59l7.32,7.45l7.24-7.37l4.48-4.56l6.95-7.07L275.4,323.19
			z M265.07,344.56l-0.34,0.34l-0.35-0.35l-5-5.09l-6.24-6.35l3.55-4.57h16.09l3.55,4.57l-6.29,6.4L265.07,344.56z"/>
		<path class="st1" d="M331.41,344.56c-0.2,0-0.4-0.02-0.6-0.02c-0.03,0-0.05,0-0.08,0l0.35,0.35L331.41,344.56z"/>
		<path class="st0" d="M344.71,341.87l-4.28,4.36l-0.29,0.3c22.53,4.37,39.59,24.23,39.59,48.01c0,26.98-21.95,48.92-48.92,48.92
			s-48.92-21.95-48.92-48.92c0-23.86,17.18-43.78,39.82-48.06l-0.34-0.35l-4.25-4.32c-0.73,0.19-1.45,0.39-2.16,0.61
			c-22.33,6.81-38.62,27.6-38.62,52.13c0,30.04,24.44,54.48,54.48,54.48s54.48-24.44,54.48-54.48
			C385.29,369.3,368.04,348.03,344.71,341.87z"/>
		<polygon class="st0" points="336.38,339.5 331.41,344.56 331.07,344.9 330.73,344.55 325.72,339.46 319.97,333.61 312.48,333.61 
			319.25,340.49 323.76,345.08 331.07,352.53 338.32,345.15 342.8,340.59 349.66,333.61 342.18,333.61 		"/>
		
			<rect x="290.93" y="423.13" transform="matrix(0.6729 0.7397 -0.7397 0.6729 418.7757 -77.8094)" class="st2" width="12.88" height="23"/>
		<path class="st0" d="M278.38,341.87l-4.28,4.36l-0.29,0.3c22.53,4.37,39.59,24.23,39.59,48.01c0,26.98-21.95,48.92-48.92,48.92
			s-48.92-21.95-48.92-48.92c0-23.86,17.18-43.78,39.82-48.06l-0.34-0.35l-4.25-4.32c-0.73,0.19-1.45,0.39-2.16,0.61
			c-22.33,6.81-38.62,27.6-38.62,52.13c0,30.04,24.44,54.48,54.48,54.48s54.48-24.44,54.48-54.48
			C318.95,369.3,301.7,348.03,278.38,341.87z"/>
		<polygon class="st2" points="304.53,357.17 299.16,361.75 297.59,358.65 302.01,355.02 		"/>
		<polygon class="st2" points="298.03,351.05 292.95,355.38 289.89,353.69 295.44,348.89 		"/>
	</g>
</svg>
