<?xml version="1.0" encoding="iso-8859-1"?>
<!-- Generator: Adobe Illustrator 18.0.0, SVG Export Plug-In . SVG Version: 6.00 Build 0)  -->
<!DOCTYPE svg PUBLIC "-//W3C//DTD SVG 1.1//EN" "http://www.w3.org/Graphics/SVG/1.1/DTD/svg11.dtd">
<!-- License: CC0. Made by SVG Repo: https://www.svgrepo.com/svg/42317/newlyweds -->
<svg version="1.1" id="Capa_1" xmlns="http://www.w3.org/2000/svg" xmlns:xlink="http://www.w3.org/1999/xlink" x="0px" y="0px"
	 viewBox="0 0 470.946 470.946" style="enable-background:new 0 0 470.946 470.946;" xml:space="preserve">
<g>
	<path d="M399.703,309.931c8.743-24.095,9.33-52.013,1.586-76.678c-6.73-21.438-19.293-39.013-35.2-49.65v-57.89
		c0-27.431-22.316-49.748-49.748-49.748s-49.748,22.317-49.748,49.748v54.856c-18.021,9.875-33.602,28.062-45.259,52.927
		c-4.206,8.971-7.846,18.647-10.88,28.872l-13.922-79.374c0,0-2.212-13.803-2.811-16.026l-0.001-0.007l-0.001,0
		c-1.793-6.655-5.352-12.955-10.493-18.411c-4.017-4.264-8.811-7.86-14.159-10.729c8.481-7.313,14.214-17.196,16.327-28.364
		c2.469-13.057-0.295-26.293-7.781-37.272s-18.8-18.385-31.856-20.854c-13.058-2.47-26.294,0.293-37.272,7.78
		c-22.663,15.455-28.527,46.466-13.073,69.129c2.479,3.635,5.363,6.829,8.544,9.581c-5.347,2.869-10.14,6.465-14.156,10.727
		c-4.938,5.241-8.416,11.26-10.271,17.625c-0.65,2.229-3.044,14.329-3.684,18.137L53.352,318.297
		c-0.914,5.447,2.76,10.604,8.207,11.518c0.561,0.094,1.117,0.14,1.667,0.14c4.795,0,9.03-3.46,9.851-8.346l9.914-59.056
		l3.278,54.995c0.231,3.875,2.652,7.119,6.012,8.576l8.458,135.445c0.329,5.271,4.699,9.376,9.98,9.376h51.588
		c5.281,0,9.651-4.106,9.98-9.377l8.458-135.444c3.361-1.457,5.782-4.701,6.013-8.577l3.315-55.636l10.412,59.757
		c0.838,4.809,5.014,8.284,9.846,8.284c0.169,0,0.34-0.004,0.51-0.013c5.046-0.255,9.109-4.233,9.471-9.272
		c2.099-29.257,8.714-56.465,19.131-78.682c8.215-17.524,18.396-30.909,29.826-39.399c0.003,0.663,1.657,46.994,1.657,46.994
		c-34.146,30.854-55.983,95.597-55.983,167.121c0,2.554,0.086,39.42,0.31,44.669c0.229,5.352,4.634,9.574,9.991,9.574h182.189
		c5.357,0,9.763-4.222,9.991-9.574c0.223-5.232,0.309-42.113,0.309-44.669C417.733,377.604,411.197,340.548,399.703,309.931z
		 M112.371,326.953h14.142v98.415h-7.997L112.371,326.953z M146.513,326.953h14.141l-6.146,98.415h-7.996V326.953z M175.031,178.131
		l-7.677,128.822h-20.841V229.05c0.958-2.745,1.886-5.38,2.78-7.917c7.431-21.088,13.042-37.02,16.074-61.889
		c1.183,0.947,2.293,1.952,3.303,3.023C171.805,165.593,175.454,171.046,175.031,178.131z M136.513,149.962
		c3.298,0,6.539,0.306,9.659,0.885c-0.199,2.042-0.417,3.998-0.646,5.906h-18.027c-0.229-1.908-0.447-3.863-0.646-5.906
		C129.974,150.268,133.215,149.962,136.513,149.962z M142.138,176.752c-1.55,6.882-3.416,13.299-5.625,20.065
		c-2.208-6.766-4.074-13.183-5.625-20.065H142.138z M119.753,75.636c4.998-3.408,10.777-5.179,16.697-5.179
		c1.856,0,3.728,0.174,5.591,0.526c7.808,1.477,14.573,5.905,19.05,12.47c0,0,0,0,0,0c4.477,6.564,6.129,14.48,4.652,22.287
		c-1.477,7.808-5.905,14.573-12.47,19.05c-13.554,9.242-32.097,5.733-41.338-7.817C102.694,103.422,106.201,84.878,119.753,75.636z
		 M104.356,162.266c1.009-1.071,2.119-2.076,3.302-3.023c3.033,24.869,8.643,40.801,16.075,61.889
		c0.894,2.538,1.822,5.173,2.78,7.918v77.904h-20.841l-7.678-128.822C97.573,171.046,101.221,165.593,104.356,162.266z
		 M119.766,445.368h6.748v5.578h-6.399L119.766,445.368z M146.513,450.946v-5.578h6.747l-0.348,5.578H146.513z M382.208,239.243
		c4.153,13.229,5.423,27.571,3.873,41.459c-7.132-12.399-15.29-22.949-24.32-31.11l1.528-42.542
		C371.534,215.182,378.132,226.26,382.208,239.243z M341.896,245.456h-51.105l-1.114-30.997h53.333L341.896,245.456z
		 M289.789,112.325h53.104c2.039,4.027,3.196,8.574,3.196,13.388c0,16.403-13.345,29.748-29.748,29.748
		s-29.748-13.345-29.748-29.748C286.593,120.899,287.75,116.352,289.789,112.325z M316.343,175.462
		c12.128,0,22.419,8.002,25.857,18.997h-51.719c1.223-3.926,3.346-7.549,6.285-10.625
		C301.925,178.436,308.878,175.462,316.343,175.462z M250.084,321.197c8.535-24.259,19.935-43.375,33.152-55.741h66.204
		c13.217,12.367,24.619,31.486,33.154,55.75c9.904,28.156,15.14,61.178,15.14,95.497c0,0.775-0.002,2.102-0.006,3.813
		c-3.859,0.749-7.944,0.15-11.443-1.803c-0.026-0.015-0.053-0.03-0.08-0.044c-11.185-6.214-24.518-6.22-35.708-0.022
		c-0.04,0.021-0.08,0.043-0.119,0.065c-5.133,2.866-11.262,2.866-16.396-0.001c-11.07-6.183-24.827-6.182-35.897,0
		c-5.133,2.866-11.263,2.868-16.396,0c-0.022-0.012-0.044-0.024-0.066-0.037c-11.229-6.243-24.618-6.229-35.835,0.034
		c-0.015,0.008-0.029,0.016-0.045,0.025c-3.358,1.864-7.141,2.495-10.791,1.908c-0.004-1.773-0.007-3.146-0.007-3.94
		C234.943,382.378,240.178,349.354,250.084,321.197z M235.097,450.946c-0.026-3.06-0.048-6.571-0.068-10.162
		c7.004,0.494,14.106-1.038,20.501-4.609c0.013-0.007,0.025-0.014,0.038-0.021c5.128-2.849,11.242-2.84,16.362,0.019
		c0.022,0.012,0.046,0.025,0.068,0.038c11.227,6.241,24.616,6.228,35.833-0.037c5.059-2.824,11.34-2.824,16.398,0
		c11.201,6.254,24.564,6.275,35.78,0.065c0.04-0.022,0.081-0.044,0.122-0.067c5.131-2.866,11.261-2.866,16.394,0
		c0.026,0.015,0.054,0.03,0.081,0.044c5.602,3.111,11.738,4.666,17.876,4.666c1.056,0,2.11-0.063,3.163-0.155
		c-0.02,3.611-0.042,7.143-0.068,10.219H235.097z"/>
	<path d="M225.073,103.781c1.876,1.875,4.419,2.929,7.071,2.929s5.195-1.054,7.071-2.929l39.294-39.294
		c14.732-14.732,14.732-38.704,0-53.437c-12.558-12.556-31.825-14.413-46.365-5.563c-14.542-8.849-33.808-6.994-46.366,5.563
		c-14.732,14.732-14.732,38.704,0,53.437L225.073,103.781z M199.919,25.192c3.469-3.468,8.022-5.201,12.577-5.201
		s9.109,1.734,12.576,5.201c3.906,3.904,10.236,3.904,14.143,0c6.934-6.935,18.216-6.936,25.151,0
		c6.935,6.935,6.935,18.218,0,25.153l-32.223,32.223L199.92,50.344C192.986,43.41,192.986,32.127,199.919,25.192z"/>
</g>
</svg>
