<?xml version="1.0" encoding="iso-8859-1"?>
<!-- Generator: Adobe Illustrator 18.0.0, SVG Export Plug-In . SVG Version: 6.00 Build 0)  -->
<!DOCTYPE svg PUBLIC "-//W3C//DTD SVG 1.1//EN" "http://www.w3.org/Graphics/SVG/1.1/DTD/svg11.dtd">
<!-- License: CC0. Made by SVG Repo: https://www.svgrepo.com/svg/6228/photo-camera -->
<svg version="1.1" id="Capa_1" xmlns="http://www.w3.org/2000/svg" xmlns:xlink="http://www.w3.org/1999/xlink" x="0px" y="0px"
	 viewBox="0 0 470.066 470.066" style="enable-background:new 0 0 470.066 470.066;" xml:space="preserve">
<g>
	<path d="M178.787,259.584c-8.529,8.53-13.227,19.87-13.227,31.933c0,12.063,4.698,23.403,13.228,31.933l49.723,49.723
		c1.953,1.953,4.512,2.929,7.071,2.929s5.118-0.976,7.071-2.929l49.723-49.723c8.529-8.53,13.227-19.87,13.227-31.933
		c0-12.063-4.698-23.403-13.228-31.933s-19.87-13.227-31.932-13.227c-8.978,0-17.554,2.602-24.87,7.448
		C218.056,242.255,194.195,244.179,178.787,259.584z M242.653,273.727c9.808-9.809,25.771-9.811,35.58,0
		c9.81,9.81,9.81,25.771,0,35.58l-42.651,42.652l-42.652-42.652c-4.752-4.751-7.369-11.07-7.369-17.79s2.617-13.038,7.37-17.79
		c4.904-4.905,11.347-7.357,17.79-7.357c6.442,0,12.886,2.452,17.79,7.357C232.417,277.632,238.747,277.631,242.653,273.727z"/>
	<path d="M460.066,157.523H277.438V25.302c0-5.523-4.478-10-10-10H146.82c-5.522,0-10,4.477-10,10v132.221H10
		c-5.522,0-10,4.477-10,10v277.241c0,5.523,4.478,10,10,10h450.066c5.522,0,10-4.477,10-10V167.523
		C470.066,162,465.589,157.523,460.066,157.523z M257.438,35.302V69.31H156.82V35.302H257.438z M156.82,89.31h100.617v68.213H156.82
		V89.31z M450.066,434.764H20V177.523h430.066V434.764z"/>
	<path d="M126.567,306.144c0,60.111,48.903,109.015,109.015,109.015s109.015-48.904,109.015-109.015
		s-48.903-109.015-109.015-109.015S126.567,246.033,126.567,306.144z M324.597,306.144c0,49.083-39.932,89.015-89.015,89.015
		s-89.015-39.932-89.015-89.015s39.932-89.015,89.015-89.015S324.597,257.061,324.597,306.144z"/>
	<path d="M344.245,241.415h79.216c5.522,0,10-4.477,10-10v-34.207c0-5.523-4.478-10-10-10h-79.216c-5.522,0-10,4.477-10,10v34.207
		C334.245,236.938,338.723,241.415,344.245,241.415z M354.245,207.208h59.216v14.207h-59.216V207.208z"/>
	<path d="M103.459,360.146c-17.427,0-31.604,14.178-31.604,31.604c0,17.427,14.178,31.604,31.604,31.604
		c17.426,0,31.604-14.178,31.604-31.604C135.063,374.323,120.885,360.146,103.459,360.146z M103.459,403.354
		c-6.398,0-11.604-5.206-11.604-11.604c0-6.398,5.206-11.604,11.604-11.604s11.604,5.206,11.604,11.604
		C115.063,398.148,109.857,403.354,103.459,403.354z"/>
</g>
</svg>
