<?xml version="1.0" encoding="iso-8859-1"?>
<!-- Generator: Adobe Illustrator 18.0.0, SVG Export Plug-In . SVG Version: 6.00 Build 0)  -->
<!DOCTYPE svg PUBLIC "-//W3C//DTD SVG 1.1//EN" "http://www.w3.org/Graphics/SVG/1.1/DTD/svg11.dtd">
<!-- License: CC0. Made by SVG Repo: https://www.svgrepo.com/svg/117722/vintage-cinema-camera-looking-left -->
<svg version="1.1" id="Capa_1" xmlns="http://www.w3.org/2000/svg" xmlns:xlink="http://www.w3.org/1999/xlink" x="0px" y="0px"
	 viewBox="0 0 363.248 363.248" style="enable-background:new 0 0 363.248 363.248;" xml:space="preserve">
<g>
	<g>
		<path d="M355.748,130.997h-23.241v-21.622c0-4.143-3.357-7.5-7.5-7.5h-26.49c10.435-9.929,16.945-23.944,16.927-39.451
			c-0.038-29.947-24.434-54.312-54.451-54.312c-14.524,0.019-28.173,5.692-38.432,15.977c-3.292,3.301-6.101,6.952-8.405,10.865
			c-9.473-16.045-26.947-26.842-46.924-26.842c-14.525,0.019-28.174,5.692-38.432,15.977s-15.898,23.948-15.879,38.474
			c0.019,15.456,6.531,29.415,16.941,39.313h-26.506c-4.143,0-7.5,3.357-7.5,7.5v27.36H72.514c-4.143,0-7.5,3.357-7.5,7.5v3.411
			l-53.764-31.04c-2.32-1.34-5.18-1.34-7.5,0c-2.32,1.34-3.75,3.815-3.75,6.495v90.652c0,2.68,1.43,5.156,3.75,6.496
			c1.16,0.67,2.455,1.004,3.75,1.004s2.59-0.334,3.75-1.004l53.764-31.041v4.268c0,4.143,3.357,7.5,7.5,7.5h23.343v26.506
			c0,4.143,3.357,7.5,7.5,7.5h75.186v29.518c0,4.143,3.358,7.5,7.5,7.5h6.18l-50.422,71.307c-2.392,3.381-1.588,8.063,1.794,10.453
			c1.315,0.93,2.826,1.377,4.323,1.377c2.353,0,4.669-1.104,6.131-3.17l52.633-74.434v70.104c0,4.143,3.357,7.5,7.5,7.5
			c4.143,0,7.5-3.357,7.5-7.5v-70.104l52.633,74.434c1.462,2.066,3.778,3.17,6.131,3.17c1.496,0,3.008-0.447,4.323-1.377
			c3.382-2.391,4.186-7.072,1.794-10.453l-50.422-71.307h6.181c4.143,0,7.5-3.357,7.5-7.5v-29.518h75.186c4.143,0,7.5-3.357,7.5-7.5
			v-21.621h23.241c4.143,0,7.5-3.357,7.5-7.5v-59.864C363.248,134.354,359.891,130.997,355.748,130.997z M233.182,34.681
			c7.428-7.447,17.312-11.557,27.882-11.569c21.686,0,39.352,17.644,39.38,39.331c0.027,21.714-17.616,39.403-39.33,39.432h-0.05
			c-21.688,0-39.355-17.644-39.382-39.331C221.669,52.024,225.753,42.13,233.182,34.681z M214.192,89.988
			c2.588,4.394,5.778,8.391,9.449,11.887h-18.92C208.399,98.378,211.602,94.386,214.192,89.988z M127.921,62.544
			c-0.013-10.52,4.07-20.414,11.499-27.862c7.428-7.447,17.311-11.557,27.883-11.569c21.686,0,39.352,17.644,39.379,39.331
			c0.028,21.714-17.616,39.403-39.331,39.432h-0.05C145.612,101.875,127.947,84.231,127.921,62.544z M95.856,185.976H80.014v-34.241
			h15.843V185.976z M65.014,171.89L15,200.763v-64.671l50.014,28.876V171.89z M234.821,256.999h-41.278v-22.018h41.278V256.999z
			 M317.507,219.982h-206.65V116.875h206.65V219.982z M348.248,190.861h-15.741v-44.864h15.741V190.861z"/>
	</g>
</g>
</svg>
