<?xml version="1.0" encoding="iso-8859-1"?>
<!-- Generator: Adobe Illustrator 19.0.0, SVG Export Plug-In . SVG Version: 6.00 Build 0)  -->
<!-- License: CC0. Made by SVG Repo: https://www.svgrepo.com/svg/251110/diary -->
<svg version="1.1" id="Layer_1" xmlns="http://www.w3.org/2000/svg" xmlns:xlink="http://www.w3.org/1999/xlink" x="0px" y="0px"
	 viewBox="0 0 512 512" style="enable-background:new 0 0 512 512;" xml:space="preserve">
<g>
	<g>
		<path d="M193.415,289.959H94.977c-4.328,0-7.837,3.508-7.837,7.837c0,4.329,3.509,7.837,7.837,7.837h98.438
			c4.328,0,7.837-3.508,7.837-7.837C201.252,293.466,197.744,289.959,193.415,289.959z"/>
	</g>
</g>
<g>
	<g>
		<path d="M203.308,150.743c-8.546-8.602-19.908-13.34-31.995-13.34c-10.56,0-20.568,3.616-28.628,10.269
			c-8.059-6.652-18.067-10.269-28.629-10.269c-12.087,0-23.45,4.738-31.996,13.341c-8.529,8.59-13.226,20.002-13.226,32.137
			c0,12.14,4.698,23.553,13.224,32.137l49.947,50.331c2.85,2.87,6.643,4.451,10.679,4.451c3.976,0,7.867-1.622,10.681-4.453
			l31.795-32.039c3.048-3.072,3.029-8.034-0.042-11.082c-3.073-3.05-8.034-3.031-11.083,0.042l-31.35,31.59l-49.504-49.883
			c-5.593-5.63-8.674-13.121-8.674-21.093c0-7.968,3.08-15.459,8.674-21.092c5.58-5.618,12.994-8.712,20.875-8.712
			c7.882,0,15.295,3.094,20.876,8.712l2.193,2.208c1.471,1.482,3.473,2.314,5.561,2.314s4.09-0.834,5.56-2.314l2.191-2.207
			c5.583-5.618,12.996-8.713,20.876-8.713s15.293,3.094,20.874,8.711c5.594,5.635,8.675,13.126,8.675,21.093
			c0,7.35-2.666,14.399-7.505,19.849c-2.875,3.237-2.58,8.19,0.656,11.064c3.237,2.875,8.19,2.58,11.063-0.656
			c7.39-8.322,11.459-19.067,11.459-30.257C216.535,170.748,211.838,159.336,203.308,150.743z"/>
	</g>
</g>
<g>
	<g>
		<path d="M498.939,81.584h-9.481c-1.976-4.708-6.632-8.025-12.049-8.025H407.51c-4.329,0-7.837,3.508-7.837,7.837
			c0,4.329,3.508,7.837,7.837,7.837h67.286v268.695h-210.96V89.233h110.237c4.329,0,7.837-3.508,7.837-7.837
			c0-4.329-3.508-7.837-7.837-7.837H34.591c-5.418,0-10.073,3.316-12.049,8.025h-9.481C5.859,81.584,0,87.443,0,94.645v287.446
			c0,7.202,5.859,13.061,13.061,13.061h56.947c4.328,0,7.837-3.508,7.837-7.837c0-4.328-3.509-7.837-7.837-7.837H15.673V97.258
			h5.857v263.284c0,7.202,5.859,13.061,13.061,13.061h216.184h16.652v5.876H107.623c-4.328,0-7.837,3.509-7.837,7.837
			c0,4.329,3.509,7.837,7.837,7.837h106.573l3.509,10.84c1.811,5.594,6.973,9.354,12.845,9.354h36.877v15.257
			c0,2.758,1.448,5.311,3.814,6.726c2.367,1.414,5.301,1.482,7.729,0.179l20.566-11.042l19.475,10.967
			c1.195,0.673,2.52,1.008,3.846,1.008c1.368,0,2.733-0.357,3.955-1.071c2.404-1.405,3.882-3.981,3.882-6.766v-35.45h168.245
			c7.202,0,13.061-5.859,13.061-13.061V94.645C512,87.444,506.141,81.584,498.939,81.584z M248.163,357.929H37.204V89.233h210.96
			V357.929z M267.428,399.673h-0.001h-35.292l-1.463-4.52h36.756V399.673z M295.918,410.616l-12.819,6.883v-43.896h31.92v43.593
			l-11.547-6.504C301.132,409.375,298.283,409.346,295.918,410.616z M496.327,379.479H330.693v-5.877h146.714
			c7.203,0,13.061-5.859,13.061-13.061V97.258h5.858V379.479z"/>
	</g>
</g>
<g>
	<g>
		<path d="M339.854,136.121h-38.528c-4.329,0-7.837,3.508-7.837,7.837c0,4.328,3.508,7.837,7.837,7.837h38.528
			c4.329,0,7.837-3.509,7.837-7.837C347.691,139.629,344.183,136.121,339.854,136.121z"/>
	</g>
</g>
<g>
	<g>
		<path d="M351.186,173.657h-49.859c-4.329,0-7.837,3.508-7.837,7.837c0,4.329,3.508,7.837,7.837,7.837h49.859
			c4.329,0,7.837-3.508,7.837-7.837C359.023,177.165,355.515,173.657,351.186,173.657z"/>
	</g>
</g>
<g>
	<g>
		<path d="M431.098,211.194H301.327c-4.329,0-7.837,3.508-7.837,7.837c0,4.329,3.508,7.837,7.837,7.837h129.771
			c4.329,0,7.837-3.508,7.837-7.837C438.934,214.702,435.427,211.194,431.098,211.194z"/>
	</g>
</g>
<g>
	<g>
		<path d="M431.098,248.731H301.327c-4.329,0-7.837,3.508-7.837,7.837c0,4.329,3.508,7.837,7.837,7.837h129.771
			c4.329,0,7.837-3.508,7.837-7.837C438.934,252.239,435.427,248.731,431.098,248.731z"/>
	</g>
</g>
<g>
	<g>
		<path d="M431.098,286.268H301.327c-4.329,0-7.837,3.508-7.837,7.837c0,4.329,3.508,7.837,7.837,7.837h129.771
			c4.329,0,7.837-3.508,7.837-7.837C438.934,289.776,435.427,286.268,431.098,286.268z"/>
	</g>
</g>
<g>
	<g>
		<path d="M431.852,129.586c-4.581-4.611-10.676-7.151-17.16-7.151c-4.5,0-8.812,1.223-12.563,3.514
			c-3.749-2.29-8.062-3.514-12.564-3.514c-6.485,0-12.58,2.54-17.162,7.153c-4.566,4.6-7.081,10.709-7.081,17.202
			c0,6.496,2.515,12.606,7.08,17.201l21.925,22.094c2.053,2.064,4.896,3.247,7.801,3.247c2.903,0,5.745-1.182,7.811-3.254
			l21.916-22.085c4.566-4.598,7.081-10.708,7.081-17.203C438.934,140.297,436.42,134.188,431.852,129.586z M420.73,152.95
			l-18.602,18.747l-18.607-18.749c-1.631-1.641-2.529-3.827-2.529-6.158c0-2.328,0.899-4.515,2.529-6.158
			c1.617-1.628,3.764-2.524,6.042-2.524c2.28,0,4.424,0.896,6.036,2.519l0.962,0.971c1.471,1.484,3.474,2.319,5.564,2.319
			s4.093-0.835,5.564-2.319l0.956-0.964c1.619-1.629,3.766-2.526,6.044-2.526c2.279,0,4.424,0.897,6.038,2.521
			c1.632,1.644,2.531,3.832,2.531,6.161C423.261,149.119,422.363,151.306,420.73,152.95z"/>
	</g>
</g>
</svg>
