<?xml version="1.0" encoding="iso-8859-1"?>
<!-- Generator: Adobe Illustrator 19.0.0, SVG Export Plug-In . SVG Version: 6.00 Build 0)  -->
<!-- License: CC0. Made by SVG Repo: https://www.svgrepo.com/svg/246040/diary -->
<svg version="1.1" id="Layer_1" xmlns="http://www.w3.org/2000/svg" xmlns:xlink="http://www.w3.org/1999/xlink" x="0px" y="0px"
	 viewBox="0 0 512 512" style="enable-background:new 0 0 512 512;" xml:space="preserve">
<g>
	<g>
		<path d="M461.913,0H83.478C55.86,0,33.391,22.469,33.391,50.087v38.957H16.696C7.475,89.044,0,96.519,0,105.739
			s7.475,16.696,16.696,16.696h16.696v66.783H16.696C7.475,189.217,0,196.693,0,205.913c0,9.22,7.475,16.696,16.696,16.696h16.696
			v66.783H16.696C7.475,289.391,0,296.867,0,306.087s7.475,16.696,16.696,16.696h16.696v66.783H16.696
			C7.475,389.565,0,397.04,0,406.261s7.475,16.696,16.696,16.696h16.696v38.956C33.391,489.531,55.86,512,83.478,512h378.435
			C489.531,512,512,489.531,512,461.913V50.087C512,22.469,489.531,0,461.913,0z M133.565,478.609H83.478
			c-9.206,0-16.696-7.49-16.696-16.696v-38.956h16.696c9.22,0,16.696-7.475,16.696-16.696s-7.475-16.696-16.696-16.696H66.783
			v-66.783h16.696c9.22,0,16.696-7.475,16.696-16.696s-7.475-16.696-16.696-16.696H66.783v-66.783h16.696
			c9.22,0,16.696-7.475,16.696-16.696c0-9.22-7.475-16.696-16.696-16.696H66.783v-66.783h16.696c9.22,0,16.696-7.475,16.696-16.696
			s-7.475-16.696-16.696-16.696H66.783V50.087c0-9.206,7.49-16.696,16.696-16.696h50.087V478.609z M478.609,461.913
			c0,9.206-7.49,16.696-16.696,16.696H166.957V33.391h294.956c9.206,0,16.696,7.49,16.696,16.696V461.913z"/>
	</g>
</g>
<g>
	<g>
		<path d="M426.519,223.678c-13.007-14.458-31.014-22.42-50.702-22.42c-20.965,0-39.234,9.257-53.034,26.82
			c-13.801-17.563-32.069-26.82-53.034-26.82c-19.689,0-37.696,7.962-50.703,22.42c-12.269,13.638-19.027,31.826-19.027,51.213
			c0,41.805,31.826,67.606,75.876,103.318c10.852,8.797,23.152,18.77,36.023,29.801c3.127,2.68,6.995,4.019,10.865,4.019
			c3.87,0,7.739-1.34,10.866-4.019c12.87-11.03,25.17-21.003,36.023-29.801c44.05-35.711,75.876-61.513,75.876-103.318
			C445.547,255.505,438.789,237.316,426.519,223.678z M348.642,352.271c-7.948,6.443-16.66,13.507-25.859,21.195
			c-9.199-7.688-17.911-14.751-25.859-21.195c-42.894-34.775-63.514-52.59-63.514-77.38c0-19.508,12.735-40.241,36.339-40.241
			c26.86,0,36.527,31.8,36.978,33.337c2.042,7.17,8.583,12.164,16.046,12.164c7.487,0,14.047-4.942,16.066-12.151
			c0.397-1.361,10.042-33.349,36.981-33.349c23.603,0,36.339,20.733,36.339,40.241C412.156,299.68,391.536,317.496,348.642,352.271z
			"/>
	</g>
</g>
<g>
	<g>
		<path d="M428.522,89.044H217.043c-9.22,0-16.696,7.475-16.696,16.696s7.475,16.696,16.696,16.696h211.478
			c9.22,0,16.696-7.475,16.696-16.696S437.742,89.044,428.522,89.044z"/>
	</g>
</g>
</svg>
