<?xml version="1.0" encoding="iso-8859-1"?>
<!-- Generator: Adobe Illustrator 19.0.0, SVG Export Plug-In . SVG Version: 6.00 Build 0)  -->
<!-- License: CC0. Made by SVG Repo: https://www.svgrepo.com/svg/75376/wedding-dress -->
<svg version="1.1" id="Layer_1" xmlns="http://www.w3.org/2000/svg" xmlns:xlink="http://www.w3.org/1999/xlink" x="0px" y="0px"
	 viewBox="0 0 503.2 503.2" style="enable-background:new 0 0 503.2 503.2;" xml:space="preserve">
<circle style="fill:#D81665;" cx="251.6" cy="215.2" r="215.2"/>
<g>
	<path style="fill:#00233F;" d="M274.8,72c0,6.4-11.2,10.4-16,10.4h-15.2c-4,0-16-4-16-10.4l8-60c0.8-7.2,4-9.6,8-9.6h16
		c4,0,7.2,2.4,7.2,8.8L274.8,72z"/>
	<path style="fill:#00233F;" d="M259.6,484c0,8-4,14.4-8,14.4l0,0c-4,0-8-6.4-8-14.4V284c0-8,4-14.4,8-14.4l0,0c4,0,8,6.4,8,14.4
		V484z"/>
	<path style="fill:#00233F;" d="M175.6,503.2L175.6,503.2c0-7.2,5.6-12.8,12.8-12.8h131.2c7.2,0,12.8,5.6,12.8,12.8l0,0"/>
</g>
<path style="fill:#07426B;" d="M302,204.8c-37.6-52.8-17.6-65.6-15.2-80s24-11.2,20-34.4c-3.2-16,4.8-18.4,9.6-19.2v-8
	c-0.8-20,7.2-36.8-13.6-36.8h-97.6c-20.8,0-12.8,16.8-12.8,37.6v9.6c4,1.6,7.2,6.4,4.8,17.6c-4,22.4,17.6,20,20,34.4
	s21.6,27.2-15.2,80c-5.6,8-11.2,19.2-15.2,32l-9.6,32.8c0,20.8,16.8,36.8,37.6,36.8h80.8c20.8,0,37.6-16,37.6-36.8l-8.8-16.8
	C317.2,232.8,310,216,302,204.8z"/>
<path style="fill:#00233F;" d="M192.4,64v9.6c4,1.6,7.2,6.4,4.8,17.6c-4,22.4,17.6,20,20,34.4s21.6,27.2-15.2,80
	c-5.6,8-11.2,19.2-15.2,32l-9.6,32.8c0,20.8,16.8,36.8,37.6,36.8h80.8c20.8,0,37.6-16,37.6-36.8l-8.8-16.8
	c-5.6-19.2-12.8-36-20.8-47.2c-37.6-52.8-17.6-64.8-15.2-80s24-11.2,20-34.4c-3.2-16,4.8-18.4,9.6-19.2v-8
	c-2.4-21.6,5.6-38.4-15.2-38.4"/>
<path style="fill:#FFFEF8;" d="M334,266.4c-7.2-25.6-15.2-47.2-24.8-61.6C271.6,152,291.6,140,294,125.6s24-11.2,20-34.4
	c-4-22.4,13.6-18.4,13.6-18.4S326.8,72,326,72c-6.4-5.6-39.2-35.2-73.6-8c-33.6-27.2-67.2,2.4-73.6,8c-0.8,0.8-1.6,0.8-1.6,0.8
	s17.6-4,13.6,18.4s17.6,20,20,34.4s21.6,27.2-15.2,80c-9.6,14.4-18.4,36-24.8,60.8c-18.4,69.6-26.4,160-26.4,160h107.2h3.2H362
	C360.4,426.4,352.4,336,334,266.4z"/>
<path style="fill:#FFFEEE;" d="M251.6,67.2c-34.4-29.6-68.8-1.6-75.2,4c1.6,0,2.4-0.8,4-0.8c28,0,50.4,44.8,50.4,100
	s-22.4,100-50.4,100c-4.8,0-8.8-2.4-12.8-4.8c-19.2,69.6-26.4,160-26.4,160h110.4V67.2L251.6,67.2z"/>
<path style="fill:#F2F0DA;" d="M322.8,270.4c-28,0-50.4-44.8-50.4-100s22.4-100,50.4-100c1.6,0,3.2,0,4,0.8
	c-6.4-5.6-40.8-33.6-75.2-4l0,0v359.2H362c0,0-8-90.4-26.4-160C331.6,268,326.8,270.4,322.8,270.4z"/>
<polyline style="fill:#FFFEEE;" points="251.6,66.4 251.6,426.4 251.6,426.4 251.6,66.4 "/>
<path style="fill:#F9F8F2;" d="M239.6,171.2c0-55.2-31.2-100-59.2-100c-1.6,0-3.2,0-4,0.8c-0.8,0.8-1.6,0.8-1.6,0.8
	s17.6-4,13.6,18.4s17.6,20,20,34.4s21.6,27.2-15.2,80c-9.6,14.4-18.4,36.8-24.8,62.4c4,2.4,8.8,3.2,12.8,3.2
	C208.4,270.4,239.6,226.4,239.6,171.2z"/>
<path style="fill:#EAE7C7;" d="M263.6,171.2c0,55.2,31.2,100,59.2,100c4.8,0,8.8-1.6,12.8-3.2c-7.2-25.6-15.2-48-24.8-62.4
	c-37.6-52.8-17.6-65.6-15.2-80s24-11.2,20-34.4c-4-22.4,13.6-18.4,13.6-18.4s-0.8-0.8-1.6-0.8c-1.6,0-3.2-0.8-4-0.8
	C294.8,71.2,263.6,116,263.6,171.2z"/>
<path id="SVGCleanerId_0" style="fill:#F2F0DA;" d="M324.4,270.4c-21.6,10.4-46.4,16-72.8,16s-51.2-5.6-72.8-16c-4,0-8-2.4-11.2-4.8
	c-19.2,69.6-26.4,160-26.4,160h110.4l0,0H362c0,0-8-90.4-26.4-160C331.6,268,328.4,270.4,324.4,270.4z"/>
<g>
	<path id="SVGCleanerId_0_1_" style="fill:#F2F0DA;" d="M324.4,270.4c-21.6,10.4-46.4,16-72.8,16s-51.2-5.6-72.8-16
		c-4,0-8-2.4-11.2-4.8c-19.2,69.6-26.4,160-26.4,160h110.4l0,0H362c0,0-8-90.4-26.4-160C331.6,268,328.4,270.4,324.4,270.4z"/>
</g>
<path style="fill:#EAE7C7;" d="M251.6,354.4L251.6,354.4H150c-6.4,40-8.8,72-8.8,72h110.4l0,0H362c0,0-2.4-32-8.8-72H251.6z"/>
<g>
	<path style="fill:#FFFEEE;" d="M370,430.4c0,4-3.2,4-7.2,4H140.4c-4,0-7.2,0-7.2-4l0,0c0-4,3.2-4,7.2-4h222.4
		C366.8,426.4,370,426.4,370,430.4L370,430.4z"/>
	<circle style="fill:#FFFEEE;" cx="173.2" cy="301.6" r="4.8"/>
	<circle style="fill:#FFFEEE;" cx="192.4" cy="301.6" r="4.8"/>
	<circle style="fill:#FFFEEE;" cx="212.4" cy="301.6" r="4.8"/>
	<circle style="fill:#FFFEEE;" cx="231.6" cy="301.6" r="4.8"/>
	<circle style="fill:#FFFEEE;" cx="251.6" cy="301.6" r="4.8"/>
	<circle style="fill:#FFFEEE;" cx="271.6" cy="301.6" r="4.8"/>
	<circle style="fill:#FFFEEE;" cx="290.8" cy="301.6" r="4.8"/>
	<circle style="fill:#FFFEEE;" cx="310.8" cy="301.6" r="4.8"/>
	<circle style="fill:#FFFEEE;" cx="330" cy="301.6" r="4.8"/>
	<circle style="fill:#FFFEEE;" cx="173.2" cy="318.4" r="4.8"/>
	<circle style="fill:#FFFEEE;" cx="192.4" cy="318.4" r="4.8"/>
	<circle style="fill:#FFFEEE;" cx="212.4" cy="318.4" r="4.8"/>
	<circle style="fill:#FFFEEE;" cx="231.6" cy="318.4" r="4.8"/>
	<circle style="fill:#FFFEEE;" cx="251.6" cy="318.4" r="4.8"/>
	<circle style="fill:#FFFEEE;" cx="271.6" cy="318.4" r="4.8"/>
	<circle style="fill:#FFFEEE;" cx="290.8" cy="318.4" r="4.8"/>
	<circle style="fill:#FFFEEE;" cx="310.8" cy="318.4" r="4.8"/>
	<circle style="fill:#FFFEEE;" cx="330" cy="318.4" r="4.8"/>
	<circle style="fill:#FFFEEE;" cx="173.2" cy="335.2" r="4.8"/>
	<circle style="fill:#FFFEEE;" cx="192.4" cy="335.2" r="4.8"/>
	<circle style="fill:#FFFEEE;" cx="212.4" cy="335.2" r="4.8"/>
	<circle style="fill:#FFFEEE;" cx="231.6" cy="335.2" r="4.8"/>
	<circle style="fill:#FFFEEE;" cx="251.6" cy="335.2" r="4.8"/>
	<circle style="fill:#FFFEEE;" cx="271.6" cy="335.2" r="4.8"/>
	<circle style="fill:#FFFEEE;" cx="290.8" cy="335.2" r="4.8"/>
	<circle style="fill:#FFFEEE;" cx="310.8" cy="335.2" r="4.8"/>
	<circle style="fill:#FFFEEE;" cx="330" cy="335.2" r="4.8"/>
	<rect x="227.6" y="18.4" style="fill:#FFFEEE;" width="48" height="8"/>
</g>
</svg>
