<?xml version="1.0" encoding="iso-8859-1"?>
<!-- Generator: Adobe Illustrator 18.0.0, SVG Export Plug-In . SVG Version: 6.00 Build 0)  -->
<!DOCTYPE svg PUBLIC "-//W3C//DTD SVG 1.1//EN" "http://www.w3.org/Graphics/SVG/1.1/DTD/svg11.dtd">
<!-- License: CC0. Made by SVG Repo: https://www.svgrepo.com/svg/113656/wedding-suit -->
<svg version="1.1" id="Capa_1" xmlns="http://www.w3.org/2000/svg" xmlns:xlink="http://www.w3.org/1999/xlink" x="0px" y="0px"
	 viewBox="0 0 452.667 452.667" style="enable-background:new 0 0 452.667 452.667;" xml:space="preserve">
<path d="M367.709,208.772c-17.613-93.963-60.125-174.352-61.926-177.728c-1.519-2.845-4.306-4.771-7.473-5.202
	c0,0-45.113-11.923-47.846-12.393V10c0-3.573-1.906-6.874-5-8.66s-6.906-1.786-10,0l-9.132,5.272l-9.133-5.272
	c-3.094-1.787-6.906-1.786-10,0s-5,5.087-5,8.66v3.449c-2.732,0.47-47.843,12.393-47.843,12.393
	c-3.167,0.431-5.956,2.356-7.475,5.202c-1.801,3.376-44.313,83.768-61.926,177.734c-0.802,4.282,1.259,8.59,5.097,10.651
	l26.313,14.136c2.666,1.432,5.835,1.58,8.621,0.404c2.787-1.177,4.892-3.551,5.725-6.459c0.144-0.5,9.866-34.375,21.742-71.473
	l2.575,89.609c0.117,4.076,2.662,7.522,6.224,8.974l10.039,188.579c0.282,5.309,4.669,9.468,9.985,9.468h90.107
	c5.316,0,9.703-4.16,9.985-9.468l10.039-188.578c3.563-1.452,6.11-4.899,6.227-8.975l2.576-89.644
	c11.918,37.209,21.595,70.994,21.735,71.486c0.829,2.913,2.933,5.292,5.722,6.473c2.787,1.18,5.962,1.033,8.629-0.4l26.313-14.137
	C366.451,217.362,368.512,213.053,367.709,208.772z M281.817,99.938l-2.153,74.895h-21.595c-5.522,0-10,4.477-10,10s4.478,10,10,10
	h21.02l-1.165,40.527h-14.4c-14.993,0-27.19-12.198-27.19-27.19v-81.272l22.836-12.052c3.13-1.651,5.153-4.833,5.321-8.368
	l3.248-68.192l18.231,4.937l-4.13,56.272l0.01,0.001C281.838,99.642,281.821,99.788,281.817,99.938z M174.743,235.359l-1.165-40.527
	h21.021c5.522,0,10-4.477,10-10s-4.478-10-10-10h-21.596l-2.152-74.895c-0.004-0.15-0.022-0.296-0.032-0.444l0.01-0.001
	l-4.13-56.272l18.413-4.986l3.25,68.242c0.168,3.535,2.191,6.717,5.321,8.368l22.65,11.954v81.37
	c0,14.993-12.197,27.19-27.189,27.19H174.743z M229.323,31.432l6.142,3.546c1.547,0.894,3.273,1.34,5,1.34s3.453-0.447,5-1.34
	c0.52-0.3,0.992-0.656,1.441-1.036c-3.87,23.203-10.757,45.612-20.573,66.902c-9.815-21.291-16.703-43.7-20.573-66.901
	c0.449,0.379,0.921,0.735,1.44,1.035c1.547,0.894,3.273,1.34,5,1.34s3.453-0.447,5-1.34l6.143-3.546
	C225.336,31.384,227.33,31.384,229.323,31.432z M114.956,210.104l-8.942-4.804c10.698-52.694,29.46-101.19,42.856-131.741
	l1.854,25.255C136.951,136.564,121.663,187.342,114.956,210.104z M236.333,432.667V266.523c0-5.523-4.478-10-10-10s-10,4.477-10,10
	v166.144H190.76l-9.438-177.308h7.821c15.088,0,28.545-7.119,37.189-18.172c8.645,11.053,22.103,18.172,37.19,18.172h7.818
	l-9.438,177.308H236.333z M337.71,210.099c-6.71-22.774-22-73.548-35.767-111.285l1.854-25.253
	c13.396,30.55,32.157,79.043,42.855,131.734L337.71,210.099z"/>
</svg>
