<?xml version="1.0" encoding="iso-8859-1"?>
<!-- Generator: Adobe Illustrator 18.0.0, SVG Export Plug-In . SVG Version: 6.00 Build 0)  -->
<!DOCTYPE svg PUBLIC "-//W3C//DTD SVG 1.1//EN" "http://www.w3.org/Graphics/SVG/1.1/DTD/svg11.dtd">
<!-- License: CC0. Made by SVG Repo: https://www.svgrepo.com/svg/20948/heart-shaped-lock -->
<svg version="1.1" id="Capa_1" xmlns="http://www.w3.org/2000/svg" xmlns:xlink="http://www.w3.org/1999/xlink" x="0px" y="0px"
	 viewBox="0 0 470.425 470.425" style="enable-background:new 0 0 470.425 470.425;" xml:space="preserve">
<g>
	<path d="M370.669,196.584c-8.73-8.73-18.685-15.495-29.307-20.347v-70.089C341.362,47.618,293.743,0,235.213,0
		S129.064,47.618,129.064,106.149v70.014c-10.767,4.934-20.683,11.796-29.308,20.421c-19.035,19.035-29.518,44.344-29.518,71.263
		c0,26.92,10.483,52.229,29.518,71.264l128.385,128.385c1.875,1.875,4.419,2.929,7.071,2.929s5.196-1.054,7.071-2.929
		l128.385-128.385c19.036-19.035,29.519-44.344,29.519-71.264C400.187,240.928,389.704,215.619,370.669,196.584z M149.064,106.149
		C149.064,58.646,187.71,20,235.213,20s86.149,38.646,86.149,86.149v63.377c-6.948-1.54-14.026-2.335-21.111-2.394v-60.983
		c0-35.862-29.176-65.038-65.038-65.038c-35.862,0-65.038,29.176-65.038,65.038v60.927c-7.185,0.059-14.252,0.861-21.111,2.377
		V106.149z M280.251,168.951c-16.156,3.104-31.696,10.157-45.035,21.193c-13.081-10.847-28.505-18.083-45.041-21.249v-62.746
		c0-24.834,20.204-45.038,45.038-45.038s45.038,20.204,45.038,45.038V168.951z M356.526,324.968L235.212,446.283L113.898,324.968
		c-15.257-15.257-23.66-35.543-23.66-57.121s8.403-41.864,23.661-57.121c15.257-15.258,35.543-23.661,57.121-23.661
		s41.864,8.403,57.121,23.66c1.875,1.875,4.419,2.929,7.071,2.929c2.652,0,5.196-1.054,7.072-2.929
		c15.257-15.257,35.543-23.66,57.121-23.66s41.864,8.403,57.121,23.661c15.258,15.257,23.661,35.543,23.661,57.121
		S371.784,309.711,356.526,324.968z"/>
	<path d="M235.59,254c-0.124-0.001-0.245-0.002-0.368-0.002c-20.143,0-37.045,16.26-37.757,36.413
		c-0.407,11.496,4.495,22.509,13.051,29.928v18.781c0,13.618,11.08,24.697,24.698,24.697s24.697-11.079,24.697-24.697v-18.765
		c8.275-7.12,13.075-17.445,13.075-28.584C272.985,271.147,256.21,254.203,235.59,254z M244.609,306.854
		c-2.923,1.828-4.699,5.032-4.699,8.479v23.787c0,2.59-2.107,4.697-4.698,4.697c-2.59,0-4.697-2.107-4.697-4.697v-23.787
		c0-3.448-1.776-6.652-4.699-8.479c-5.465-3.417-8.592-9.299-8.364-15.736c0.335-9.476,8.288-17.12,17.768-17.12
		c0.058,0,0.116,0,0.173,0.001c9.701,0.096,17.592,8.068,17.592,17.772C252.985,297.937,249.854,303.575,244.609,306.854z"/>
</g>
</svg>
