<?xml version="1.0" encoding="utf-8"?>

<!-- License: CC Attribution. Made by soco-st: https://soco-st.com/ -->
<svg width="800px" height="800px" viewBox="-70.6 0 373.947 373.947" xmlns="http://www.w3.org/2000/svg"><defs><style>.a{fill:#ffffff;}.b{fill:#7a7473;}.c{fill:#211715;}.d{fill:#b3b3b3;}.e{fill:#f4b3b3;}</style></defs><path class="a" d="M165.154,84.683a7.548,7.548,0,0,1,6.039-1.767,7.123,7.123,0,0,1,5.124,3.407,10.06,10.06,0,0,1,1.055,4.053,30.189,30.189,0,0,1-3.079,16,19.166,19.166,0,0,1-4.962,6.513,12.715,12.715,0,0,1-5.917,2.667l-1.013.157c-.486,1.817-1.031,3.348-1.3,4.161-1.82,4.94-12.475,22.718-25.572,27.655a67.455,67.455,0,0,0,1.066,11.639c.6,3.439.414,6.512,5.195,8.239.316.114,13.875,6.564,14.359,6.764,0,0-2.4,35.867-42.1,35.867S69.69,174.912,69.69,174.912c.921-.314,16.042-7.386,16.358-7.5,4.781-1.727,4.592-4.8,5.195-8.239a66.832,66.832,0,0,0,1.062-12.2A43.993,43.993,0,0,1,77.318,134.96a51.361,51.361,0,0,1-9.786-19.1l-1.929-.3a12.732,12.732,0,0,1-5.916-2.667,19.182,19.182,0,0,1-4.963-6.514,30.2,30.2,0,0,1-3.079-16A10.076,10.076,0,0,1,52.7,86.323a7.127,7.127,0,0,1,5.124-3.407,7.548,7.548,0,0,1,6.039,1.767s1-42.936,49.593-42.936S165.154,84.683,165.154,84.683Z"/><path class="b" d="M56.467,42.026C63.748,18.919,87.181,2.45,114.161,2.45c30.905,0,51.531,17.073,58.469,44.254,1.914,7.5,3.747,24.929.125,36.63a7.132,7.132,0,0,0-1.562-.418,7.645,7.645,0,0,0-4.835.906A74.393,74.393,0,0,1,148.382,68.9c-6.186-6.852-11.445-15.667-14.223-20.556-8.666,7.334-14.873,10.778-29.144,18.435C87.6,76.117,66.056,82.969,63.382,83.228l-1.634.158a7.631,7.631,0,0,0-3.924-.47l-.193.031-2.4-8.311c-2.4-5.444-1.9-18.553-.1-27.454A50.864,50.864,0,0,1,56.467,42.026Z"/><path class="a" d="M115.691,163.26l-31.441.4c1.706,5.742,3.71,14.685,8.264,27.732,7.335,21.015,17.387,44.468,22.8,56.15l.372.805a593.858,593.858,0,0,0,20.894-58.366,203.17,203.17,0,0,0,6.144-27.062Z"/><path class="c" d="M133.138,148.484a96.844,96.844,0,0,0,1.448,13.284c.512,3.214,2.025,5.907,5.07,7.336.181.085,1.349.394,1.5.622-.009-.014-.783-.358-.406-.168.211.107.431.2.645.3q1.19.556,2.377,1.119,3.262,1.542,6.524,3.087c1.544.731,3.074,1.514,4.646,2.185a2.48,2.48,0,0,0,3.283-.861,2.417,2.417,0,0,0-.861-3.284c-3.289-1.4-6.49-3.059-9.723-4.587-1.456-.689-2.905-1.4-4.374-2.059a10.946,10.946,0,0,1-2.52-1.275,3.831,3.831,0,0,1-1.338-2.625,70.177,70.177,0,0,1-1.468-13.073c-.063-3.084-4.863-3.095-4.8,0Z"/><path class="c" d="M89.9,148.484a80.234,80.234,0,0,1-1.366,12.546,10.338,10.338,0,0,1-.447,1.787,3.376,3.376,0,0,1-.78,1.168,8.984,8.984,0,0,1-2.678,1.445c-3.787,1.681-7.521,3.487-11.285,5.22q-1.59.732-3.185,1.456-.508.229-1.018.455c-.712.317.344-.118-.09.037a2.463,2.463,0,0,0-1.676,2.952,2.422,2.422,0,0,0,2.952,1.677c1.569-.563,3.084-1.351,4.6-2.045q3.622-1.663,7.236-3.345c1.63-.755,3.274-1.483,4.893-2.262a.873.873,0,0,0,.171-.076c-.028.023-.924.376-.344.153.284-.109.565-.226.845-.347a10.2,10.2,0,0,0,2.764-1.728,8.47,8.47,0,0,0,2.454-4.23,54.255,54.255,0,0,0,.963-5.71,73.471,73.471,0,0,0,.795-9.153c.063-3.09-4.737-3.089-4.8,0Z"/><path class="b" d="M53.8,118.954c1.6-2.766,4.037-5.042,7.611-4.886a12.222,12.222,0,0,0,4.189,1.494l1.93.3a51.347,51.347,0,0,0,9.785,19.1,43.821,43.821,0,0,0,15.19,12.107c-6.055,7.4-20.591,10.348-30.024,4.735-8.235-4.9-12.5-15.462-11.243-25.143A22.288,22.288,0,0,1,53.8,118.954Z"/><path class="c" d="M57.306,73.424c.162.38-.145-.441-.175-.534-.107-.331-.2-.667-.285-1A22.738,22.738,0,0,1,56.4,69.6a42.708,42.708,0,0,1-.373-5.15A80.072,80.072,0,0,1,56.7,52.366a51.852,51.852,0,0,1,6.6-19.79C70.5,20.33,82.665,11.5,96.2,7.462a65.591,65.591,0,0,1,43.125,2.069,52.021,52.021,0,0,1,26.8,26,63.215,63.215,0,0,1,5.451,18.49,79.627,79.627,0,0,1,.2,22.724,43.853,43.853,0,0,1-1.235,5.619c-.87,2.97,3.761,4.239,4.628,1.276,2.347-8.021,2.409-16.737,1.708-25.005a73.75,73.75,0,0,0-4.456-20.508c-5.09-13.185-14.309-24.474-26.969-31.007C131.646,0,114.861-1.655,99.753,1.6A63.163,63.163,0,0,0,61.678,26.255a53.556,53.556,0,0,0-8.855,20.289c-1.619,8-2.342,16.7-.983,24.788a19.613,19.613,0,0,0,1.321,4.515,2.415,2.415,0,0,0,3.284.861,2.465,2.465,0,0,0,.861-3.284Z"/><path class="c" d="M59.584,111.79c-5.133.7-8.164,5.588-9.676,10.093a27.842,27.842,0,0,0-.455,15.146,27.246,27.246,0,0,0,8.738,14.636,24.6,24.6,0,0,0,16.54,5.453A28.023,28.023,0,0,0,92.6,150.446c2.308-2.064-1.1-5.449-3.394-3.394-6.818,6.1-18.773,7.229-26.412,2.11a21.472,21.472,0,0,1-8.133-11.312,24.146,24.146,0,0,1-.688-12.757c.934-3.822,2.8-8.118,6.884-8.675a2.413,2.413,0,0,0,1.676-2.952,2.464,2.464,0,0,0-2.952-1.676Z"/><path class="c" d="M98.4,56.22c-.134.407-.273.812-.423,1.214-.089.24-.183.478-.277.717-.028.071-.15.363-.053.134-.349.817-.742,1.617-1.166,2.4q-.6,1.111-1.3,2.167-.381.579-.787,1.14-.148.2-.3.4c-.484.646.271-.313-.243.309a32.951,32.951,0,0,1-3.468,3.64A25.909,25.909,0,0,1,86.4,71.275a2.4,2.4,0,0,0,2.422,4.145A33.173,33.173,0,0,0,103.029,57.5,2.4,2.4,0,1,0,98.4,56.22Z"/><path class="d" d="M227.8,280.674c-2.273-9.844-10.238-33.547-13.509-44.995-3.9-13.653-11.04-39.663-18.614-45.183-2.152-1.717-4.572-2.581-6.992-3.9A391.347,391.347,0,0,0,150,167.653c-3.172-2.653-6.031-4.592-7.278-4.736a203.17,203.17,0,0,1-6.144,27.062,593.224,593.224,0,0,1-20.895,58.363l-.371-.8c-5.41-11.682-15.462-35.135-22.8-56.15-4.554-13.047-6.558-21.99-8.264-27.732-1.619.079-6.232,3.716-10.621,8-10.4,4.715-19.426,9.477-29.474,14.942-2.067,1.124-4.428,2.135-6.415,3.477-7.811,4.437-15.25,31.558-19.263,45.6C15.206,247.127,7.242,270.83,4.968,280.674,2.3,292.222-.218,300.036,8,309.166c3.912,4.347,9.329,7.72,14.011,10.3,3.515,1.932,10.525,5.7,18.056,9.621,3.1,1.613,6.292,3.25,9.362,4.792-1.808,13.395-3.631,26.429-4.4,33.362,15.163,1.969,35.439,2.972,49.448,1.719a13.957,13.957,0,0,0,5.634-1.353,9.549,9.549,0,0,0,4.266-4.523c4.557-11.21,9.728-26.814,12.385-36.218l.309-.791c1.56,11.275,3.285,21.983,5.049,29.934.944,4.255,1.827,10.132,4.272,12.464,4.089,2.453,13.017,3.071,18.605,3.066,14.466-.011,31.717-1.84,42.749-4.632-.786-7.017-2.582-19.863-4.36-33.055,10.509-5.282,22.408-11.662,27.362-14.386,4.682-2.575,10.1-5.948,14.011-10.3C232.981,300.036,230.462,292.222,227.8,280.674Zm-173.78,12.7c-4.74-2.777-9.079-5.473-11.887-7.315l.053-.378c.44-3.166,2.758-9.013,5.754-15.525.678-1.476,1.391-2.985,2.126-4.5,1.315,8.445,2.632,17,3.875,25.4A15.19,15.19,0,0,1,54.015,293.369Zm124.792-.026a14.865,14.865,0,0,1,.078-2.3c1.238-8.37,2.549-16.89,3.86-25.305.772,1.6,1.521,3.186,2.23,4.733,2.925,6.383,5.175,12.089,5.607,15.2l.053.378C187.838,287.889,183.522,290.57,178.807,293.343Z"/><path class="c" d="M116.066,253.383c5.143-11.393,9.541-23.136,13.707-34.915,4.786-13.529,9.454-27.231,12.644-41.238,1.032-4.531,1.832-9.1,2.618-13.675l-2.952,1.677c.271.039,1.062.392.389.064.389.19.771.388,1.144.61a30.512,30.512,0,0,1,2.8,1.93,76.3,76.3,0,0,1,6.569,5.753,51.97,51.97,0,0,1,5.629,6.268c.316.444.622.9.9,1.367.13.221.257.445.374.674.613,1.2-.325-.368.3-1.5-.189.344.394-.419.107-.124-.145.15-.272.321-.411.476-.392.442-.8.869-1.212,1.294-2.4,2.482-4.879,4.9-7.442,7.2a2.411,2.411,0,0,0-.375,2.908c2.217,3.207,4.655,6.126,6.914,9.082.05.064.095.218.159.267-.35-.265-.16-1.732-.184-1.648.263-.927.277-.572.13-.338-.17.273-.311.573-.47.854-.617,1.089-1.256,2.166-1.894,3.243-5.259,8.875-10.641,17.678-16,26.492q-5.458,8.98-10.926,17.954c-1.61,2.646,2.539,5.06,4.145,2.423q9.82-16.131,19.615-32.277c2.414-3.991,4.827-7.982,7.206-11.994.655-1.1,1.31-2.208,1.945-3.323a5.26,5.26,0,0,0,.972-2.435,4.325,4.325,0,0,0-1.11-2.44c-.752-1.035-1.545-2.041-2.332-3.049-1.482-1.9-2.752-3.392-4.026-5.234l-.375,2.909c2.5-2.25,4.919-4.6,7.261-7.016a16.1,16.1,0,0,0,2.384-2.707c.837-1.4.181-2.751-.561-4.026a38.642,38.642,0,0,0-5.839-7.2,78.815,78.815,0,0,0-7.624-6.908c-1.884-1.489-4.4-3.817-6.892-4.176-1.181-.17-2.711.275-2.952,1.676a250.258,250.258,0,0,1-7.509,31.56Q126.676,214,119.047,233.7c-2.242,5.806-4.564,11.586-7.125,17.259a2.473,2.473,0,0,0,.861,3.284,2.418,2.418,0,0,0,3.283-.861Z"/><path class="c" d="M47.433,367.236c.916-8.264,2.04-16.012,3.143-24.129,1.393-10.249,2.8-20.5,4.043-30.767.5-4.116.977-8.237,1.356-12.366a63.447,63.447,0,0,0,.438-7.926,63.358,63.358,0,0,0-.989-7.179q-.891-5.921-1.8-11.837Q51.8,261.206,49.93,249.386C47.77,235.6,45.581,221.81,43.7,207.98q-.274-2.026-.535-4.056a2.479,2.479,0,0,0-2.4-2.4,2.413,2.413,0,0,0-2.4,2.4C40.1,217.385,42.2,230.8,44.291,244.206q3.671,23.5,7.262,47.017c.16,1.052,0-.5.03.253.008.191.024.381.03.572.017.486.011.972,0,1.457-.033,1.32-.122,2.639-.223,3.956-.3,3.855-.726,7.7-1.173,11.54-1.158,9.949-2.507,19.857-3.844,29.71-1.19,8.765-2.437,17.524-3.484,26.307q-.132,1.109-.255,2.218a2.414,2.414,0,0,0,2.4,2.4,2.457,2.457,0,0,0,2.4-2.4Z"/><path class="a" d="M174.094,231.183H149.068c0,1.814.04,6.6.04,8.786,4.177,0,21.843.04,24.986.04C174.094,236.986,174.063,231.544,174.094,231.183Z"/><path class="c" d="M174.094,228.783H149.068a2.435,2.435,0,0,0-2.4,2.4c0,2.929.038,5.857.04,8.786a2.435,2.435,0,0,0,2.4,2.4c8.329,0,16.657.039,24.986.04a2.435,2.435,0,0,0,2.4-2.4c0-2.93-.163-5.9,0-8.826.172-3.086-4.628-3.076-4.8,0-.163,2.926,0,5.9,0,8.826l2.4-2.4c-8.329,0-16.657-.04-24.986-.04l2.4,2.4c0-2.929-.038-5.857-.04-8.786l-2.4,2.4h25.026C177.182,233.583,177.188,228.783,174.094,228.783Z"/><path class="c" d="M174.094,228.783H149.068a2.435,2.435,0,0,0-2.4,2.4c0,2.929.038,5.857.04,8.786a2.435,2.435,0,0,0,2.4,2.4c8.329,0,16.657.039,24.986.04a2.435,2.435,0,0,0,2.4-2.4c0-2.93-.163-5.9,0-8.826.172-3.086-4.628-3.076-4.8,0-.163,2.926,0,5.9,0,8.826l2.4-2.4c-8.329,0-16.657-.04-24.986-.04l2.4,2.4c0-2.929-.038-5.857-.04-8.786l-2.4,2.4h25.026C177.182,233.583,177.188,228.783,174.094,228.783Z"/><path class="c" d="M190.188,367.236c-.919-8.29-2.112-16.553-3.235-24.817-1.365-10.037-2.728-19.982-3.952-30.079-.5-4.116-.977-8.237-1.356-12.366a63.639,63.639,0,0,1-.438-7.926c.006-.177.02-.354.027-.532.037-.818-.124.742.033-.293.3-2,.6-4,.9-6q.893-5.922,1.808-11.84,1.824-11.811,3.687-23.615c2.148-13.717,4.322-27.436,6.181-41.2q.314-2.32.614-4.643a2.413,2.413,0,0,0-2.4-2.4,2.461,2.461,0,0,0-2.4,2.4c-1.717,13.33-3.818,26.611-5.892,39.888-2.429,15.547-5,31.079-7.2,46.66a32.345,32.345,0,0,0,.071,6.989c.3,3.855.725,7.7,1.172,11.54,1.181,10.145,2.562,20.267,3.935,30.387,1.188,8.756,2.348,16.867,3.393,25.63q.132,1.109.256,2.218a2.47,2.47,0,0,0,2.4,2.4,2.416,2.416,0,0,0,2.4-2.4Z"/><path class="c" d="M180.525,266.645c1.805,3.734,3.57,7.5,5.116,11.347a37.5,37.5,0,0,1,2.627,8.322,2.415,2.415,0,0,0,2.952,1.676,2.462,2.462,0,0,0,1.677-2.952,38.466,38.466,0,0,0-2.751-8.629c-1.673-4.129-3.538-8.177-5.477-12.187a2.422,2.422,0,0,0-3.283-.861,2.451,2.451,0,0,0-.861,3.284Z"/><path class="c" d="M48.094,264.222c-1.939,4.01-3.8,8.058-5.477,12.187a38.463,38.463,0,0,0-2.75,8.629,2.478,2.478,0,0,0,1.676,2.952,2.417,2.417,0,0,0,2.952-1.676,37.486,37.486,0,0,1,2.627-8.322c1.546-3.85,3.311-7.613,5.116-11.347a2.463,2.463,0,0,0-.861-3.284,2.421,2.421,0,0,0-3.283.861Z"/><path class="c" d="M89.6,187.807a86.065,86.065,0,0,0,18.042,1.092,2.456,2.456,0,0,0,2.4-2.4,2.421,2.421,0,0,0-2.4-2.4,80.182,80.182,0,0,1-16.766-.921,2.479,2.479,0,0,0-2.952,1.677,2.418,2.418,0,0,0,1.676,2.952Z"/><path class="c" d="M37.976,192.861c2.621-2.021,5.762-3.3,8.657-4.876q4.623-2.511,9.278-4.962c6.23-3.266,12.534-6.387,18.939-9.3a2.419,2.419,0,0,0,.861-3.284,2.458,2.458,0,0,0-3.284-.861c-6.4,2.911-12.708,6.032-18.939,9.3q-4.659,2.444-9.278,4.962c-2.9,1.572-6.035,2.856-8.657,4.876A2.483,2.483,0,0,0,34.692,192a2.417,2.417,0,0,0,3.284.861Z"/><path class="c" d="M148.7,169.692c7.933,3.295,15.72,6.926,23.374,10.823,3.671,1.87,7.314,3.8,10.942,5.746,1.884,1.014,3.748,2.079,5.662,3.037a34.22,34.22,0,0,1,5.783,3.271,2.415,2.415,0,0,0,3.284-.861,2.463,2.463,0,0,0-.861-3.284,34.19,34.19,0,0,0-5.784-3.271c-1.978-.99-3.9-2.092-5.853-3.139-3.689-1.983-7.393-3.938-11.127-5.835q-11.858-6.021-24.144-11.115a2.414,2.414,0,0,0-2.952,1.676,2.461,2.461,0,0,0,1.676,2.952Z"/><path class="c" d="M141.642,175.129c2.514-.456,4.877-1.676,7.321-2.395a18.46,18.46,0,0,1,1.9-.466c.093-.017.185-.033.278-.048.259-.039.183-.03-.231.028.052-.051.33-.034.395-.038.29-.021.575-.014.864-.009.367.006.161.214-.185-.033a1.27,1.27,0,0,0,.317.07c.068.018.134.038.2.061q.34.127-.291-.125a1.569,1.569,0,0,0,.258.146c.352.164-.487-.43-.145-.095s-.237-.489-.093-.129a1.946,1.946,0,0,0,.151.283q-.243-.606-.121-.253c.024.078.045.157.063.236a2.424,2.424,0,0,0,2.953,1.676,2.45,2.45,0,0,0,1.676-2.952,4.732,4.732,0,0,0-3.478-3.5,10.362,10.362,0,0,0-4.892.277,46.719,46.719,0,0,0-4.494,1.474,23.127,23.127,0,0,1-3.718,1.166,2.411,2.411,0,0,0-1.676,2.952,2.465,2.465,0,0,0,2.952,1.677Z"/><path class="c" d="M103.825,251.005l0,0a2.417,2.417,0,0,0,3.394,0,2.46,2.46,0,0,0,0-3.394c-5.235-6.66-10.581-13.235-15.863-19.858-7.108-8.911-14.258-17.794-21.251-26.8l-.384-.5c.3.385.256.334.011.014-.168-.22-.336-.439-.5-.66-1.044-1.4.346.883-.3,1.508a4.651,4.651,0,0,0,.432-.678c.092-.133.189-.262.284-.393.009-.013.421-.557.173-.236.673-.873,1.381-1.721,2.088-2.567,1.21-1.445,2.445-2.868,3.676-4.295a2.437,2.437,0,0,0,0-3.394c-2.364-2.113-4.811-4.131-7.183-6.234-.446-.4-.891-.791-1.323-1.2-.166-.158-.325-.322-.49-.48-.325-.31-.133-.286.03.086.68,1.562-.261,2.663.3,1.553.1-.194.2-.384.309-.572.3-.523.626-1.027.968-1.521a52.246,52.246,0,0,1,5.286-6.189,82.3,82.3,0,0,1,6.67-6.213,26.105,26.105,0,0,1,2.881-2.15c.419-.27.851-.5,1.286-.743.518-.285-.288.108.011,0,.251-.095.824-.111-.08-.037L81.936,164.3c1.275,4.31,2.356,8.676,3.593,13,1.821,6.358,3.892,12.633,6.132,18.855,4.529,12.583,9.533,25,14.793,37.289,2.2,5.133,4.44,10.247,6.784,15.314a2.421,2.421,0,0,0,3.284.861,2.456,2.456,0,0,0,.861-3.284c-4.62-9.987-8.911-20.132-13.017-30.34-5.044-12.54-9.886-25.208-13.691-38.185-1.439-4.909-2.66-9.879-4.111-14.784a2.431,2.431,0,0,0-2.314-1.762c-2.374.194-4.417,1.914-6.221,3.32a75.947,75.947,0,0,0-7.311,6.588,61.309,61.309,0,0,0-6.534,7.616,16.767,16.767,0,0,0-1.69,2.891c-.736,1.677-.084,2.824,1.127,3.983,2.741,2.625,5.746,4.972,8.575,7.5v-3.394c-2.36,2.734-4.838,5.431-6.919,8.389-.752,1.067-1.3,2.32-.56,3.574a8.194,8.194,0,0,0,.567.773c2.592,3.422,5.284,6.771,7.95,10.136q12.128,15.309,24.339,30.551c2.084,2.608,4.192,5.2,6.255,7.823l3.394-3.394,0,0a2.416,2.416,0,0,0-3.394,0,2.456,2.456,0,0,0,0,3.394Z"/><path class="c" d="M111.922,250.96c-1.414,3.07-3.01,6.247-3.58,9.611a24.044,24.044,0,0,0-.277,5.524c.164,2.691.427,5.377.675,8.06q1.475,15.963,3.379,31.884c1.5,12.654,3.13,25.306,5.256,37.872.92,5.442,2.015,10.842,3.176,16.237.7,3.267,1.47,7.228,3.873,9.731a9.95,9.95,0,0,0,4.242,2.145,33.354,33.354,0,0,0,5.1,1.11c7.71,1.144,15.559.884,23.314.415a200.252,200.252,0,0,0,25.161-3q2.553-.484,5.081-1.082c3-.714,1.733-5.343-1.276-4.628a157.977,157.977,0,0,1-22.583,3.428,157.952,157.952,0,0,1-23.512.709,42.465,42.465,0,0,1-9.854-1.538,12.634,12.634,0,0,1-1.665-.609c-.663-.314-.606-.264-.985-.887a15.488,15.488,0,0,1-1.579-4.161c-1.434-5.394-2.428-10.968-3.4-16.464-2.084-11.8-3.66-23.688-5.1-35.58q-1.975-16.275-3.542-32.6c-.3-3.188-.6-6.377-.851-9.57a20.365,20.365,0,0,1,1-9.331c.609-1.656,1.354-3.259,2.091-4.861a2.471,2.471,0,0,0-.861-3.284,2.42,2.42,0,0,0-3.283.861Z"/><path class="c" d="M114.452,326.223a343.934,343.934,0,0,1-12.108,35.533,7.829,7.829,0,0,1-6.612,4.673c-2.942.394-5.955.479-8.918.577-6.6.217-13.219.085-19.817-.244-7.341-.367-14.674-.985-21.964-1.926a2.412,2.412,0,0,0-2.4,2.4,2.46,2.46,0,0,0,2.4,2.4,262.952,262.952,0,0,0,41.006,2.194c3.093-.088,6.2-.228,9.275-.555,3.748-.4,7.237-1.6,9.672-4.64,2.067-2.583,3.013-6.149,4.166-9.216q1.821-4.84,3.5-9.73c2.309-6.673,4.5-13.4,6.425-20.19.843-2.977-3.787-4.248-4.629-1.276Z"/><path class="c" d="M122.487,268.681c0-.2.015-.4.03-.606.033-.426-.116.656-.03.237.021-.1.038-.2.061-.3.047-.2.111-.387.175-.579.132-.4-.279.573-.086.2.062-.119.121-.239.191-.354.052-.087.11-.17.165-.254.229-.348-.413.467-.123.166.145-.15.3-.285.449-.432-.539.54-.182.141.051.008.1-.055.211-.095.3-.155q-.594.242-.247.107.115-.042.231-.078c.247-.077.516-.094.759-.173-.6.194-.327.041-.075.025.15-.009.3-.016.452-.014s.286.019.429.028c.509.031-.582-.126-.1-.009.281.068.56.176.84.238-.591-.131-.376-.168-.148-.05.1.052.2.108.293.168.511.322-.4-.372.038.019.161.143.291.309.44.463-.48-.5-.248-.328-.127-.142a4.257,4.257,0,0,1,.214.369c.1.184.171.517-.062-.183.034.1.079.2.113.306a5.588,5.588,0,0,1,.172.64c.022.11.035.222.059.332-.165-.751-.051-.4-.034-.185a6.318,6.318,0,0,1,.02.741c-.011.272-.17.683.038-.132-.044.171-.062.35-.108.522s-.135.349-.172.525c.125-.6.209-.47.09-.228-.057.115-.118.228-.184.338-.051.084-.106.164-.159.246-.223.345.412-.478.133-.171-.138.152-.28.294-.428.436-.3.293.513-.349.155-.114-.091.06-.179.122-.272.178-.064.038-.129.075-.194.11-.538.285.439-.136.046-.006a6.576,6.576,0,0,1-.716.206c-.276.058-.456-.055.107,0a3.24,3.24,0,0,0-.426.032c-.272.012-.591-.06-.855-.02l.376.054c-.084-.013-.168-.028-.251-.045a4.441,4.441,0,0,1-.47-.122c-.229-.074-.421-.263.146.077-.125-.075-.263-.128-.388-.2-.09-.055-.174-.124-.266-.175.593.331.332.266.164.115-.075-.068-.148-.14-.217-.214-.164-.173-.344-.548.055.1-.121-.2-.256-.38-.363-.587-.045-.086-.082-.177-.127-.264.375.721.138.335.066.122a5.88,5.88,0,0,1-.176-.64c-.02-.091-.033-.183-.053-.273-.086-.383.066.738.026.191-.014-.2-.028-.4-.029-.6a2.4,2.4,0,1,0-4.8,0c.018,2.541,1.167,5.3,3.535,6.5,2.774,1.4,6.715.963,8.781-1.5a7.55,7.55,0,0,0,1.274-7.464,6.78,6.78,0,0,0-2.843-3.554,7.816,7.816,0,0,0-5.158-.831,6.544,6.544,0,0,0-4.368,2.7,7.228,7.228,0,0,0-1.221,4.156,2.4,2.4,0,0,0,4.8,0Z"/><path class="e" d="M133.381,168.371a29.374,29.374,0,0,1-10.641,3.78c-10.239,1.66-22.808,1.073-27.8.818-6.663-.341-9.375-3.786-8.83-7.466,1.347-4.3,2.88-7.677,4.211-11.557a2.946,2.946,0,0,1,3.022-2.119,143.984,143.984,0,0,0,28.563.581c4.821-.434,9.809-2.633,13.834-2.019,2.623.4,2.735,3.249,3.662,7.754C140.2,162.017,137.707,165.694,133.381,168.371Z"/><path class="c" d="M132.17,166.3c-7.447,4.52-17.041,4.543-25.494,4.58-3.481.016-6.962-.08-10.439-.246a16.013,16.013,0,0,1-4.775-.716,8.455,8.455,0,0,1-1.55-.78,5.821,5.821,0,0,1-.667-.618,1.58,1.58,0,0,1-.424-.593,4.269,4.269,0,0,1-.216-.42c.047.11.116.348-.008-.08-.045-.158-.179-.907-.137-.5a4.557,4.557,0,0,1,.4-2.137c.743-2.216,1.6-4.39,2.439-6.572.384-1,.761-2,1.118-3.013.244-.691.263-.9.923-.976a18.025,18.025,0,0,1,3.407.328q1.913.172,3.827.313a139.725,139.725,0,0,0,14.585.351c2.539-.081,5.1-.195,7.622-.508,2.434-.3,4.8-.912,7.189-1.439a22.337,22.337,0,0,1,3.483-.566,9.8,9.8,0,0,1,1.542,0c1.326.13.414.052.343.04.532.085-.177-.176.246.078-.447-.268.34.391.031.023.333.4.189.242.361.77a23.276,23.276,0,0,1,.651,2.808c.342,1.776.841,3.425.1,5.161a11.208,11.208,0,0,1-4.556,4.711c-2.6,1.648-.2,5.8,2.422,4.145,3.96-2.507,7.814-6.575,7.31-11.639a31.683,31.683,0,0,0-1.3-6.462,5.883,5.883,0,0,0-3.66-4.128c-2.334-.739-5.071-.226-7.4.248a76.491,76.491,0,0,1-7.64,1.545,118.425,118.425,0,0,1-17.283.307c-2.7-.132-5.4-.335-8.1-.581s-5.311-.779-7.327,1.478a9.5,9.5,0,0,0-1.624,3.328c-.484,1.337-1,2.662-1.512,3.988-.893,2.316-2.262,4.956-2.4,7.454-.23,4.051,2.617,7.1,6.225,8.452,3.528,1.318,7.743,1.095,11.467,1.188a138.192,138.192,0,0,0,16.267-.429c5.93-.552,11.816-1.615,16.98-4.749C137.229,168.843,134.82,164.691,132.17,166.3Z"/><path class="e" d="M133.418,158.875c-.809.348-1.363.754-1.516,1.34l-1.26.055c-3.912.073-12.842,1.059-16.4,3.3-4.791,3.013-3.228,6.325-1.181,11.751,1.049,2.781,1.959,5.794,3.564,7.713l-.219.269a2.391,2.391,0,0,0-.589,3.894c3.9,3.5,10.382,6.156,12.658,7.445a2.863,2.863,0,0,0,3.573-.6,29.2,29.2,0,0,0,3.4-5.378c2.335-4.882,4.228-8.314,6.227-12.311l.891-1.782,1.85,1.41a126.166,126.166,0,0,0,11.989,6.214,3.687,3.687,0,0,0,3.72-.7,46.675,46.675,0,0,0,9.481-8.526c1.538-1.771-.081-3.55-2.349-4.151l-.332-.206a3.76,3.76,0,0,0,.081-.9c.283-5.8-1.6-15.4-6.659-17.356-5.1-.74-13.024,4.3-18.382,6.986l-.539.42c-1.117-.725-3.67-.259-5.7.339A21.75,21.75,0,0,0,133.418,158.875Z"/><path class="c" d="M130.642,157.87a52.958,52.958,0,0,0-13.526,1.934c-4.258,1.246-8.763,4.1-8.409,9.126a25.442,25.442,0,0,0,2.037,7.028,53.294,53.294,0,0,0,2.633,6.5,9.144,9.144,0,0,0,4.931,4.579c2.576.884,5.566.091,8.048-.749a32.3,32.3,0,0,0,8.487-4,66.546,66.546,0,0,0,5.691-4.665c2.31-2.06-1.094-5.445-3.394-3.394-2.837,2.531-5.675,4.937-9.238,6.372-2.187.881-4.6,1.929-6.986,2.019a3.1,3.1,0,0,1-2.954-1.817,25.411,25.411,0,0,1-2.138-4.9c-.72-1.975-1.587-3.924-2.107-5.965a5.215,5.215,0,0,1-.24-1.836,2.482,2.482,0,0,1,.631-1.372,7.955,7.955,0,0,1,3.987-2.213,46.9,46.9,0,0,1,12.547-1.851c3.084-.068,3.095-4.868,0-4.8Z"/><path class="c" d="M135.085,155.792c-2.4.711-5.669,1.711-5.626,4.8a23.566,23.566,0,0,0,.966,5.439,28.845,28.845,0,0,0,2.131,5.871,8.165,8.165,0,0,0,1.5,2.141,5.837,5.837,0,0,0,3.518,1.388,12.7,12.7,0,0,0,3.863-.331,15.17,15.17,0,0,0,4.1-1.407,3.816,3.816,0,0,0,2.155-2.2,5.175,5.175,0,0,0,.2-1.809,28.859,28.859,0,0,0-2.337-9.223,12.261,12.261,0,0,0-2.313-4.249c-2.081-2.03-5.7-1.131-8.16-.418a2.4,2.4,0,0,0,1.276,4.629c.506-.147,1.014-.282,1.528-.394.24-.052.48-.1.722-.142.059-.01.555-.076.272-.045-.236.027.214-.014.257-.017.217-.016.435-.026.653-.023.1,0,.2.007.308.01.465.014.012.012-.074-.014.3.09.385.158.053-.03.185.1-.634-.405-.274-.207.057.031.085.109.136.147.206.154-.37-.558-.162-.2.1.177.223.344.325.522.268.469.492.959.715,1.45.217.475-.156-.4,0,0,.053.133.109.266.162.4q.193.487.371.981.361.995.671,2.007a32.465,32.465,0,0,1,.957,3.835c.026.148.049.3.073.445.077.464-.028-.3-.02-.158.014.251.053.5.062.753.007.193-.02.392-.008.584.019.328.116-.706.039-.31-.01.053-.068.159-.06.209-.039-.246.4-.745.477-.823,0,0,.683-.42.255-.221-.233.109-.453.259-.682.378-.156.081-.313.158-.471.235-.384.187.245-.089-.142.069a13.656,13.656,0,0,1-3.31.789c.4-.052-.11,0-.247.012-.237.017-.474.025-.712.021-.092,0-.678-.014-.338,0,.309.011.039.008-.036-.009-.113-.027-.227-.048-.339-.079s-.218-.081-.325-.1c.032.006.391.219.187.078s.358.407.068.09c-.012-.014-.255-.3-.269-.293.017,0,.3.437.185.239-.043-.076-.1-.146-.151-.219a9.066,9.066,0,0,1-.481-.826c-.087-.168-.17-.338-.251-.509-.1-.205-.253-.578-.071-.136-.321-.78-.6-1.575-.855-2.38a37.344,37.344,0,0,1-1.244-5.269c-.088-.55.036.391,0,.012-.015-.162-.029-.327-.048-.49a1.421,1.421,0,0,0-.01-.186c-.063-.227-.122.553-.012.155-.059.214-.515.763-.177.44.181-.171-.168.137-.172.138a2.194,2.194,0,0,0,.3-.174c.111-.059.224-.109.337-.163-.209.1-.233.091,0,.013.606-.209,1.216-.4,1.83-.581a2.4,2.4,0,1,0-1.276-4.629Z"/><path class="c" d="M128.341,173.071c1.71-.66,3.363-1.449,5.032-2.2a2.4,2.4,0,0,0,1.1-1.435,2.452,2.452,0,0,0-.242-1.849,2.425,2.425,0,0,0-1.434-1.1l-.638-.086a2.4,2.4,0,0,0-1.211.328c-1.137.512-2.263,1.048-3.411,1.535l.573-.242c-.347.146-.7.289-1.048.425a2.679,2.679,0,0,0-1.435,1.1,2.456,2.456,0,0,0-.242,1.85,2.426,2.426,0,0,0,1.1,1.434,2.343,2.343,0,0,0,1.85.242Z"/><path class="c" d="M143.169,159.42c3.277-1.654,6.445-3.524,9.8-5.012a22.756,22.756,0,0,1,4.772-1.573,7.381,7.381,0,0,1,1.765-.143,1.922,1.922,0,0,0,.419.025c.365-.094-.386-.284-.241-.026a2.842,2.842,0,0,0,.7.428,8.437,8.437,0,0,1,2.121,2.936,19.642,19.642,0,0,1,1.4,4.218,27.278,27.278,0,0,1,.644,4.281,20.879,20.879,0,0,1,.022,3.93c-.1.585-.112.747-.593.973a12.826,12.826,0,0,1-3.212.614,20.985,20.985,0,0,1-6.441.263,2.475,2.475,0,0,0-2.953,1.676,2.42,2.42,0,0,0,1.677,2.952,25.908,25.908,0,0,0,7.7-.077c2.3-.312,5.092-.455,6.847-2.161,2.741-2.664,1.908-7.77,1.411-11.165-.556-3.8-1.726-7.706-4.182-10.725a7.37,7.37,0,0,0-4.767-2.906,14.5,14.5,0,0,0-5.709.838c-4.805,1.549-9.131,4.247-13.612,6.509-2.758,1.393-.331,5.535,2.422,4.145Z"/><path class="c" d="M145.984,165.658c.775-.409,1.55-.817,2.357-1.16l-.574.241a11.513,11.513,0,0,1,1.861-.612,2.4,2.4,0,0,0,1.677-2.953,2.429,2.429,0,0,0-1.1-1.434,2.584,2.584,0,0,0-1.85-.242,20.292,20.292,0,0,0-4.791,2.015,2.4,2.4,0,0,0,.574,4.387,2.6,2.6,0,0,0,1.849-.242Z"/><path class="c" d="M115.192,181.23a4.935,4.935,0,0,0-2.533,4.3c.016,1.893,1.15,3.171,2.555,4.276a48.725,48.725,0,0,0,8.62,5.182c2.63,1.3,5.43,3.325,8.414,1.858,1.6-.785,2.64-2.484,3.562-3.943a41.723,41.723,0,0,0,2.226-4.114c1.835-3.776,3.823-7.474,5.7-11.227,1.381-2.754-2.759-5.188-4.145-2.423-1.708,3.407-3.508,6.767-5.193,10.186-.7,1.415-1.357,2.841-2.157,4.2-.4.676-1.507,3.105-2.4,3.088-.331-.007-.784-.384-1.066-.527-.514-.262-1.033-.514-1.551-.768-1.366-.671-2.73-1.348-4.067-2.077a37.386,37.386,0,0,1-4.452-2.767c-.379-.281-1-.771-1.221-.893s.106-.385-.03-.111c-.036.071-.45.252.158-.1,2.673-1.545.259-5.695-2.423-4.144Z"/><path class="c" d="M166.612,171.135a2.883,2.883,0,0,1,1.167.534s.022-.2.023-.216c0-.039-.683.708-.506.511-1.05,1.164-2.12,2.308-3.268,3.377q-1.359,1.264-2.833,2.4c-.592.456-1.2.9-1.8,1.333-.454.329-1.167.994-1.785.978-.9-.023-2.134-.935-2.927-1.322q-1.922-.936-3.822-1.912a38.4,38.4,0,0,1-5.238-2.912,2.417,2.417,0,0,0-3.284.861,2.455,2.455,0,0,0,.861,3.283,49.052,49.052,0,0,0,7.142,3.877c1.516.758,3.037,1.515,4.581,2.215a6.242,6.242,0,0,0,6.571-.69,52.27,52.27,0,0,0,8.474-7.294c1.489-1.619,3.1-3.307,2.491-5.69-.546-2.129-2.6-3.374-4.569-3.963-2.966-.885-4.234,3.746-1.276,4.629Z"/><path class="a" d="M108.658,319.786c-3.408-2.18-11.694-2-15.7-3.385-.122-.041-.235-.093-.353-.138-2.1,6.13-8.1,19.246-11.865,26.29,2.186,1.566,4.442,2.992,6.549,4.62,0,0,8.02,5.431,14.051,6.249,4.2.569,15.027-3.271,17.787-15.334S108.658,319.786,108.658,319.786Z"/><path class="c" d="M104.123,328.561q-2.03-.783-4.1-1.438a2.4,2.4,0,0,0-2.952,1.676,2.431,2.431,0,0,0,.241,1.849,2.587,2.587,0,0,0,1.435,1.1q2.075.654,4.1,1.439a1.812,1.812,0,0,0,.957.042,1.783,1.783,0,0,0,.892-.284,2.4,2.4,0,0,0,.861-3.284l-.375-.486a2.4,2.4,0,0,0-1.059-.617Z"/><path class="a" d="M139.473,316.892c-5.642.739-10.311-.022-16.178-.333-3.14-.167-8.6,2.146-11.366,3.66-2.358,1.291-4.77,3.544-5.179,6.742,0,0-.164,3.516-.29,6.227-5.661,2.694-11.195,5.416-12.983,6.4A9.481,9.481,0,0,0,90,342.568c-1.224,1.82-1.515,4.751,1.361,5.556L92,348.3l-.907.408c-1.792.806-2.927,2.9-1.595,4.772,1.2,1.693,3.312,1.938,5.195,1.624l1.921-.32-.2.35a6.2,6.2,0,0,0-.874,3.354c.141,1.687,2.37,2.562,4.007,2.526a22.708,22.708,0,0,0,5.622-1.72l.477-.188-1.007,1.06c-1.65,1.739.762,4.521,3.918,4.177a29.351,29.351,0,0,0,6.644-1.636c3.11-1.192,11.541-4.9,19.193-8.961a127.1,127.1,0,0,0,11.9-7.54c1.7-1.128,3.326-2.333,4.905-3.6A252.387,252.387,0,0,1,139.473,316.892Z"/><path class="c" d="M118.855,324.924c-5.351,2.191-10.569,4.73-15.78,7.23q-3.856,1.851-7.689,3.754c-2.254,1.126-4.709,2.2-6.417,4.115-3.019,3.381-3.19,8.817,1.757,10.416,2.947.952,4.209-3.682,1.276-4.629a1.088,1.088,0,0,1-.4-.19c-.224-.154.057.193-.034-.034-.152-.378.036.286-.042-.116a1.607,1.607,0,0,1,0-.392c-.017.224.137-.542.188-.672a6.8,6.8,0,0,1,2.83-2.668c1.479-.831,3.016-1.565,4.536-2.317q7.353-3.636,14.8-7.077,1.828-.844,3.666-1.67c.548-.244,1.1-.487,1.646-.725.211-.092.423-.182.634-.272.324-.139-.383.16-.076.032l.38-.157a2.478,2.478,0,0,0,1.677-2.952,2.416,2.416,0,0,0-2.953-1.676Z"/><path class="c" d="M112.149,336c-7.1,3.62-14.355,7.01-21.6,10.333-2.733,1.254-4.84,3.987-3.736,7.118,1.256,3.563,5.239,4.638,8.622,3.95a24.818,24.818,0,0,0,4.415-1.542c2.281-.94,4.535-1.945,6.775-2.978,4.042-1.865,8.043-3.817,12.036-5.785a2.424,2.424,0,0,0,.861-3.284,2.449,2.449,0,0,0-3.283-.861c-6.595,3.251-13.4,6.816-20.029,9.2-1.249.449-2.974,1.116-4.232.4-1.746-1,.6-1.888,1.508-2.309,3.591-1.661,7.159-3.371,10.728-5.079,3.459-1.655,6.941-3.276,10.358-5.017,2.753-1.4.327-5.546-2.422-4.145Z"/><path class="c" d="M94.341,353.925a7.831,7.831,0,0,0-1.094,5.347,5.342,5.342,0,0,0,3.525,3.646,8.744,8.744,0,0,0,6.106-.231,122.537,122.537,0,0,0,14.443-6.176c2.173-1.044,4.347-2.1,6.45-3.281,2.695-1.51.278-5.658-2.422-4.144a149.621,149.621,0,0,1-14.365,6.887A52.773,52.773,0,0,1,100.5,358.4c-.339.094-.7.138-1.037.244-.37.116.609.062.085-.026a6.384,6.384,0,0,1-.892-.116,2.012,2.012,0,0,1-.6-.25c-.114-.081-.223-.313-.158-.109-.156-.492.345-1.357.586-1.794,1.5-2.706-2.649-5.13-4.144-2.422Z"/><path class="d" d="M210.752,319.461c-6.029,3.315-22.345,12.044-33.925,17.622-5.543,2.669-21.547,8.966-23.6,9-3.284-4.8-13.7-27.283-14.745-32.38,3.689-2.352,20.9-9.9,26.377-12.657,11.149-5.614,26.72-15.342,28.818-17.1Z"/><path class="c" d="M191.979,282.244c-.349.288.552-.385-.067.05-.193.135-.384.275-.577.41-.577.4-1.163.791-1.75,1.177-1.69,1.111-3.4,2.188-5.122,3.251q-6.648,4.111-13.476,7.925c-7.585,4.223-15.491,7.724-23.351,11.394a93.344,93.344,0,0,0-10.366,5.176,2.483,2.483,0,0,0-1.1,2.71,42.8,42.8,0,0,0,2.548,7.187c1.53,3.728,3.165,7.414,4.863,11.069,1.569,3.379,3.185,6.74,4.914,10.04.636,1.215,1.284,2.427,1.992,3.6.214.356.429.716.669,1.055a2.8,2.8,0,0,0,3.2,1.037,52.542,52.542,0,0,0,8.31-2.8q5.767-2.181,11.438-4.61c8.426-3.612,16.539-8.03,24.645-12.3,7.936-4.18,16.339-8.117,23.382-13.729,4.143-3.3,7.792-7.467,9.55-12.534,1.526-4.4,1.184-9.09.367-13.589a213.89,213.89,0,0,0-6.385-24.4c-2.648-8.626-5.443-17.207-8.038-25.849-2.4-7.986-4.541-16.043-7.168-23.961-1.467-4.422-3.063-8.8-4.917-13.078a45.984,45.984,0,0,0-5.3-9.662,16.738,16.738,0,0,0-3.35-3.395,2.417,2.417,0,0,0-3.284.861,2.457,2.457,0,0,0,.861,3.284c-.5-.376.112.1.21.189.191.171.375.349.554.532a15.209,15.209,0,0,1,1.1,1.262c-.275-.35.261.363.308.43.163.229.321.461.476.695q.6.912,1.145,1.861a66.366,66.366,0,0,1,3.963,8.353c2.724,6.762,4.9,13.74,6.961,20.727,1.746,5.922,3.391,11.87,5.215,17.769,2.158,6.982,4.388,13.942,6.535,20.928,1.829,5.952,3.588,11.912,5.011,17.975,1.555,6.622,3.543,13.817.04,20.135-3.848,6.937-11.246,11.136-17.986,14.808q-9.363,5.1-18.845,9.986c-5.936,3.065-12.2,6.335-18.171,8.855a163.983,163.983,0,0,1-16.458,6.242c-.365.11-.732.219-1.1.306a2.571,2.571,0,0,0-.44.1c-.3.132.684-.057.248-.039l2.072,1.188a87.533,87.533,0,0,1-6.04-11.439c-2.359-4.927-4.627-9.894-6.569-14.8a35.394,35.394,0,0,1-1.894-5.565l-1.1,2.711a82.416,82.416,0,0,1,8.968-4.521c4.1-1.926,8.218-3.8,12.323-5.711a247.667,247.667,0,0,0,24.93-13.664,82.015,82.015,0,0,0,9.46-6.238,2.417,2.417,0,0,0,0-3.394,2.454,2.454,0,0,0-3.394,0Z"/><path class="d" d="M39.087,283.941c2.1,1.759,17.669,11.487,28.818,17.1,5.481,2.759,21.686,10.577,25.375,12.93-1.045,5.1-11.461,27.585-14.745,32.379-2.054-.03-17.056-6.6-22.6-9.268-11.58-5.578-27.9-14.307-33.925-17.622Z"/><path class="c" d="M37.39,285.638a70.044,70.044,0,0,0,7.684,5.14q6.555,4.082,13.288,7.869c7.6,4.269,15.484,7.968,23.269,11.874,3.5,1.756,7.121,3.429,10.437,5.523l-1.1-2.71a31.244,31.244,0,0,1-1.553,4.694c-.921,2.388-1.766,4.368-2.77,6.655-2.231,5.081-4.581,10.118-7.127,15.049a52.412,52.412,0,0,1-3.052,5.408l2.072-1.189c-.423-.018.5.182.231.033a1.807,1.807,0,0,0-.4-.093c-.435-.111-.863-.252-1.288-.4-1.121-.377-2.226-.8-3.327-1.234-2.851-1.119-5.653-2.315-8.458-3.544-5.983-2.621-11.843-5.474-17.664-8.437Q37.49,325.118,27.475,319.7c-6.449-3.478-13.162-6.955-18.06-12.55a17.892,17.892,0,0,1-4.468-9.138,29.14,29.14,0,0,1,.777-9.894c1.306-6.229,2.957-12.359,4.785-18.453,3.866-12.879,8.063-25.649,11.774-38.575,1.984-6.914,4.042-13.815,6.5-20.579,1.126-3.1,2.33-6.181,3.747-9.164.652-1.373,1.346-2.728,2.113-4.041.3-.516.615-1.027.943-1.527.177-.269.358-.536.544-.8.09-.127.182-.252.273-.378.252-.345-.05.054.1-.138.327-.407.668-.8,1.034-1.176.179-.183.363-.361.554-.532.11-.1.717-.567.21-.189a2.475,2.475,0,0,0,.861-3.284,2.416,2.416,0,0,0-3.283-.861,22.749,22.749,0,0,0-6.052,7.646,92.008,92.008,0,0,0-5.2,11.866c-3.117,8.368-5.578,16.965-8.023,25.548-2.29,8.04-4.862,16-7.358,23.973-2.421,7.737-4.938,15.479-6.78,23.379-1.1,4.7-2.4,9.494-2.466,14.356a21.4,21.4,0,0,0,4.127,12.98c5.746,7.855,14.646,12.312,23.024,16.8,15.36,8.232,30.9,16.625,47.287,22.665a20.077,20.077,0,0,0,3.146.991,2.722,2.722,0,0,0,3.055-1.118c.29-.414.547-.853.8-1.288,1.6-2.717,3-5.563,4.38-8.4a201.615,201.615,0,0,0,8.882-20.31,22.937,22.937,0,0,0,.887-2.908,2.488,2.488,0,0,0-1.1-2.71c-2.832-1.789-5.906-3.237-8.891-4.745-3.9-1.972-7.826-3.9-11.747-5.836q-12.541-6.186-24.439-13.5c-1.966-1.2-3.922-2.426-5.853-3.686-.671-.438-1.341-.88-2-1.337-.221-.152-.438-.31-.658-.464-.649-.453.175.156-.119-.087a2.469,2.469,0,0,0-3.394,0,2.418,2.418,0,0,0,0,3.394Z"/><path class="c" d="M166.851,86.38a5.042,5.042,0,0,1,7.209.845c.939,1.385.97,3.314,1.011,4.925a26.7,26.7,0,0,1-.366,5.335c-1.164,6.561-4.624,14.5-11.929,15.762A2.421,2.421,0,0,0,161.1,116.2a2.456,2.456,0,0,0,2.953,1.676c7.675-1.327,12.247-8.515,14.389-15.434a32,32,0,0,0,1.38-11.4c-.241-3.784-1.4-7.377-4.9-9.334a10.063,10.063,0,0,0-11.467,1.279,2.42,2.42,0,0,0,0,3.394,2.45,2.45,0,0,0,3.394,0Z"/><path class="c" d="M160.936,109.943a25.445,25.445,0,0,1-1.217,6.43c-.229.765-.48,1.524-.734,2.281l-.238.7c-.161.468-.1.238-.033.1a51.369,51.369,0,0,1-3.331,6.115A60.191,60.191,0,0,1,142,141.036a25.475,25.475,0,0,1-9.935,5.037c-3.009.693-1.736,5.322,1.276,4.629,7.553-1.74,13.882-7.165,18.871-12.86a64.92,64.92,0,0,0,10.5-15.63,33.3,33.3,0,0,0,3.028-12.269c.1-3.09-4.7-3.086-4.8,0Z"/><path class="c" d="M65.56,82.986a10,10,0,0,0-10.036-1.928c-3.755,1.467-5.7,4.576-6.187,8.484A31.161,31.161,0,0,0,54.766,111.1a16.327,16.327,0,0,0,10.2,6.78,2.471,2.471,0,0,0,2.953-1.676,2.421,2.421,0,0,0-1.677-2.953c-7.3-1.263-10.764-9.2-11.928-15.762a26.7,26.7,0,0,1-.367-5.335c.04-1.606.064-3.549,1.011-4.925a5.042,5.042,0,0,1,7.209-.845,2.463,2.463,0,0,0,3.394,0,2.42,2.42,0,0,0,0-3.394Z"/><path class="c" d="M105.353,125.317a20.1,20.1,0,0,0,9.681,2.239c3.463-.023,6.969-.7,9.743-2.863a2.412,2.412,0,0,0,0-3.394,2.462,2.462,0,0,0-3.394,0c.721-.561.133-.112-.052.007s-.4.241-.6.349c-.159.083-.887.378-.253.141-.277.1-.55.212-.831.3a14.282,14.282,0,0,1-2.327.531c.337-.049-.141.013-.257.024q-.342.034-.685.057c-.551.035-1.1.049-1.654.046q-.741,0-1.481-.053c-.226-.016-.452-.034-.678-.057,0,0-.8-.108-.363-.04a16.461,16.461,0,0,1-2.173-.482c-.3-.092-.6-.2-.9-.3-.1-.033-.192-.084-.291-.113.6.173.217.1.047.017-.373-.175-.74-.359-1.1-.551a2.452,2.452,0,0,0-3.283.861,2.426,2.426,0,0,0,.861,3.283Z"/><path class="c" d="M113.874,102.432a45.861,45.861,0,0,1,1.077,4.926l-.086-.638a2.974,2.974,0,0,1,.019.68l.086-.638a1.787,1.787,0,0,1-.075.3l.242-.573a1.345,1.345,0,0,1-.108.2l.375-.486a1.046,1.046,0,0,1-.161.158l.486-.375a3.234,3.234,0,0,1-.39.207l.573-.242a2.911,2.911,0,0,1-.657.192l.638-.086a2.661,2.661,0,0,1-.618,0l.638.085c-.232-.032-.461-.089-.693-.12a2.657,2.657,0,0,0-1.85.242,2.4,2.4,0,0,0-.861,3.284,2.3,2.3,0,0,0,1.434,1.1c.519.069,1.022.2,1.55.225a4.912,4.912,0,0,0,2.268-.538,3.248,3.248,0,0,0,1.809-2.143,5.454,5.454,0,0,0-.024-2.324c-.268-1.587-.635-3.159-1.043-4.716a2.4,2.4,0,0,0-4.629,1.276Z"/><path class="c" d="M87.71,88.517c-.823,2.673-.286,8.822,4.778,9.345,6.692-.04,7.049-7.474,4.8-10.97C95.439,84.031,90.015,82.84,87.71,88.517Z"/><path class="c" d="M141.307,88.517c.823,2.673.287,8.822-4.777,9.345-6.693-.04-7.049-7.474-4.8-10.97C133.578,84.031,139,82.841,141.307,88.517Z"/><path class="c" d="M63.593,109.252c2.752,15.867,11.353,31.4,26.046,39.077a35.5,35.5,0,0,0,12.861,3.855,2.415,2.415,0,0,0,2.4-2.4,2.454,2.454,0,0,0-2.4-2.4c-15.051-1.566-26.8-15.073-31.538-28.629a67.5,67.5,0,0,1-2.74-10.779,2.42,2.42,0,0,0-2.953-1.676,2.455,2.455,0,0,0-1.676,2.952Z"/><path class="c" d="M166.815,81.3a74.524,74.524,0,0,1-18.424-16.049,121.607,121.607,0,0,1-12.159-18.127c-1.528-2.685-5.676-.269-4.145,2.423,8.079,14.2,18.133,27.331,32.305,35.9,2.651,1.6,5.066-2.547,2.423-4.145Z"/><path class="c" d="M65.448,145.864a13.434,13.434,0,0,0,11.818.793,2.4,2.4,0,0,0,1.1-1.434,2.454,2.454,0,0,0-.242-1.85,2.425,2.425,0,0,0-1.434-1.1,2.812,2.812,0,0,0-1.849.242c.039-.017.561-.214.255-.112-.074.024-.147.053-.221.079q-.258.087-.522.154c-.162.043-.324.08-.488.112-.1.021-.211.039-.316.058-.346.063.219-.007.25-.029-.1.07-.412.044-.532.053q-.306.023-.613.03-.594.014-1.187-.031c-.187-.013-.377-.049-.565-.054.088,0,.547.083.215.028l-.282-.046a11.949,11.949,0,0,1-1.181-.272c-.386-.109-.752-.263-1.131-.39.085.029.479.22.191.076-.1-.052-.208-.1-.31-.151-.183-.093-.361-.193-.537-.3a2.4,2.4,0,0,0-2.422,4.145Z"/><path class="c" d="M91.962,318.582c2.641,1.066,5.719,1.177,8.512,1.539l.348.045c-.3-.04.358.05.345.048q.547.076,1.092.163c.7.111,1.395.235,2.086.387a17.59,17.59,0,0,1,1.951.535c.14.049.277.1.416.152.424.153-.271-.154-.028-.009s.512.259.758.412a2.4,2.4,0,0,0,2.423-4.145c-2.562-1.591-5.8-1.912-8.724-2.3-.739-.1-1.479-.191-2.218-.285l-.656-.085c-.468-.06.168.025-.116-.015-.349-.049-.7-.1-1.047-.152a17.4,17.4,0,0,1-3.866-.918,2.408,2.408,0,0,0-2.953,1.676,2.474,2.474,0,0,0,1.677,2.953Z"/><path class="c" d="M88.5,345.1c-2.117-1.632-4.375-3.068-6.55-4.619a2.428,2.428,0,0,0-1.849-.242,2.454,2.454,0,0,0-1.435,1.1,2.429,2.429,0,0,0-.242,1.85,2.731,2.731,0,0,0,1.1,1.434c2.176,1.551,4.433,2.987,6.551,4.618a2.4,2.4,0,0,0,1.849.242,2.4,2.4,0,0,0,1.676-2.952l-.242-.573a2.4,2.4,0,0,0-.861-.861Z"/><path class="c" d="M139.474,314.511a55.825,55.825,0,0,1-11.3-.005,53.075,53.075,0,0,0-5.43-.349,17.365,17.365,0,0,0-4.514.828c-5.613,1.7-12.794,4.791-13.8,11.335a2.477,2.477,0,0,0,1.676,2.952,2.417,2.417,0,0,0,2.952-1.676c.395-2.571,2.094-4.233,4.313-5.429a31.8,31.8,0,0,1,7.169-2.843c2.808-.715,5.823-.149,8.74.066a51.317,51.317,0,0,0,10.189-.079,2.478,2.478,0,0,0,2.4-2.4,2.414,2.414,0,0,0-2.4-2.4Z"/><path class="c" d="M102.945,358.473c-2.994,3.544.235,7.743,4.231,8.23a17.016,17.016,0,0,0,6.407-.937,38.289,38.289,0,0,0,4.354-1.592c7.976-3.346,16.02-6.994,23.306-11.678a137.369,137.369,0,0,0,11.648-8.183,2.414,2.414,0,0,0,0-3.394,2.458,2.458,0,0,0-3.394,0c-2.652,2.125-5.521,3.986-8.336,5.887a98.358,98.358,0,0,1-10.209,6.032q-5.093,2.61-10.313,4.958a73.436,73.436,0,0,1-6.972,2.921,17.405,17.405,0,0,1-5.652,1.255,2.375,2.375,0,0,1-1.332-.435c.019.017-.308-.268-.166-.162-.083-.062.033-.233-.031-.064-.077.2.022.356-.147.556a2.464,2.464,0,0,0,0-3.394,2.42,2.42,0,0,0-3.394,0Z"/><path class="c" d="M63.382,85.628A43.246,43.246,0,0,0,72,83.282c5.307-1.75,10.547-3.711,15.716-5.833a201.882,201.882,0,0,0,34.012-17.59A137.715,137.715,0,0,0,135.079,49.7a2.421,2.421,0,0,0,0-3.394,2.452,2.452,0,0,0-3.4,0c-17.155,14.5-37.953,24.518-59.147,31.736-2.1.715-4.211,1.4-6.342,2.024-.7.2-1.408.4-2.119.577-.233.057-.466.107-.7.161-.528.122-.429.068,0,.021a2.471,2.471,0,0,0-2.4,2.4,2.415,2.415,0,0,0,2.4,2.4Z"/></svg>