<?xml version="1.0" encoding="iso-8859-1"?>
<!-- Generator: Adobe Illustrator 19.0.0, SVG Export Plug-In . SVG Version: 6.00 Build 0)  -->
<!-- License: CC0. Made by SVG Repo: https://www.svgrepo.com/svg/211312/wedding -->
<svg version="1.1" id="Layer_1" xmlns="http://www.w3.org/2000/svg" xmlns:xlink="http://www.w3.org/1999/xlink" x="0px" y="0px"
	 viewBox="0 0 512 512" style="enable-background:new 0 0 512 512;" xml:space="preserve">
<g>
	<g>
		<g>
			<path d="M354.079,176.934c-37.031,0-71.12,12.818-98.079,34.241c-26.959-21.424-61.048-34.241-98.079-34.241
				C70.842,176.934,0,247.777,0,334.855s70.842,157.921,157.921,157.921c37.031,0,71.12-12.818,98.079-34.241
				c26.959,21.424,61.048,34.241,98.079,34.241c87.079,0,157.921-70.843,157.921-157.921S441.158,176.934,354.079,176.934z
				 M157.922,459.384c-68.667,0-124.531-55.864-124.531-124.53c0-68.665,55.864-124.528,124.53-124.528
				c27.719,0,53.349,9.108,74.064,24.482c-22.377,27.258-35.826,62.11-35.826,100.046c0,37.937,13.45,72.789,35.827,100.047
				C211.272,450.276,185.641,459.384,157.922,459.384z M229.55,334.855c0-28.883,9.886-55.5,26.45-76.648
				c16.563,21.148,26.45,47.764,26.45,76.648s-9.887,55.5-26.45,76.648C239.437,390.354,229.55,363.737,229.55,334.855z
				 M354.079,459.384c-27.719,0-53.35-9.108-74.064-24.483c22.377-27.258,35.827-62.11,35.827-100.047
				c0-37.936-13.449-72.789-35.826-100.046c20.714-15.375,46.345-24.483,74.064-24.483c68.665,0,124.53,55.864,124.53,124.528
				C478.609,403.521,422.745,459.384,354.079,459.384z"/>
			<path d="M221.441,150.234c10.507,8.127,24.863,17.46,25.469,17.853l9.09,5.9l9.09-5.9c0.606-0.394,14.96-9.726,25.469-17.853
				c24.203-18.719,51.985-44.085,51.985-74.342c0-31.246-25.421-56.667-56.667-56.667c-10.651,0-20.988,3.013-29.876,8.528
				c-8.888-5.516-19.224-8.528-29.876-8.528c-31.246,0-56.667,25.421-56.667,56.667
				C169.456,106.149,197.238,131.515,221.441,150.234z M226.124,52.616c6.635,0,12.977,2.853,17.399,7.826L256,74.477l12.477-14.034
				c4.422-4.973,10.764-7.826,17.399-7.826c12.834,0,23.276,10.441,23.276,23.276c0,11.777-13.129,27.903-39.022,47.929
				c-4.383,3.389-9.694,7.131-14.13,10.171c-4.437-3.039-9.748-6.781-14.13-10.171c-25.893-20.026-39.022-36.152-39.022-47.929
				C202.848,63.058,213.289,52.616,226.124,52.616z"/>
		</g>
	</g>
</g>
</svg>
