<?xml version="1.0" encoding="iso-8859-1"?>
<!-- Generator: Adobe Illustrator 19.0.0, SVG Export Plug-In . SVG Version: 6.00 Build 0)  -->
<!-- License: CC0. Made by SVG Repo: https://www.svgrepo.com/svg/211269/wedding -->
<svg version="1.1" id="Layer_1" xmlns="http://www.w3.org/2000/svg" xmlns:xlink="http://www.w3.org/1999/xlink" x="0px" y="0px"
	 viewBox="0 0 512 512" style="enable-background:new 0 0 512 512;" xml:space="preserve">
<g>
	<g>
		<path d="M354.079,186.547c-37.031,0-71.12,12.818-98.079,34.241c-26.959-21.424-61.048-34.241-98.079-34.241
			C70.842,186.547,0,257.389,0,344.467s70.842,157.921,157.921,157.921c37.031,0,71.12-12.818,98.079-34.241
			c26.959,21.424,61.048,34.241,98.079,34.241c87.078,0,157.921-70.843,157.921-157.921S441.158,186.547,354.079,186.547z
			 M157.922,468.996c-68.667,0-124.531-55.864-124.531-124.529c0-68.665,55.864-124.528,124.53-124.528
			c27.719,0,53.349,9.108,74.064,24.482c-22.377,27.258-35.826,62.11-35.826,100.046c0,37.937,13.45,72.789,35.827,100.047
			C211.272,459.888,185.641,468.996,157.922,468.996z M229.55,344.467c0-28.883,9.886-55.5,26.45-76.648
			c16.563,21.148,26.45,47.764,26.45,76.648s-9.887,55.5-26.45,76.648C239.437,399.967,229.55,373.349,229.55,344.467z
			 M354.079,468.996c-27.719,0-53.35-9.108-74.064-24.482c22.377-27.258,35.827-62.11,35.827-100.047
			c0-37.936-13.449-72.789-35.826-100.046c20.714-15.375,46.345-24.483,74.064-24.483c68.665,0,124.53,55.864,124.53,124.528
			C478.609,413.133,422.745,468.996,354.079,468.996z"/>
	</g>
</g>
<g>
	<g>
		<path d="M292.897,9.612c-14.68,0-27.855,6.414-36.897,16.584c-9.042-10.171-22.217-16.584-36.897-16.584
			c-27.263,0-49.363,22.102-49.363,49.365c0,30.645,36.965,60.627,56.195,75.501C238.386,144.109,256,155.541,256,155.541
			s17.614-11.432,30.066-21.063c19.23-14.874,56.195-44.856,56.195-75.501C342.261,31.713,320.16,9.612,292.897,9.612z"/>
	</g>
</g>
</svg>
