<?xml version="1.0" encoding="UTF-8"?>

<!-- License: CC Attribution. Made by Mike Hunter: https://casinoshunter.com/ -->
<svg width="800px" height="800px" viewBox="0 -1 34 34" version="1.1" xmlns="http://www.w3.org/2000/svg" xmlns:xlink="http://www.w3.org/1999/xlink">
    
    <title>Star</title>
    <desc>Created with Sketch.</desc>
    <g id="icons" stroke="none" stroke-width="1" fill="none" fill-rule="evenodd">
        <g id="ui-gambling-website-lined-icnos-casinoshunter" transform="translate(-343.000000, -284.000000)" fill="#252528" fill-rule="nonzero">
            <g id="square-filled" transform="translate(50.000000, 120.000000)">
                <path d="M311.050164,164.241829 C311.515694,164.468113 311.892625,164.838464 312.122929,165.295868 L316.099751,173.194183 L324.973849,174.469632 C326.268261,174.655674 327.164093,175.837503 326.974745,177.10932 C326.89957,177.614264 326.657566,178.080933 326.285988,178.437488 L319.8697,184.594364 L321.377373,193.280949 C321.597288,194.54801 320.730161,195.75033 319.440591,195.966406 C318.9286,196.052194 318.402102,195.970261 317.94215,195.733219 L309.999845,191.640063 L302.057539,195.733219 C300.899043,196.330263 299.467297,195.891509 298.859646,194.753235 C298.618394,194.301311 298.535005,193.784004 298.622316,193.280949 L300.129989,184.594364 L293.713702,178.437488 C292.777796,177.539421 292.760056,176.065936 293.674077,175.146367 C294.036966,174.781275 294.511926,174.543496 295.02584,174.469632 L303.899939,173.194183 L307.87676,165.295868 C308.456835,164.143789 309.877617,163.671879 311.050164,164.241829 Z M305.472113,175.320323 L295.368684,176.772461 L302.673821,183.78225 L300.95729,193.67219 L309.999845,189.012009 L319.042399,193.67219 L317.325868,183.78225 L324.631006,176.772461 L314.527576,175.320323 L309.999845,166.327854 L305.472113,175.320323 Z" id="Star">

</path>
            </g>
        </g>
    </g>
</svg>