<?xml version="1.0" encoding="iso-8859-1"?>
<!-- Generator: Adobe Illustrator 18.0.0, SVG Export Plug-In . SVG Version: 6.00 Build 0)  -->
<!DOCTYPE svg PUBLIC "-//W3C//DTD SVG 1.1//EN" "http://www.w3.org/Graphics/SVG/1.1/DTD/svg11.dtd">
<!-- License: CC0. Made by SVG Repo: https://www.svgrepo.com/svg/34380/two-hearts -->
<svg version="1.1" id="Capa_1" xmlns="http://www.w3.org/2000/svg" xmlns:xlink="http://www.w3.org/1999/xlink" x="0px" y="0px"
	 viewBox="0 0 393.689 393.689" style="enable-background:new 0 0 393.689 393.689;" xml:space="preserve">
<g>
	<g>
		<path d="M98.44,65.665c-21.569,4.057-41.124,18.68-52.308,39.121c-13.195,24.115-13.986,53.441-2.227,82.578
			c1.18,2.92,3.989,4.693,6.958,4.693c0.934,0,1.885-0.176,2.805-0.547c3.841-1.551,5.697-5.92,4.147-9.762
			c-10.046-24.889-9.522-49.666,1.475-69.764c9.051-16.539,24.722-28.344,41.921-31.578c4.071-0.766,6.75-4.686,5.985-8.756
			C106.431,67.58,102.503,64.906,98.44,65.665z"/>
		<path d="M199.872,154.537c-14.331,2.693-27.308,12.383-34.715,25.918c-8.678,15.859-9.223,35.084-1.534,54.133
			c1.18,2.922,3.989,4.695,6.958,4.695c0.934,0,1.885-0.176,2.805-0.547c3.841-1.551,5.697-5.922,4.147-9.764
			c-5.975-14.801-5.697-29.475,0.783-41.318c5.271-9.633,14.366-16.504,24.327-18.375c4.07-0.766,6.75-4.686,5.985-8.758
			C207.863,156.451,203.945,153.775,199.872,154.537z"/>
		<path d="M391.033,183.146c-2.305-9.279-6.173-18.061-11.308-25.926c2.767-28.158-3.128-54.959-17.168-77.668
			c-13.43-21.723-33.532-38.142-56.603-46.234c-33.93-11.904-81.103-6.826-115.746,40.682c-12.67-17.369-27.769-30.08-44.999-37.859
			C126.8,27.83,106.585,25.662,86.74,29.872C42.318,39.298,7.958,77.935,1.237,126.015c-5.223,37.363,6.155,77.346,32.904,115.625
			c30.051,43.002,80.049,85.016,152.559,123.398c1.098,0.58,2.303,0.871,3.509,0.871c1.206,0,2.411-0.291,3.509-0.871
			c11.896-6.299,23.398-12.816,34.263-19.408c8.59,5.314,17.683,10.516,27.278,15.596c1.098,0.58,2.303,0.871,3.509,0.871
			c1.206,0,2.411-0.291,3.509-0.871c51.954-27.502,89.259-58.549,110.877-92.275C396.498,232.529,395.762,202.187,391.033,183.146z
			 M258.767,346.093C130.133,276.699,136.1,206.703,141.053,186.763c7.194-28.969,32.176-49.996,59.399-49.996
			c20.316,0,38.766,11.656,51.949,32.822c1.369,2.199,3.776,3.535,6.366,3.535c2.59,0,4.997-1.336,6.366-3.535
			c13.184-21.166,31.633-32.822,51.95-32.822c27.22,0,52.197,21.025,59.392,49.994C381.428,206.703,387.397,276.703,258.767,346.093
			z M190.209,349.912C124.278,314.544,75.922,275.24,46.437,233.048c-24.541-35.119-35.033-71.412-30.345-104.957
			c5.85-41.85,35.492-75.424,73.762-83.545c36.383-7.719,70.641,9.35,93.988,46.832c1.369,2.199,3.776,3.535,6.366,3.535
			c2.59,0,4.997-1.336,6.366-3.535c25.777-41.385,64.811-57.797,104.414-43.906c31.749,11.137,63.12,44.365,64.377,93.102
			c-0.689-0.606-1.382-1.207-2.091-1.789c-13.391-10.973-29.795-17.018-46.191-17.018c-22.458,0-42.839,10.828-58.316,30.74
			c-15.478-19.912-35.858-30.74-58.316-30.74c-16.398,0-32.805,6.045-46.197,17.018c-13.556,11.109-23.414,26.863-27.76,44.363
			c-4.729,19.039-5.465,49.381,17.881,85.801c15.379,23.992,38.702,46.623,69.581,67.592
			C206.304,341.06,198.363,345.535,190.209,349.912z"/>
	</g>
</g>
</svg>
