<?xml version="1.0" encoding="utf-8"?>

<!-- License: CC Attribution. Made by soco-st: https://soco-st.com/ -->
<svg width="800px" height="800px" viewBox="0 -88.46 357.99 357.99" xmlns="http://www.w3.org/2000/svg"><defs><style>.a{fill:#ffffff;}.b{fill:#211715;}.c{fill:#b5886a;}.d{fill:#d9d9d9;}.e{fill:#ffda71;}.f{fill:#f4b3b3;}.g{fill:#7a7473;}</style></defs><rect class="a" x="2.051" y="2" width="353.934" height="177.04" rx="24"/><path class="b" d="M357.985,155.04V29.524c0-1.163.01-2.328,0-3.492a26.3,26.3,0,0,0-7.944-18.739C344.618,2.073,337.679,0,330.324,0H27.955C20.988,0,14.433,1.717,9.018,6.363A26.22,26.22,0,0,0,.051,26.005c-.009,1.05,0,2.1,0,3.151v86.418c0,13.146-.115,26.3,0,39.445A26.3,26.3,0,0,0,26.1,181.04c1.953.016,3.906,0,5.859,0h279.33c6.885,0,13.773.057,20.657,0a26.31,26.31,0,0,0,26.044-26c.026-2.575-3.974-2.577-4,0a22.254,22.254,0,0,1-22.31,22c-2.394.007-4.787,0-7.181,0H46.376c-6.76,0-13.522.056-20.281,0A22.249,22.249,0,0,1,4.051,154.791c-.015-4.512,0-9.024,0-13.535V28.694c0-1.226-.03-2.458.02-3.683A22.156,22.156,0,0,1,15.621,6.624C19.84,4.332,24.3,4,28.925,4h301.4c7.123,0,13.7,2.231,18.47,7.8a22.249,22.249,0,0,1,5.191,14.53c0,1.52,0,3.041,0,4.561V155.04C353.985,157.614,357.985,157.618,357.985,155.04Z"/><path class="b" d="M16.217,74.456q0,11.6-.012,23.2c0,2.574,4,2.578,4,0q0-11.6.012-23.2c0-2.573-4-2.578-4,0Z"/><path class="b" d="M.063,74.456q0,11.6-.012,23.2c0,2.574,4,2.578,4,0q0-11.6.012-23.2c0-2.573-4-2.578-4,0Z"/><path class="b" d="M17.929,109.184c3.346,0,3.351-5.2,0-5.2s-3.352,5.2,0,5.2Z"/><path class="b" d="M321.677,2.514q0,9.269,0,18.536l0,41.6q0,24.959,0,49.918l0,43.473q0,11.135,0,22.271v.55c0,2.574,4,2.578,4,0q0-9.35,0-18.7l0-41.689,0-49.922q0-21.7,0-43.4,0-11.06,0-22.118V2.514c0-2.574-4-2.578-4,0Z"/><path class="b" d="M32.36,2.514q0,9.269,0,18.536l0,41.6,0,49.918,0,43.473q0,11.135,0,22.271v.55c0,2.574,4,2.578,4,0q0-9.35,0-18.7,0-20.844,0-41.689,0-24.961,0-49.922l0-43.4q0-11.06,0-22.118V2.514c0-2.574-4-2.578-4,0Z"/><path class="b" d="M79.078,43.95A79.109,79.109,0,0,1,65.742,55.267c-3.779,2.6-7.994,5.5-12.518,6.6-2.5.607-1.441,4.465,1.064,3.857,4.856-1.179,9.412-4.206,13.473-7A83.794,83.794,0,0,0,81.907,46.778c1.744-1.888-1.077-4.724-2.829-2.828Z"/><path class="b" d="M95.587,11.329a70.36,70.36,0,0,1-4.993,14.323,73.177,73.177,0,0,1-7.64,13.6,2.014,2.014,0,0,0,.718,2.737,2.047,2.047,0,0,0,2.736-.718,73.773,73.773,0,0,0,7.8-13.952,74.547,74.547,0,0,0,5.238-14.928c.528-2.511-3.327-3.585-3.857-1.063Z"/><path class="b" d="M79.506,14.492a77.507,77.507,0,0,1-9.322,15.579A130.2,130.2,0,0,1,58.6,43.905c-.925.955-1.869,1.893-2.845,2.8q-.623.578-1.266,1.134-.309.266-.625.524c-.088.073-.613.483-.322.261a2.065,2.065,0,0,0-.717,2.736,2.012,2.012,0,0,0,2.736.717A73.194,73.194,0,0,0,66.44,41.2a132.688,132.688,0,0,0,12.049-16.28,65.706,65.706,0,0,0,4.875-9.363,2.012,2.012,0,0,0-1.4-2.46,2.052,2.052,0,0,0-2.461,1.4Z"/><path class="b" d="M53.936,29.518A43.688,43.688,0,0,1,41.8,50.779c-1.88,1.766.953,4.591,2.829,2.828A47.522,47.522,0,0,0,57.793,30.581c.6-2.5-3.259-3.57-3.857-1.063Z"/><path class="b" d="M259.531,12.035a71.616,71.616,0,0,0,4.726,13.7,88.177,88.177,0,0,0,7.134,13.5c5.608,8.474,13.965,15.208,22.447,20.645,3.376,2.164,7.031,4.44,10.919,5.561,2.478.715,3.536-3.144,1.064-3.857a37.311,37.311,0,0,1-8.719-4.374,92.829,92.829,0,0,1-11.473-8.353,58.466,58.466,0,0,1-10.1-10.63,79.393,79.393,0,0,1-6.879-12.407,70.953,70.953,0,0,1-5.265-14.854c-.53-2.517-4.387-1.452-3.857,1.064Z"/><path class="b" d="M293.423,41.855a69.826,69.826,0,0,0,10.064,9.924,2,2,0,0,0,2.737-.718,2.061,2.061,0,0,0-.718-2.736c-.307-.233.392.311.082.063l-.252-.2c-.146-.118-.29-.237-.434-.357q-.519-.435-1.021-.888c-.8-.718-1.574-1.461-2.334-2.218-1.837-1.831-3.591-3.744-5.3-5.7a2.012,2.012,0,0,0-2.829,0,2.049,2.049,0,0,0,0,2.828Z"/><path class="b" d="M275.637,15.2A88.443,88.443,0,0,0,288.6,36.823a2.012,2.012,0,0,0,2.828,0,2.046,2.046,0,0,0,0-2.828A81.92,81.92,0,0,1,279.494,14.14a2.065,2.065,0,0,0-2.46-1.4,2.012,2.012,0,0,0-1.4,2.46Z"/><path class="b" d="M301.248,30.253a47.6,47.6,0,0,0,13.188,23.061c1.875,1.762,4.709-1.061,2.828-2.828a43.772,43.772,0,0,1-12.159-21.3c-.6-2.5-4.455-1.443-3.857,1.063Z"/><path class="b" d="M68.716,89.28a8.118,8.118,0,0,1-1,.268c-.137.028-.275.051-.413.073.3-.048-.145.017-.2.023-.667.072-1.336.11-2,.183a9.146,9.146,0,0,0-4.323,1.329A13.909,13.909,0,0,0,58,93.95a17.641,17.641,0,0,1-1.216,1.389c-.114.114-.232.225-.352.332-.044.039-.375.3-.124.115a6.292,6.292,0,0,1-.852.513,2.029,2.029,0,0,0-.718,2.737c1.656,2.952,5.518,3.749,8.639,3.562,3.435-.207,7.064-1.639,8.532-5a8.661,8.661,0,0,0,.074-6.523,2.056,2.056,0,0,0-2.46-1.4,2.016,2.016,0,0,0-1.4,2.461,11.342,11.342,0,0,1,.43,1.513c.1.466.012-.222.025.2.008.241.026.478.018.719,0,.106-.115.811-.016.336-.035.169-.067.335-.112.5-.023.086-.272.751-.083.322a5.321,5.321,0,0,1-.316.6,4.935,4.935,0,0,1-.289.428c.265-.346-.21.2-.266.26s-.6.507-.3.284c-.155.114-.317.221-.48.322-.23.142-.472.257-.709.386-.5.269.4-.111-.18.074-.309.1-.614.2-.931.274-.343.082-.691.145-1.041.2.551-.08-.156.007-.259.015q-.325.025-.651.035c-.385.011-.77.006-1.155-.018-.22-.013-.438-.035-.657-.058.352.036.076.011-.116-.023a8.886,8.886,0,0,1-1.235-.309c-.147-.048-.291-.1-.434-.158.495.192-.1-.064-.2-.116a3.371,3.371,0,0,0-.432-.266q-.181-.126.118.1c-.073-.058-.144-.119-.213-.182a5.356,5.356,0,0,1-.381-.4c.358.406,0-.049-.072-.169l-.717,2.736a9.786,9.786,0,0,0,2.982-2.522,17.481,17.481,0,0,1,2.42-2.683c-.167.131.032-.019.1-.056.151-.087.3-.176.453-.255.3-.152-.224.073.087-.04.161-.057.323-.109.488-.154a8.713,8.713,0,0,1,.908-.191c.371-.062-.467.04.193-.025l.419-.042a19,19,0,0,0,4.262-.648,2.044,2.044,0,0,0,1.4-2.46,2.02,2.02,0,0,0-2.46-1.4Z"/><path class="b" d="M294.8,113.494a18.073,18.073,0,0,0,4.1.63c.172.016.345.033.517.051.111.011.3.04.081.007a8.857,8.857,0,0,1,.9.179c.163.042.322.095.483.143.1.03.275.115.083.025a4.505,4.505,0,0,1,.448.243c.044.027.4.278.177.1a16.564,16.564,0,0,1,2.321,2.569,9.8,9.8,0,0,0,3.006,2.562l-.718-2.736c-.069.123-.428.568-.065.16a5.412,5.412,0,0,1-.376.4c-.189.173-.284.19-.029.035-.163.1-.317.209-.484.3-.1.054-.692.306-.189.112-.142.054-.284.108-.428.156a8.907,8.907,0,0,1-1.217.3c-.086.016-.609.063-.1.022-.217.018-.431.044-.648.058-.379.023-.758.028-1.138.017-.213-.006-.427-.018-.64-.035-.107-.008-.807-.1-.248-.013-.344-.05-.687-.112-1.025-.193-.312-.074-.614-.17-.917-.27-.581-.191.329.2-.17-.07-.234-.127-.471-.241-.7-.38-.161-.1-.321-.2-.473-.318.312.234-.233-.222-.286-.275s-.529-.605-.258-.249c-.1-.135-.2-.278-.284-.422a5.161,5.161,0,0,1-.311-.594c.193.438-.055-.221-.079-.31-.044-.163-.075-.329-.11-.494.1.483-.012-.214-.016-.323-.006-.206,0-.412.012-.618.006-.09.013-.18.023-.27-.034.23-.032.226.007-.014a11.191,11.191,0,0,1,.424-1.49,2.01,2.01,0,0,0-1.4-2.461,2.054,2.054,0,0,0-2.46,1.4,8.673,8.673,0,0,0-.268,5.577,7.927,7.927,0,0,0,3.541,4.368,12.631,12.631,0,0,0,9.359,1.046,6.99,6.99,0,0,0,4.407-3.13,2.025,2.025,0,0,0-.717-2.737,6.141,6.141,0,0,1-.839-.5c.169.123.045.037-.045-.046-.118-.107-.236-.212-.35-.323a15.877,15.877,0,0,1-1.206-1.36,14.056,14.056,0,0,0-2.8-2.831,8.921,8.921,0,0,0-4.171-1.3c-.655-.075-1.314-.113-1.97-.181-.046,0-.555-.069-.353-.039.182.027-.358-.067-.345-.065a8.005,8.005,0,0,1-.989-.264,2.017,2.017,0,0,0-2.461,1.4,2.046,2.046,0,0,0,1.4,2.46Z"/><path class="a" d="M203.866,164.188a5.665,5.665,0,0,1-.551-2.988c-.008-1.361.663-7.517,1.343-12.443.239-1.729.477-3.3.684-4.461,7.779-2.929,40.381-3.512,51.381-.01.04.225.085.477.134.743.835,4.831,2.213,14.414,2.187,16.154-.026,2.084-.58,2.375-1.016,2.867Z"/><path class="a" d="M205.5,121.313c-4.851,2.423-10.108,5.641-11.486,9.078-2.894,7.241-6.441,26.684-7.492,33.84l17.342-.043a5.665,5.665,0,0,1-.551-2.988c-.008-1.361.663-7.517,1.343-12.443.239-1.729.477-3.3.685-4.469,7.778-2.921,40.38-3.5,51.38,0,.04.225.085.477.134.743.835,4.831,2.213,14.414,2.187,16.154-.026,2.084-.58,2.375-1.016,2.867l17.006-.043c-1.1-7.414-4.374-25.66-7.431-33.616-1.894-4.943-11.883-9.386-17.178-11.72H211.2C209.606,119.374,207.592,120.27,205.5,121.313Z"/><path class="a" d="M250.425,118.67c-.409-.139-5.325-2.433-5.466-2.484a6.856,6.856,0,0,1-4.09-4.494,29.931,29.931,0,0,1-.468-4.821c5.691-2.256,10.3-9.958,11.1-12.112.118-.358.358-1.031.571-1.83l.447-.071a5.586,5.586,0,0,0,2.6-1.174,8.449,8.449,0,0,0,2.185-2.867,13.3,13.3,0,0,0,1.355-7.045,4.435,4.435,0,0,0-.465-1.784,3.139,3.139,0,0,0-2.255-1.5,3.323,3.323,0,0,0-2.658.778s.145-20.375-22.587-20.375-22,20.375-22,20.375a3.324,3.324,0,0,0-2.658-.778,3.137,3.137,0,0,0-2.255,1.5,4.435,4.435,0,0,0-.465,1.784,13.3,13.3,0,0,0,1.355,7.045,8.449,8.449,0,0,0,2.185,2.867,5.586,5.586,0,0,0,2.6,1.174l.85.131a22.593,22.593,0,0,0,4.307,8.408,19.347,19.347,0,0,0,6.607,5.293,29.708,29.708,0,0,1-.47,5,6.853,6.853,0,0,1-4.09,4.494c-.14.051-5.057,2.345-5.465,2.484,0,0,.558,11.367,20.19,11.367S250.425,118.67,250.425,118.67Z"/><path class="c" d="M215.687,110.914a11.391,11.391,0,0,0,5.582-4.2,19.332,19.332,0,0,1-6.652-5.314,22.593,22.593,0,0,1-4.307-8.408l-.85-.131a5.586,5.586,0,0,1-2.6-1.174q-.2-.159-.381-.333a11.169,11.169,0,0,0-1.254,3.983,18.13,18.13,0,0,0-.124,2.519c.031,2,.535,4.045.635,6.045s-.736,4.285-2.635,4.928C202.233,110.219,209.462,113.125,215.687,110.914Z"/><path class="b" d="M204.749,90.341a14.492,14.492,0,0,0-1.612,5.881,34.953,34.953,0,0,0,.486,6.408c.17,1.5.18,2.893-.561,3.861-.4.522-1.237.538-1.716,1.37a2.5,2.5,0,0,0-.23,1.873c.5,1.873,2.837,2.757,4.486,3.251a17.939,17.939,0,0,0,7.325.59,14.224,14.224,0,0,0,9.138-4.652,2.051,2.051,0,0,0,0-2.828,2.018,2.018,0,0,0-2.829,0,9.853,9.853,0,0,1-4.472,3.022,13.648,13.648,0,0,1-1.38.361c-.262.054-.526.1-.791.14.378-.055-.182.018-.258.026a16.426,16.426,0,0,1-2.779.027c-.213-.015-.425-.039-.638-.058-.408-.037.255.053-.26-.036-.388-.067-.774-.137-1.158-.227-.353-.083-.7-.179-1.05-.289q-.24-.075-.477-.161c-.056-.021-.584-.233-.263-.1s-.161-.078-.215-.105c-.119-.058-.237-.12-.352-.185-.251-.144-.7-.478-.232-.121a1.044,1.044,0,0,1-.2-.188c-.194-.255.306.475.135.167a1.588,1.588,0,0,1-.023,1.465l-1.2.919c3.471-1.318,4.378-4.906,3.975-8.285-.405-3.4-1.086-6.93.6-10.11,1.2-2.273-2.246-4.3-3.454-2.019Z"/><path class="c" d="M256.382,62.693c-2.619-10.924-13.811-19.482-25.537-18.843-11.966-.652-23.376,8.274-25.687,19.519a31.736,31.736,0,0,0,.018,10.643l.96,4.484a3.434,3.434,0,0,1,2.259.534c4.314-3.419,13.029-8.79,17.2-12.262-.341,2.05-1.555,5.537-.026,5.178,6.388-1.43,12.51-4.314,16.2-8.824a42.616,42.616,0,0,0,3.021,7.825c1.377,2.281,5.386,7.564,8.888,8.025a3.422,3.422,0,0,1,2.257-.466,2.673,2.673,0,0,1,.408.09c1.879-4.3.934-11.594.186-15.227C256.486,63.143,256.436,62.917,256.382,62.693Z"/><path class="b" d="M207.105,73.48a22.671,22.671,0,0,1,2.575-16.175,24.177,24.177,0,0,1,13.554-10.521,29.819,29.819,0,0,1,8.7-.967,22.367,22.367,0,0,1,8.705,1.738A24.2,24.2,0,0,1,253.084,59.3a26.163,26.163,0,0,1,2.148,8.659c.341,3.323.5,6.909-.791,10.059a2.013,2.013,0,0,0,1.4,2.46,2.049,2.049,0,0,0,2.46-1.4c1.274-3.117,1.288-6.736,1.032-10.043a34.781,34.781,0,0,0-1.778-9.362,27.82,27.82,0,0,0-23.106-17.733,33.883,33.883,0,0,0-10.2.458,28.33,28.33,0,0,0-16.756,11,26.567,26.567,0,0,0-4.238,21.146c.555,2.512,4.412,1.449,3.857-1.064Z"/><path class="b" d="M239.944,63.99a31.527,31.527,0,0,0,4.435,9.9c2.1,2.818,4.883,6.161,8.484,6.965a2.045,2.045,0,0,0,2.46-1.4,2.021,2.021,0,0,0-1.4-2.46c-.168-.038-.335-.079-.5-.131-.041-.013-.562-.227-.195-.06a8.265,8.265,0,0,1-1.011-.555,9.146,9.146,0,0,1-1.567-1.239,23.485,23.485,0,0,1-1.8-1.88c-.25-.29-.493-.586-.732-.885-.063-.079-.126-.158-.188-.238.091.118.1.123.014.015-.113-.151-.226-.3-.336-.455a27.557,27.557,0,0,1-3.811-8.64c-.745-2.457-4.607-1.409-3.857,1.063Z"/><path class="b" d="M240.428,61.644a21.813,21.813,0,0,1-6.883,5.387,30.643,30.643,0,0,1-4.157,1.765q-1.164.4-2.351.724-.5.137-1,.261-.3.075-.6.145-.695.177-.208.03l1.009.273c.868.368.451,1.395.594.438.046-.311.105-.62.17-.929.17-.814.374-1.619.521-2.438a2.019,2.019,0,0,0-3.343-1.946c-5.414,4.462-11.617,7.884-17.139,12.211a2.01,2.01,0,0,0,0,2.828,2.051,2.051,0,0,0,2.829,0c5.523-4.328,11.718-7.742,17.139-12.211l-3.343-1.945c-.332,1.856-1.3,4.11-.672,5.984.987,2.956,4.841,1.286,6.87.626,5.03-1.637,9.963-4.252,13.388-8.375,1.633-1.966-1.182-4.811-2.829-2.828Z"/><path class="b" d="M254.7,80.68c-.182.152.15-.082.215-.114.255-.127-.273.03.239-.076a1.212,1.212,0,0,1,.523-.03,1.332,1.332,0,0,1,.488.206c.2.155.186.134.253.243a3.4,3.4,0,0,1,.224.67c.029.168.058.674.065.967a10.838,10.838,0,0,1-.139,2.17,11.371,11.371,0,0,1-1.575,4.137,4.353,4.353,0,0,1-3,2.077,2.017,2.017,0,0,0-1.4,2.46,2.044,2.044,0,0,0,2.46,1.4c4.9-.879,7.246-6.38,7.615-10.821.2-2.385-.084-4.979-2.132-6.5a5.35,5.35,0,0,0-6.663.389,2.015,2.015,0,0,0,0,2.828,2.044,2.044,0,0,0,2.829,0Z"/><path class="b" d="M250.48,90.385a12.039,12.039,0,0,1-.711,3.243c-.066.2-.457,1.136-.128.441-.111.234-.213.471-.33.7a28.446,28.446,0,0,1-2.456,3.947,25.111,25.111,0,0,1-1.611,1.985,24.08,24.08,0,0,1-2.187,2.17,11.038,11.038,0,0,1-4.595,2.505c-2.5.588-1.444,4.445,1.064,3.857,4.516-1.06,8.007-4.738,10.663-8.334,2.282-3.09,4.133-6.595,4.291-10.517a2,2,0,0,0-4,0Z"/><path class="b" d="M210.109,77.852a5.354,5.354,0,0,0-6.663-.389c-2.052,1.516-2.33,4.125-2.132,6.5.369,4.441,2.716,9.942,7.615,10.821a2.057,2.057,0,0,0,2.46-1.4,2.017,2.017,0,0,0-1.4-2.46,4.314,4.314,0,0,1-2.939-1.977,11.328,11.328,0,0,1-1.641-4.237,10.609,10.609,0,0,1-.142-2.041,8.232,8.232,0,0,1,.07-1.132,3.6,3.6,0,0,0,.167-.546.429.429,0,0,1,.218-.271,1.084,1.084,0,0,1,.625-.269c-.236.048.18,0,.24,0,.366.009-.4-.1.236.034.041.009.326.1.142.025.018.007.486.311.312.165a2.055,2.055,0,0,0,2.829,0,2.017,2.017,0,0,0,0-2.828Z"/><path class="b" d="M207.665,90.332a26.338,26.338,0,0,0,5.639,12.6,18.945,18.945,0,0,0,12.4,6.991,2.013,2.013,0,0,0,2-2,2.047,2.047,0,0,0-2-2c-3.969-.428-7.323-3.054-9.773-6.064a22.764,22.764,0,0,1-4.406-10.59,2.019,2.019,0,0,0-2.461-1.4,2.047,2.047,0,0,0-1.4,2.461Z"/><path class="d" d="M222.175,41.006c-1.378.345-4.392-1.722-6.286-.947-1.039.371-1.887,5.862-2.432,9.41a.684.684,0,0,0,1.011.7c3.859-2.113,10.984-3.02,14.423-3.051,4.6-.042,11.787.428,16.465,2.106a.647.647,0,0,0,.846-.782c-.742-2.676-2.511-8.7-3.447-8.9-2.067-.344-4.048,2.067-5.253,1.981-1.464-.172-5.769-6.889-7.491-7.061C228.03,34.634,223.9,41.092,222.175,41.006Z"/><path class="b" d="M221.643,39.078c.417-.069-.234-.112-.373-.15-.4-.11-.8-.252-1.2-.382a11.3,11.3,0,0,0-2.9-.648,3.534,3.534,0,0,0-3.724,2.209,22.522,22.522,0,0,0-1.3,5.016c-.306,1.7-1.239,4.367-.245,5.927,1.413,2.215,3.644.664,5.424.035a33.958,33.958,0,0,1,5.579-1.387,46.293,46.293,0,0,1,10.307-.479,57.316,57.316,0,0,1,6.285.634c.939.155,1.875.337,2.8.56a20.2,20.2,0,0,0,3.057.813,2.6,2.6,0,0,0,2.587-1.478,3.678,3.678,0,0,0-.079-2.781c-.453-1.588-.931-3.171-1.487-4.726a10.856,10.856,0,0,0-1.929-3.914c-1.321-1.372-3.476-.772-4.955-.012a7.7,7.7,0,0,0-2.076,1.217c-.117.147-.184-.1.23.031.04.012.475.12.558.127a.969.969,0,0,1-.237-.146c.216.318-.043-.043-.139-.136-.98-.957-1.854-2.007-2.746-3.045-1.852-2.155-4.246-5.233-7.258-3.057A25.627,25.627,0,0,0,224.2,36.83c-.532.574-1.064,1.152-1.64,1.682-.3.28-.358.3-.481.413-.075.065-.231.1-.289.175.13-.161.121-.086.384-.094-2.569.074-2.579,4.075,0,4,2-.058,3.5-1.894,4.759-3.245.748-.806,1.478-1.632,2.269-2.4.252-.244.687-.647.842-.755-.092.064.283-.176.35-.207.109-.051-.291.054.147-.012h-1.063c.45.078-.063-.064.071.011.4.222-.06-.09.252.176a13,13,0,0,1,1,.978c.791.838,1.526,1.727,2.278,2.6,1.273,1.477,2.9,3.754,5.14,3.291,1.246-.257,2.168-1.158,3.292-1.677.206-.095.423-.156.626-.253l.307,0a1.216,1.216,0,0,1-1.009-.6c.026.3.443.77.569,1.055a33.048,33.048,0,0,1,1.221,3.453,15.919,15.919,0,0,1,.99,3.317l.274-1.009.006.032.883-.515c.467-.156-.274-.212-.459-.269q-.508-.154-1.025-.288c-.723-.189-1.454-.349-2.188-.489-1.461-.281-2.938-.484-4.416-.65a66.4,66.4,0,0,0-8.517-.429,45.809,45.809,0,0,0-7.468.816,36.177,36.177,0,0,0-4.056.967c-1.235.379-2.4,1.078-3.62,1.426h1.063l-.053-.017.718.718-.15-.254.273,1.009a18.145,18.145,0,0,1,.656-4.312,26.528,26.528,0,0,1,.98-3.863c-.094.267.1-.212.14-.211-.088,0-.462.822-.538.487a16.115,16.115,0,0,1,1.975.413,8.309,8.309,0,0,0,4.012.635,2.016,2.016,0,0,0,1.4-2.461A2.047,2.047,0,0,0,221.643,39.078Z"/><path class="b" d="M219.224,106.953c-.013.606-.041,1.21-.09,1.814q-.037.452-.088.9c-.016.15-.034.3-.053.45q.032-.236-.022.142a8.424,8.424,0,0,1-.267,1.374c-.028.084-.059.167-.092.249.114-.266.123-.3.029-.095-.1.173-.188.352-.294.521-.048.077-.447.626-.147.245-.137.173-.282.341-.434.5-.116.124-.237.243-.361.358-.062.058-.616.493-.254.233-.186.134-.376.262-.574.377-.071.041-.716.373-.286.173-.252.117-.517.207-.771.321-.911.407-1.813.834-2.72,1.251-.549.252-1.1.505-1.648.753l-.6.269c-.467.209.5-.189.116-.051a2,2,0,0,0,1.064,3.857c1.725-.62,3.382-1.51,5.045-2.276.266-.122.534-.239.8-.365.092-.045.272-.117-.151.062-.58.245.251-.1.327-.13a7.02,7.02,0,0,0,1.209-.639,9.106,9.106,0,0,0,3.256-3.7,10.345,10.345,0,0,0,.712-2.942,32.244,32.244,0,0,0,.3-3.658,2,2,0,0,0-4,0Z"/><path class="b" d="M205.87,146.226a30.64,30.64,0,0,1,6.639-1.379c3.5-.429,7.019-.66,10.539-.806a172.345,172.345,0,0,1,23.56.488,46.777,46.777,0,0,1,9.562,1.679c2.463.769,3.517-3.091,1.064-3.857a48.255,48.255,0,0,0-8.983-1.651c-3.845-.434-7.716-.647-11.583-.753a168.145,168.145,0,0,0-23.18.786,36.968,36.968,0,0,0-8.681,1.635c-2.394.885-1.359,4.752,1.063,3.858Z"/><path class="b" d="M191.923,145.23q1.008-3.84,2.062-7.669c.39-1.418.784-2.835,1.2-4.246.152-.519.305-1.037.47-1.552q.089-.274.182-.548c.148-.438-.083.134.052-.144,1.335-2.759,4.392-4.567,6.938-6.052a92.569,92.569,0,0,1,9.386-4.621,2.013,2.013,0,0,0,.718-2.736,2.051,2.051,0,0,0-2.737-.718c-5.22,2.3-10.734,4.719-14.992,8.609a11.862,11.862,0,0,0-3.43,5.228c-.677,2.127-1.253,4.289-1.842,6.441q-.95,3.468-1.863,6.945c-.654,2.492,3.2,3.555,3.857,1.063Z"/><path class="b" d="M205.8,163.656c-.111-.294-.248-.577-.365-.869.2.5.041.063-.019-.178a2.548,2.548,0,0,1-.076-.711c-.017-.342-.024-.683-.013-1.024.044-1.421.223-2.845.374-4.258.436-4.075.907-8.168,1.649-12.2a2.055,2.055,0,0,0-1.4-2.46,2.017,2.017,0,0,0-2.46,1.4c-.806,4.382-1.319,8.835-1.792,13.264-.153,1.432-.336,2.878-.376,4.319a11.287,11.287,0,0,0,.2,2.569,4.639,4.639,0,0,0,.192.675c.077.212.167.423.264.627.154.323-.179-.461-.038-.086a2.055,2.055,0,0,0,2.46,1.4,2.015,2.015,0,0,0,1.4-2.46Z"/><path class="b" d="M238.4,106.953q.03,1.476.2,2.942a13.882,13.882,0,0,0,.482,2.866,8.713,8.713,0,0,0,2.827,3.925,9.422,9.422,0,0,0,1.19.835q.224.126.456.232c.071.032.84.257.87.362-.015-.053-.688-.3-.279-.114.14.066.281.129.421.193q1.338.617,2.677,1.233c.87.4,1.744.847,2.646,1.171a2.011,2.011,0,0,0,2.46-1.4,2.052,2.052,0,0,0-1.4-2.46c-.385-.138.584.26.117.051l-.6-.269c-.551-.248-1.1-.5-1.648-.753-.907-.417-1.809-.844-2.72-1.251-.254-.114-.52-.2-.771-.321.43.2-.215-.132-.287-.173-.2-.115-.387-.243-.573-.377.362.26-.193-.175-.255-.233q-.186-.173-.36-.358c-.152-.16-.3-.328-.434-.5.3.381-.1-.168-.147-.245-.106-.169-.193-.348-.294-.521-.094-.2-.085-.171.029.095-.033-.082-.064-.165-.092-.249a8.424,8.424,0,0,1-.267-1.374q-.054-.378-.022-.142-.029-.225-.054-.45c-.033-.3-.063-.6-.087-.9-.05-.6-.077-1.208-.09-1.814a2,2,0,0,0-4,0Z"/><path class="b" d="M249.415,120.4a94.437,94.437,0,0,1,9.407,4.612c2.489,1.446,5.745,3.381,6.9,6.032a61.279,61.279,0,0,1,2.862,9.633c.936,3.766,1.752,7.561,2.5,11.368.7,3.577,1.356,7.167,1.895,10.773a2.013,2.013,0,0,0,2.46,1.4,2.05,2.05,0,0,0,1.4-2.46c-1.086-7.259-2.52-14.492-4.268-21.62a83.811,83.811,0,0,0-2.944-10.034c-1.269-3.316-4.077-5.562-6.982-7.441a79.326,79.326,0,0,0-11.207-5.713,2.064,2.064,0,0,0-2.736.718,2.015,2.015,0,0,0,.717,2.736Z"/><path class="b" d="M259.442,165.464a6.063,6.063,0,0,0,1.591-4.69c-.071-1.533-.3-3.068-.5-4.588-.56-4.291-1.19-8.575-1.953-12.834a2.018,2.018,0,0,0-2.46-1.4,2.044,2.044,0,0,0-1.4,2.46c.668,3.729,1.253,7.594,1.745,11.273.2,1.5.4,3.007.526,4.517a7.333,7.333,0,0,1,.021,1.642,3.457,3.457,0,0,1-.1.428c-.141.5.166-.228-.064.121.285-.432-.111.1-.241.24-1.737,1.9,1.084,4.731,2.828,2.828Z"/><path class="b" d="M220.589,122.132a11.249,11.249,0,0,0,1.8.64,13.8,13.8,0,0,0,1.981.307,12.538,12.538,0,0,0,3.568-.228,2.024,2.024,0,0,0,1.195-.919,2,2,0,0,0-2.258-2.938c-.221.043-.442.08-.665.111l.532-.072a11.072,11.072,0,0,1-2.864-.01l.532.072a9.111,9.111,0,0,1-2.2-.583l.478.2-.084-.036a2.193,2.193,0,0,0-1.541-.2,2,2,0,0,0-1.4,2.46,1.924,1.924,0,0,0,.92,1.2Z"/><path class="b" d="M200.594,52.368a96.619,96.619,0,0,0-8.12,24.849,77.062,77.062,0,0,0-1.161,13.164,68.122,68.122,0,0,0,1.588,13.141c.973,4.9,2.067,9.8,1.884,14.831-.094,2.574,3.907,2.57,4,0,.315-8.653-2.978-16.884-3.415-25.464A73.807,73.807,0,0,1,198.8,67.9a98.425,98.425,0,0,1,5.245-13.511c1.094-2.315-2.354-4.347-3.454-2.019Z"/><path class="b" d="M258.233,51.441c-.058,5.4,1.753,10.47,3.575,15.476A59.391,59.391,0,0,1,265.534,82.9c.806,10.6-.51,21.313,1.713,31.8a35.493,35.493,0,0,0,6.761,14.882,2.014,2.014,0,0,0,2.829,0,2.05,2.05,0,0,0,0-2.829c-5.882-7.408-6.871-17.443-7-26.563-.078-5.45.112-10.907-.236-16.351a58.658,58.658,0,0,0-3.178-15.882c-1.887-5.36-4.251-10.73-4.189-16.516.028-2.575-3.972-2.577-4,0Z"/><path class="b" d="M254.373,98.674a106.959,106.959,0,0,0-.684,14.617,2,2,0,0,0,4,0c0-2.442.058-4.884.149-7.324.046-1.227.1-2.454.181-3.68.035-.55.075-1.1.124-1.648.019-.214.039-.428.062-.641.017-.158.123-.967.025-.261a2.068,2.068,0,0,0-1.4-2.46,2.014,2.014,0,0,0-2.46,1.4Z"/><path class="a" d="M240.532,160.163s-2.042-2.905-3.8-3.344L222.7,153.968l-4,1.59c-2.056,1.809-3.587,5.765-3.917,7.172-.41,1.75-.042,1.817,1.778,2.046,1.939.245,7.826-.473,9.375-2.146a16.124,16.124,0,0,0,3.133-2.266c3.291,3.163,10.671,5.962,11.642,5.223C241.644,164.876,241.613,161.512,240.532,160.163Z"/><path class="e" d="M237.086,146.081c2.111.846,4.52,4.325,2.8,6.414,1.178.929.841,2.782.266,3.759-.031.053-.062.1-.093.154,2.383.378,4.46.713,4.46.713,3.4,1.134,5.811-1.179,4.715-3.591,2.85-.439,2.909-4.616,2.612-6.359-.436-2.56-2.239-4.225-6.018-4.806-1.23,1.388-3.288,2.364-6.325,2.339Z"/><path class="f" d="M241.891,144.49c7.222-1.462,6.539-9.951,1.683-10.984l-3.922-1.352a17.829,17.829,0,0,1-2.039,1.86l-1.129.892a7.76,7.76,0,0,1,1.681,3.231c.209,1.064.543,4.679-.267,6.555.968.006,1.606.012,1.606.012A11.569,11.569,0,0,0,241.891,144.49Z"/><path class="f" d="M222.826,154.565c-2.239.551-7.272.8-8.9-.268-2.038-1.345-2.328-5.113.544-5.413-4.944.018-2.3-7.744,1-7.479l2.273-2.943a4.143,4.143,0,0,0,3.917-.274c-.433,2.932,1.705,6.026,4.281,6.253l.211.019c-.509,1.322-1.017,2.645-1.017,2.645-.618,1.61.6,2.721.558,4.151-.034,1.121-1.4,1.885-1.827,2.953l-.4.16A5.152,5.152,0,0,1,222.826,154.565Z"/><path class="f" d="M226.374,128.113a6.469,6.469,0,0,0-4.693-1.4c-2.6.347-3.146,2.693-2.743,4.846-5.454-1.133-3.881,10.478,3.145,6.4a4.826,4.826,0,0,1,3.617-2.379,3.5,3.5,0,0,1,3.283-3.78,8.415,8.415,0,0,1,1.3-.063,13.6,13.6,0,0,0-2.5-2.413A11.672,11.672,0,0,0,226.374,128.113Z"/><path class="e" d="M241.34,126.665c-.888-1.566-3.733-1.971-4.824-1.971a7.941,7.941,0,0,0-6.866,4.221,4.627,4.627,0,0,0-.425,2.029l.014.837a8.03,8.03,0,0,1,5.258,1.26,10.226,10.226,0,0,1,1.987,1.866l1.129-.893c1.636-1.3,4.6-3.948,3.94-6.8A2.028,2.028,0,0,0,241.34,126.665Z"/><path class="f" d="M227.9,157.434c-1.427.252-4.27-.975-4.146-2.715.1-1.353,1.909-2.172,1.948-3.463.043-1.43-1.176-2.541-.558-4.151,1.141-2.969,4.042-3.3,6.723-1.953a4.916,4.916,0,0,0,3.161.607,5.4,5.4,0,0,1,2.06.322c2.111.846,4.52,4.325,2.8,6.414,1.178.929.841,2.782.266,3.759a3.4,3.4,0,0,1-3.239,1.879c-1.232.055-7.607.057-9.016-.7"/><path class="e" d="M225.948,144.441c-2.107-.186-3.92-2.288-4.275-4.654-.312-2.073,2.292-4.205,4.027-4.205a3.5,3.5,0,0,1,3.283-3.78,8.118,8.118,0,0,1,5.514,1.239,9.349,9.349,0,0,1,3.668,5.1c.265,1.349.731,6.8-1.189,7.6Z"/><path class="b" d="M225.948,142.441c.3.036-.261-.088-.321-.11.234.086-.271-.143-.322-.174a3.418,3.418,0,0,1-.815-.728,5.552,5.552,0,0,1-.595-1.007c.006.013-.123-.388-.138-.442,0,.007-.19-.637-.106-.393l0-.2q-.067.3.014-.066c.112-.362-.094.08.111-.29a2.286,2.286,0,0,1,.641-.785,3.352,3.352,0,0,1,.75-.5c.128-.061.125-.065-.01-.011a2.753,2.753,0,0,1,.278-.094,2.648,2.648,0,0,1,.275-.072c-.234.022-.237.027-.007.014a2.024,2.024,0,0,0,2-2c-.052-.895.166-1.222.665-1.5a4.289,4.289,0,0,1,2.679-.284,6.651,6.651,0,0,1,4.676,3.514,4.377,4.377,0,0,1,.516,1.361c.018.086.022.183.047.267.1.337-.052-.517,0,0,.073.731.128,1.461.132,2.2,0,.431-.009.862-.042,1.292a4.035,4.035,0,0,0-.042.454c.036-.244-.073.357-.086.416-.037.16-.085.313-.127.471-.031.1-.065.194-.1.289q.162-.377.018-.087c-.008.171-.408.372.01.02-.262.221.41-.2-.077.032a2.018,2.018,0,0,0-.717,2.737,2.043,2.043,0,0,0,2.736.717c1.757-.836,2.192-3.041,2.363-4.776a18.354,18.354,0,0,0-.216-4.869,10.381,10.381,0,0,0-3.835-5.911,9.952,9.952,0,0,0-7.579-2.075,5.555,5.555,0,0,0-5.018,5.744l2-2c-2.964.114-6.187,2.88-6.049,6a7.326,7.326,0,0,0,6.3,6.854,2.011,2.011,0,0,0,2-2,2.049,2.049,0,0,0-2-2Z"/><path class="b" d="M220.725,136.426a2.132,2.132,0,0,0-.461.22s.394-.146.2-.087c-.074.022-.145.054-.218.079-.274.094-.552.141-.831.211-.193.049.3-.034.287-.038a1.163,1.163,0,0,0-.191.016c-.123,0-.246.008-.369,0-.095,0-.494-.047-.084,0s0-.01-.108-.038-.21-.082-.313-.1c-.051-.009.475.245.148.057-.079-.047-.161-.088-.24-.137-.044-.027-.086-.059-.131-.086-.267-.162.152.1.187.148a4.035,4.035,0,0,0-.393-.379c-.305-.311.225.346.067.1-.057-.089-.12-.173-.175-.262-.1-.17-.183-.351-.277-.526-.053-.1.187.518.068.145-.037-.115-.077-.227-.109-.343-.053-.187-.063-.4-.127-.583.056.158.052.558.029.178-.008-.117-.016-.234-.018-.352,0-.18.014-.358.023-.538.015-.3-.122.583-.017.159.023-.095.04-.192.066-.287s.051-.161.075-.242c.119-.4-.082.172-.067.149a2.852,2.852,0,0,0,.262-.445c-.176.444-.282.333-.074.122s.286-.088-.126.072a1.377,1.377,0,0,0,.228-.146c.328-.224-.44.119-.129.047.091-.021.189-.048.278-.078.313-.1-.549.012-.113.017.11,0,.221,0,.331,0,.483,0-.5-.1,0,0a2.032,2.032,0,0,0,2.461-2.461c-.01-.056-.03-.466-.03-.157s0-.087-.006-.159a6.055,6.055,0,0,1,0-.7c0-.069.009-.137.016-.206q.022-.234-.029.194a2.252,2.252,0,0,1,.066-.329c.026-.107.063-.211.09-.317.085-.344-.154.247-.032.057.057-.089.1-.191.152-.282l.069-.107c.1-.139.1-.139,0,0s-.1.138.011.009l.093-.091c.252-.277-.226.1-.043.027a3.167,3.167,0,0,0,.3-.173c.373-.213-.376.088.067-.015.1-.024.2-.052.3-.078.506-.133-.354.008-.012-.007a7.216,7.216,0,0,0,1.079.008c-.142.032-.457-.082-.11-.01.1.022.21.041.314.066a6.553,6.553,0,0,1,.659.195c.1.035.5.243.075.022.093.048.191.089.285.136a8.442,8.442,0,0,1,.809.467c.128.084.253.172.379.26.274.194-.026-.03.136.107.3.255.591.519.873.8a2,2,0,0,0,2.828-2.829c-2.192-2.156-5.079-3.676-8.217-3.1a4.938,4.938,0,0,0-3.528,2.639,7.481,7.481,0,0,0-.446,4.642l2.461-2.46a4.7,4.7,0,0,0-4.268,1.02,5.311,5.311,0,0,0-1.521,3.541,6.258,6.258,0,0,0,3.854,6.345,6.59,6.59,0,0,0,5.209-.66,2.015,2.015,0,0,0,.718-2.737,2.048,2.048,0,0,0-2.737-.717Z"/><path class="b" d="M231.225,130.944c-.008-.166.055-.7-.015-.285a2.812,2.812,0,0,1,.331-1.049c.1-.181.211-.357.328-.528.031-.045.257-.338.108-.155s.054-.057.068-.073a9.378,9.378,0,0,1,.963-.928c.177-.144-.022.021-.05.04.1-.068.195-.138.295-.2q.261-.173.535-.325c.155-.086.314-.168.475-.245.05-.024.394-.166.167-.078-.208.081.137-.045.173-.058a7.871,7.871,0,0,1,1.178-.315c.085-.016.169-.03.254-.043-.414.063-.112.018-.023.014.194-.007.387-.021.583-.018s.417.023.626.04c.479.038-.37-.07-.006,0,.17.031.339.058.508.094a8.207,8.207,0,0,1,.925.252c.1.032.515.253.28.1s.175.1.253.142c.063.036.514.267.241.137-.245-.116.1.111.181.186.235.213-.158-.33.018.05.09.193-.069-.195-.07-.194s.081.3.091.328c.086.186-.006-.05-.008-.114,0,.111.015.221.015.332,0,.08-.014.166-.009.246.015.282.1-.311.009-.044-.051.154-.071.323-.118.479-.032.106-.074.209-.107.314-.084.267.148-.259,0-.017-.235.393-.455.783-.708,1.166-.167.25.2-.221,0,0-.076.085-.146.176-.221.263-.148.171-.3.337-.458.5A18.61,18.61,0,0,1,236.2,132.6a2,2,0,0,0,0,2.829,2.059,2.059,0,0,0,2.828,0,13.3,13.3,0,0,0,3.854-4.387c1.006-2.089,1.195-4.842-.729-6.49-3.01-2.579-7.938-2.309-11.067-.142-2.11,1.461-3.987,3.828-3.86,6.535a2,2,0,0,0,4,0Z"/><path class="b" d="M243.042,135.435c.236.052.457.149.689.206s-.445-.219-.249-.1c.058.034.124.059.184.09.108.056.213.117.316.182s.2.154.3.205c0,0-.41-.355-.217-.163.038.037.082.071.121.106.173.156.313.382.494.523,0,0-.316-.447-.166-.214.028.045.062.087.092.131.061.089.118.18.173.272s.107.188.156.284c.031.061.058.123.089.183.146.286-.078-.157-.089-.215.039.22.161.444.218.664.028.107.053.214.075.323.014.068.023.137.038.2.064.305-.035-.478-.032-.242s.039.476.037.715c0,.114,0,.227-.012.34-.019.274-.18.558.015-.022-.071.212-.085.457-.145.674-.031.112-.066.223-.1.333-.019.055-.042.11-.059.165-.1.332.216-.444.066-.152-.116.226-.223.453-.358.67-.065.1-.135.2-.2.3-.2.3.335-.39-.033.031a7.1,7.1,0,0,1-.578.573c-.346.315.233-.15.016,0-.142.095-.279.2-.426.286s-.274.162-.415.236c-.085.044-.642.3-.311.156s-.207.072-.3.1q-.287.1-.579.171c-.2.053-.411.1-.618.138-.086.016-.173.029-.259.045-.46.085.473-.041,0,0s-.969.071-1.457.07a2,2,0,1,0,0,4c3.43.01,7.127-1.236,8.824-4.443a7.8,7.8,0,0,0-.316-7.95,6.571,6.571,0,0,0-3.907-2.734,2,2,0,0,0-1.063,3.858Z"/><path class="b" d="M246.181,144.456c.368.084.733.177,1.092.3.2.064.4.132.587.214-.248-.107.052.034.145.085a7.717,7.717,0,0,1,.778.473c.185.129-.187-.2.063.063.112.116.235.24.352.351.148.14.1.118,0-.027q.143.195.266.4c.068.116.126.238.189.356.108.2-.087-.311.018.05.079.271.158.537.22.813.116.509-.067.028.008-.037-.026.023.028.269.031.3a9.988,9.988,0,0,1,.027,1.416c-.006.129-.015.257-.026.385s-.122.57-.007.091c-.061.255-.1.515-.167.768-.035.125-.082.246-.118.37-.066.231.177-.313,0,.014l-.178.327c-.116.218-.149.194.018.012-.1.107-.2.206-.3.31.16-.166.221-.152,0-.018-.135.08-.378.108,0,.015-.156.038-.307.083-.466.112a2,2,0,0,0-1.4,2.46c.047.111.094.222.131.336,0,.017.107.516.072.23s.015.116-.009.138c-.107.1.046-.227.017-.067-.039.223-.08.272.033.031-.044.093-.1.179-.146.27-.1.2-.083.078.032-.033-.038.037-.361.336-.151.166s-.5.254-.284.164-.73.152-.3.1a3.011,3.011,0,0,1-1.648-.2,2,2,0,0,0-1.064,3.857,6.192,6.192,0,0,0,5.988-.98A4.523,4.523,0,0,0,251.163,153l-1.4,2.46c3.446-.628,4.428-4.671,4.16-7.659a7.823,7.823,0,0,0-1.792-4.567,9.013,9.013,0,0,0-4.889-2.633,2.045,2.045,0,0,0-2.461,1.4,2.023,2.023,0,0,0,1.4,2.46Z"/><path class="b" d="M215.477,139.405c-2.841-.164-5,2.711-5.546,5.222a5.708,5.708,0,0,0,.457,4.128,4.636,4.636,0,0,0,4.086,2.129v-4a4.329,4.329,0,0,0-3.962,3.174,5.517,5.517,0,0,0,4.623,6.736,20.329,20.329,0,0,0,4.571.2,14.9,14.9,0,0,0,4.3-.694,2.047,2.047,0,0,0,1.4-2.46,2.024,2.024,0,0,0-2.461-1.4,7.808,7.808,0,0,1-1.485.368c-.156.027-.313.049-.469.073.6-.093-.073,0-.191.018-.361.039-.723.069-1.086.092-.75.047-1.5.063-2.254.037-.359-.013-.718-.035-1.075-.071-.267-.027-.361-.056-.041,0-.178-.032-.356-.058-.532-.095-.1-.021-.767-.126-.807-.229q.466.206.19.077c-.044-.021-.087-.044-.128-.068-.139-.09-.368-.349-.032,0-.122-.127-.25-.253-.373-.378.2.2.147.209,0-.027-.074-.12-.293-.656-.1-.116-.045-.124-.091-.246-.128-.374-.024-.084-.045-.169-.063-.254-.04-.219-.036-.17.011.149a1.339,1.339,0,0,1-.019-.381q0-.124.012-.249c-.05.327-.056.383-.016.168.024-.068.035-.3.1-.345q-.2.439-.054.156a2.281,2.281,0,0,1,.126-.2q-.3.369-.083.135l.088-.081c-.547.429.405-.076-.233.129.118-.038.719-.162.174-.092a2,2,0,0,0,0-4,1.537,1.537,0,0,0-.4-.017q.488.075.169.021l-.114-.025a1.94,1.94,0,0,1-.318-.094c0-.071.471.266.1.031-.336-.216.086.011.088.093,0-.008-.19-.183-.2-.192-.226-.175.2.374.088.113a1.143,1.143,0,0,0-.135-.241c.093.027.166.537.063.131-.024-.093-.048-.186-.073-.278-.1-.36.149,0,.012.142.026-.026-.015-.215-.015-.252,0-.12.064-.78,0-.412s.069-.32.1-.427c.051-.2.129-.387.183-.583.1-.375-.195.388-.03.064.05-.1.095-.2.147-.3.1-.2.223-.382.339-.571.218-.354-.06,0-.056.055,0-.034.184-.217.207-.243s.445-.429.447-.427c.026.045-.479.305-.085.079.081-.046.173-.091.249-.145.264-.187-.466.123-.134.052a1.279,1.279,0,0,0,.221-.066c.347-.144-.295-.017-.171.014a2.166,2.166,0,0,0,2.321-2,2.046,2.046,0,0,0-2-2Z"/><path class="b" d="M217.285,154.144a14.432,14.432,0,0,0-3.3,4.965c-.68,1.549-1.644,3.57-1.273,5.307.435,2.038,2.724,2.354,4.466,2.4a22.556,22.556,0,0,0,4.955-.508c1.8-.355,3.9-.9,5.217-2.267a2,2,0,0,0-2.828-2.828c-.061.063-.222.161-.254.235.013-.031.433-.287.179-.145-.057.032-.112.074-.167.108-.12.073-.243.141-.369.205-.049.025-.1.048-.15.073-.282.146-.037,0,.108-.037-.667.162-1.308.459-1.982.621q-.543.13-1.093.23a4.781,4.781,0,0,1-1.1.177c.522.039.053-.009-.141.013-.173.019-.346.036-.52.051-.341.03-.684.053-1.026.066a9.817,9.817,0,0,1-1.524-.046c-.538-.066.227.044-.1-.016-.148-.026-.294-.059-.442-.085a.916.916,0,0,0-.181-.052c.006,0,.484.234.255.106-.152-.085-.124-.171.236.189l.23.3q-.094-.171.042.116c.192.419.02-.162.085.287.06.409.039.151.025.094-.011-.041.031-.16.01-.2.085.167-.081.446-.02.177.066-.293.125-.585.21-.873.078-.262.164-.521.256-.778.057-.16.117-.319.178-.477q.048-.126.1-.252c.023-.059.183-.432.06-.151-.115.264.015-.031.044-.1.051-.113.1-.227.154-.341q.146-.314.3-.624c.213-.423.441-.839.687-1.244.122-.2.249-.4.382-.6.058-.085.117-.171.177-.255.034-.047.3-.391.119-.165-.169.208.037-.04.079-.09.079-.094.159-.186.242-.276.16-.174.328-.337.5-.5a2.014,2.014,0,0,0,0-2.828,2.047,2.047,0,0,0-2.829,0Z"/><path class="b" d="M238.805,161.173c.109.144.192.294.287.448.066.107.091.314-.026-.082.028.1.069.19.1.286.054.175.1.354.136.533.023.106.035.213.059.318.062.28-.025-.472,0,.034.016.4-.012.79,0,1.185,0,.277.1-.347.013-.1a1.919,1.919,0,0,0-.041.2c-.019.082-.052.169-.067.253-.067.376.141-.251.051-.094-.063.107-.189.208.021.015.349-.322-.3.121.19-.176.12-.073.438-.242.488-.26-.316.111.543,0,.285-.035a2.41,2.41,0,0,0-.282,0,2.031,2.031,0,0,0-.254-.023c.489-.069.419.069.119.006-.258-.054-.514-.111-.768-.179-.625-.168-1.238-.377-1.843-.606-.17-.064-.338-.13-.507-.2-.071-.029-.555-.232-.28-.114s-.217-.1-.288-.128c-.2-.09-.4-.182-.6-.276a25.489,25.489,0,0,1-4.043-2.339l-.227-.167c-.373-.269.222.191.023.018-.152-.13-.311-.252-.462-.384a9.611,9.611,0,0,1-.807-.782c-.081-.088-.265-.233-.3-.351.065.21.232.329.113.141-.047-.075-.1-.146-.148-.22-.081-.128-.143-.269-.224-.4-.157-.246.095.176.086.215.013-.054-.072-.21-.088-.261a2,2,0,0,0-3.857,1.063,8.22,8.22,0,0,0,3.021,3.931,25.722,25.722,0,0,0,4.9,2.986,25.35,25.35,0,0,0,4.777,1.8c1.582.383,3.326.494,4.31-1.082a6.065,6.065,0,0,0,.712-3.486,6.9,6.9,0,0,0-1.108-3.718,2.064,2.064,0,0,0-2.737-.718,2.015,2.015,0,0,0-.717,2.737Z"/><path class="b" d="M227.366,155.506c.55-.077-.217-.047.013-.03.213.016-.339-.073-.443-.1-.123-.034-.245-.073-.365-.116.037.013.242.113.029.016a4.422,4.422,0,0,1-.674-.381c-.267-.185.22.149-.034-.035a1.5,1.5,0,0,1-.191-.191c.287.309.027,0,.008-.012.067.048.029.295.039.1.015-.287-.056.342,0,.047.043-.217-.033.047,0,.076.066.054-.144.19.041-.039.06-.075.163-.242.038-.075.8-1.074,1.744-1.9,1.852-3.327.087-1.151-.534-2.272-.7-3.2a1.258,1.258,0,0,1,.248-.877c.056-.1.113-.195.178-.285-.137.189.07-.073.086-.091.07-.074.144-.145.22-.213.145-.129-.132.061.149-.1a3.5,3.5,0,0,1,.342-.182c-.042.018-.242.091-.026.027.1-.029.661-.141.332-.1a4.535,4.535,0,0,1,.709-.012,1.121,1.121,0,0,1,.517.085c1.046.268,1.879.91,3.037,1.147s2.428-.084,3.544.29c-.169-.057.3.153.414.223.084.052.166.107.245.166.109.077.108.077,0,0l.156.139a4.1,4.1,0,0,1,.911,1.1c.049.081.334.684.259.482.048.13.075.266.123.395l.047.2q-.018-.255,0-.039c.007.1,0,.194.009.292.017.348.046-.045-.022.131-.083.218.016,0,.036-.026-.113.173-.2.339-.325.5a1.994,1.994,0,0,0,.312,2.423c.484.425-.176-.258.2.215-.178-.222.012.171,0,0a3.566,3.566,0,0,0,0,.43c-.012.2.075-.169-.038.155-.01.029-.213.609-.047.231a3.45,3.45,0,0,1-.223.409c-.028.046-.309.428-.162.252-.018.022-.463.421-.186.22-.044.032-.534.269-.19.138a3.49,3.49,0,0,1-.471.129c-.136.025-.131.028.016.009l-.222.02c-.125.007-.249.014-.374.018-.437.017-.875.016-1.312.016-1.353,0-2.707-.035-4.057-.126-.312-.022-.624-.046-.935-.076-.177-.017-.352-.038-.529-.056-.4-.042.2.035-.04-.006-.259-.045-.518-.084-.774-.146-.108-.027-.233-.079-.343-.095-.341-.05.416.2.126.058a2.05,2.05,0,0,0-2.736.718,2.018,2.018,0,0,0,.717,2.736,12.693,12.693,0,0,0,4.9.891c1.53.09,3.067.123,4.6.095a5.952,5.952,0,0,0,5.225-2.47c1.344-1.919,1.576-4.937-.312-6.6l.312,2.424c2.055-2.7.146-6.486-2.176-8.308a7.069,7.069,0,0,0-4.693-1.431,9.15,9.15,0,0,1-1.086-.011c.41.042-.224-.079-.365-.131-.46-.167-1.454-.7-2.176-.91a6.217,6.217,0,0,0-7.811,3.63c-.665,1.686-.075,3.16.4,4.787-.072-.248.027.072-.009.125l.015-.175c.083-.167.09-.188.021-.06.018.03-.287.434-.074.146-.079.107-.175.207-.261.307a6.9,6.9,0,0,0-1.441,2.163c-1.33,3.765,3.381,6.154,6.469,5.726a2.012,2.012,0,0,0,1.4-2.46,2.053,2.053,0,0,0-2.46-1.4Z"/><path class="b" d="M226.61,97.967a9.835,9.835,0,0,0,4.738,1.114,9.4,9.4,0,0,0,2.919-.424,6.576,6.576,0,0,0,2.037-1.112,2,2,0,0,0,.586-1.414,2.032,2.032,0,0,0-.586-1.414,2.012,2.012,0,0,0-1.414-.586,2.34,2.34,0,0,0-1.414.586c.7-.548.117-.1-.1.009-.17.089-.562.213.114-.033-.122.044-.242.093-.366.133-.156.05-.314.092-.473.129-.064.015-.514.148-.551.1.023.027.558-.064.138-.023-.1.01-.2.019-.3.025-.242.016-.485.022-.728.02-.217,0-.435-.008-.652-.023-.1-.007-.2-.015-.3-.025-.18-.018-.475-.129.091.016-.317-.081-.642-.118-.957-.212-.134-.04-.265-.088-.4-.134-.4-.136.48.223.118.053q-.246-.115-.486-.243a2,2,0,0,0-2.019,3.454Z"/><path class="b" d="M229.928,87.33A20.33,20.33,0,0,1,230.4,89.5l-.072-.532a1.3,1.3,0,0,1,.008.3l.072-.531a.771.771,0,0,1-.033.134l.2-.477a.551.551,0,0,1-.047.086l.313-.405a.521.521,0,0,1-.071.07l.405-.313a1.286,1.286,0,0,1-.172.091l.478-.2a1.283,1.283,0,0,1-.29.084l.532-.071a1.125,1.125,0,0,1-.272,0l.532.072c-.1-.015-.2-.04-.306-.053a2.244,2.244,0,0,0-1.541.2,2,2,0,0,0-.717,2.737l.312.4a2,2,0,0,0,.883.515c.312.042.615.119.933.133a3.132,3.132,0,0,0,1.475-.366,2.324,2.324,0,0,0,1.229-1.507,3.385,3.385,0,0,0-.01-1.525c-.118-.7-.28-1.39-.459-2.076a2.068,2.068,0,0,0-.919-1.2,2.244,2.244,0,0,0-1.541-.2,2.022,2.022,0,0,0-1.2.919,2.1,2.1,0,0,0-.2,1.541Z"/><path class="b" d="M219.32,80.954c-.362,1.176-.126,3.883,2.1,4.113,2.946-.017,3.1-3.29,2.111-4.828C222.722,78.979,220.335,78.455,219.32,80.954Z"/><path class="b" d="M242.913,80.954c.362,1.176.126,3.883-2.1,4.113-2.946-.018-3.1-3.29-2.111-4.828C239.511,78.979,241.9,78.455,242.913,80.954Z"/><path class="a" d="M148.686,104.341c-.4-.177-1.893-.765-2.071-.83-2.684-.969-2.578-2.695-2.917-4.625a37.6,37.6,0,0,1-.6-6.707c5.016-3.272,8.861-9.8,9.6-11.811.126-.383.383-1.1.618-1.974l.478-.073a6.029,6.029,0,0,0,2.806-1.265,9.105,9.105,0,0,0,2.353-3.088,14.316,14.316,0,0,0,1.46-7.59,4.766,4.766,0,0,0-.5-1.922,3.38,3.38,0,0,0-2.43-1.615,3.578,3.578,0,0,0-2.864.837s-.158-22.36-25.819-22.36-22.212,22.36-22.212,22.36a3.575,3.575,0,0,0-2.863-.837,3.38,3.38,0,0,0-2.43,1.615,4.766,4.766,0,0,0-.5,1.922,14.316,14.316,0,0,0,1.46,7.59,9.093,9.093,0,0,0,2.353,3.088,6.029,6.029,0,0,0,2.806,1.265l.914.139a24.336,24.336,0,0,0,4.641,9.059,21.7,21.7,0,0,0,6.117,5.2,37.914,37.914,0,0,1-.594,6.167c-.339,1.93-.233,3.656-2.917,4.625-.178.065-1.292.531-1.62.672,0,0,2.527,10.777,16.075,10.777A20.759,20.759,0,0,0,148.686,104.341Z"/><path class="a" d="M119.641,114.984c3.872,11.094,9.179,23.475,12.035,29.642l.751,1.553.008.006A249.4,249.4,0,0,0,142.9,117.019a114.165,114.165,0,0,0,3.821-16.338c-.117-.163-.234-.327-.356-.474a16.507,16.507,0,0,0-2.831-3.5,35.8,35.8,0,0,1-10.333,7.2c-.214.1-.452.215-.521.44a.823.823,0,0,0,.119.583h-3.764a.823.823,0,0,0,.119-.583c-.068-.225-.307-.343-.521-.44A35.81,35.81,0,0,1,118.3,96.7a16.8,16.8,0,0,0-3.075,3.915l-.185.356C116.056,104.27,117.664,109.32,119.641,114.984Z"/><path class="b" d="M117.092,92.884c-.016.791-.054,1.581-.12,2.369-.029.358-.065.715-.1,1.072-.02.178-.041.356-.064.534-.018.142-.017.143,0,0l-.03.213c-.159,1.064-.277,2.173-.539,3.219-.024.1-.05.193-.08.289s-.184.369-.019.1c.207-.344-.247.366-.234.392-.03-.059.338-.359.04-.064-.078.077-.156.154-.235.23-.3.294.347-.188-.053.03-.116.063-.227.135-.344.2-.136.071-.336.152-.082.052-.092.036-.185.069-.277.1-.16.063-.319.129-.477.2q-.764.315-1.523.64a2,2,0,0,0-.717,2.736,2.063,2.063,0,0,0,2.736.717c.292-.124-.019.011-.138.058.116-.046.231-.1.346-.144.225-.095.45-.189.676-.28a12.491,12.491,0,0,0,1.687-.742,5.477,5.477,0,0,0,2.489-3.212,24.339,24.339,0,0,0,.585-3.344,42.432,42.432,0,0,0,.477-5.361,2,2,0,0,0-4,0Z"/><path class="b" d="M141.1,92.884a42.44,42.44,0,0,0,.52,5.649,17.92,17.92,0,0,0,.636,3.338,5.473,5.473,0,0,0,2.834,3.159c.511.242,1.048.43,1.574.637l.748.3.353.143c.442.177-.352-.152-.093-.04a2.056,2.056,0,0,0,2.737-.717,2.023,2.023,0,0,0-.718-2.737c-.84-.364-1.691-.71-2.548-1.031-.555-.208.289.177-.188-.081-.118-.064-.235-.128-.351-.195-.215-.124-.208-.147-.015.019-.1-.088-.2-.175-.3-.272-.074-.077-.327-.23-.086-.086q.157.206.016,0c-.032-.05-.063-.1-.091-.155a1.424,1.424,0,0,0-.132-.265c.218.239.123.311.037.033a21.669,21.669,0,0,1-.56-3.113c-.028-.184-.056-.369-.081-.553-.02-.14-.021-.148,0-.022l-.028-.222c-.046-.407-.092-.813-.128-1.221-.076-.854-.12-1.71-.137-2.568a2,2,0,1,0-4,0Z"/><path class="d" d="M127.557,111.3c.047.2.095.4.146.6a5.26,5.26,0,0,1,.218,1.331c0,.479-2.963,24.47-3.516,29.069,1.36,1.884,5.561,7.8,7.545,9.6,1.731-1.669,5.419-7.108,6.947-9.53-.425-3.737-4.223-28.25-4.212-28.993a8.06,8.06,0,0,1,.518-2.362c.677-2.064.812-3.5,1.489-5.569-2.007,0-8.912.016-10.37.016C126.814,107.407,127.1,109.352,127.557,111.3Z"/><path class="b" d="M127.989,115.178c2.232,0,4.464-.049,6.7-.05a2,2,0,0,0,0-4c-2.232,0-4.464.049-6.7.05a2,2,0,0,0,0,4Z"/><path class="b" d="M125.629,111.829a13.971,13.971,0,0,1-.135,5.111q-.555,4.639-1.125,9.277-.611,5.01-1.225,10.02-.245,2-.488,3.99c-.138,1.135-.462,2.258.172,3.287,1.049,1.7,2.38,3.3,3.589,4.89a37.865,37.865,0,0,0,4.119,4.91,2.036,2.036,0,0,0,2.828,0,36.389,36.389,0,0,0,3.862-4.887,43.818,43.818,0,0,0,3.4-5.048c.55-1.068.07-2.6-.087-3.726q-.288-2.054-.593-4.1c-.978-6.661-2.008-13.315-2.969-19.979-.077-.535-.152-1.072-.227-1.607-.057-.4.055.43.022.17-.012-.1-.031-.2-.038-.3s-.035-.216-.038-.325a9.836,9.836,0,0,1,.7-2.813c.447-1.564.737-3.165,1.228-4.718a2.018,2.018,0,0,0-1.928-2.532c-3.457,0-6.914.015-10.37.016a2.024,2.024,0,0,0-1.929,2.532c.474,1.932.8,3.9,1.236,5.835.57,2.509,4.428,1.447,3.857-1.064-.441-1.939-.762-3.9-1.236-5.835l-1.928,2.532c3.456,0,6.913-.015,10.37-.016l-1.929-2.532c-.693,2.192-1.306,4.5-1.838,6.735a6.432,6.432,0,0,0-.172,2.347c.237,1.884.527,3.763.805,5.642.837,5.659,1.7,11.314,2.529,16.974q.278,1.884.545,3.77.053.363.1.728c.028.2.1.764.034.24.045.34.09.679.129,1.02l.273-1.01c-1.971,3.112-4,6.52-6.634,9.126h2.828c-2.825-2.629-4.986-6.084-7.232-9.2l.273,1.01c1.066-8.862,2.184-17.718,3.235-26.582a12.426,12.426,0,0,0-.154-4.95C128.89,108.262,125.032,109.322,125.629,111.829Z"/><path class="a" d="M139.2,112.849c3.318-3.3,5.491-7.292,7.942-11.281a17.664,17.664,0,0,0-3.6-4.866,35.8,35.8,0,0,1-10.333,7.2c-.214.1-.452.215-.521.44a.823.823,0,0,0,.119.583,33.2,33.2,0,0,0,2.137,2.76C136.392,109.467,138.218,111.647,139.2,112.849Z"/><path class="a" d="M122.643,112.849c-3.318-3.3-5.491-7.292-7.942-11.281a17.664,17.664,0,0,1,3.6-4.866,35.81,35.81,0,0,0,10.333,7.2c.214.1.453.215.521.44a.823.823,0,0,1-.119.583,33.2,33.2,0,0,1-2.137,2.76C125.446,109.467,123.62,111.647,122.643,112.849Z"/><path class="b" d="M140.609,114.264a46.636,46.636,0,0,0,6.557-8.886c.467-.77.93-1.543,1.4-2.312a2.665,2.665,0,0,0,.536-1.764,4.389,4.389,0,0,0-.686-1.565,19.254,19.254,0,0,0-3.465-4.449,2.035,2.035,0,0,0-2.828,0,33.121,33.121,0,0,1-5.465,4.433c-.976.632-1.981,1.22-3.014,1.753-1.113.575-2.515.977-2.89,2.338a3.2,3.2,0,0,0,.779,2.782c.694.921,1.425,1.815,2.155,2.707,1.359,1.659,2.74,3.3,4.093,4.963a2.015,2.015,0,0,0,2.829,0,2.047,2.047,0,0,0,0-2.829c-1.13-1.388-2.28-2.76-3.418-4.141-.641-.778-1.281-1.556-1.909-2.345-.265-.332-.237-.287-.453-.582a3.343,3.343,0,0,0-.223-.317c-.194-.2.123-.322.076.294l-.273,1.009q-.649.53-.2.278l.241-.111c.242-.114.484-.228.724-.347q.737-.364,1.453-.765,1.479-.825,2.875-1.787a38.083,38.083,0,0,0,5.445-4.5h-2.828a16.544,16.544,0,0,1,3.288,4.46v-2.019c-2.319,3.784-4.475,7.706-7.63,10.877C135.963,113.262,138.79,116.092,140.609,114.264Z"/><path class="b" d="M124.058,111.435c-3.155-3.171-5.311-7.093-7.63-10.877v2.019a16.544,16.544,0,0,1,3.288-4.46h-2.828a38.194,38.194,0,0,0,5.445,4.5q1.4.96,2.875,1.787.657.366,1.332.7.36.182.724.352c.12.057.241.112.362.167q.453.251-.2-.278l-.274-1.009c-.045-.58.275-.507.076-.294a2.561,2.561,0,0,0-.179.257c-.083.115-.17.229-.257.342.176-.228-.257.321-.24.3-.628.789-1.268,1.567-1.909,2.345-1.138,1.381-2.288,2.753-3.418,4.141a2.061,2.061,0,0,0,0,2.829,2.016,2.016,0,0,0,2.829,0c1.326-1.63,2.678-3.237,4.01-4.862.739-.9,1.476-1.806,2.182-2.734a3.267,3.267,0,0,0,.835-2.856c-.364-1.323-1.684-1.722-2.768-2.276-1.034-.528-2.04-1.11-3.017-1.738a33.17,33.17,0,0,1-5.584-4.51,2.037,2.037,0,0,0-2.828,0,19.2,19.2,0,0,0-3.4,4.332,6.4,6.4,0,0,0-.718,1.416,2.5,2.5,0,0,0,.5,2.03c.469.769.932,1.542,1.4,2.312a46.636,46.636,0,0,0,6.557,8.886C123.047,116.091,125.876,113.263,124.058,111.435Z"/><path class="g" d="M150.4,56.781a36.445,36.445,0,0,1,4.1,7.014,3.552,3.552,0,0,1,2.985-.954,3.091,3.091,0,0,1,.623.157c1.78-4.572,2.041-11.194-.206-17.478-1.58-4.418-5.519-9.046-8.317-10.336l-4.039-2.9c-3.442-4.714-8.644-7.2-15.985-7.424-6.876-.21-14.8,1.179-20.82,7.24l1.938,1.956c-3.549,2.278-6.327,6.547-7.616,10.334-1.546,4.539-2.008,11-.172,18.631l.013.055a3.354,3.354,0,0,1,.823-.231,3.537,3.537,0,0,1,3.063,1.035c6.927-6.62,12.959-10.551,19.045-15.331a15.792,15.792,0,0,0,1.635,3.77c.413.168,4.944-2.678,8.1-4.626L140.551,49a18.57,18.57,0,0,1,5.831,3.415A27.563,27.563,0,0,1,150.4,56.781Z"/><path class="b" d="M156.04,65.093a1.661,1.661,0,0,1,1.182-.28,1.544,1.544,0,0,1,.912.557c.613.989.4,2.978.176,4.22-.516,2.826-1.9,6.24-5.041,6.8a2.017,2.017,0,0,0-1.4,2.46,2.043,2.043,0,0,0,2.46,1.4c5.207-.933,7.7-6.788,8.09-11.508.208-2.5-.064-5.265-2.221-6.872a5.61,5.61,0,0,0-6.99.4,2.016,2.016,0,0,0,0,2.829,2.045,2.045,0,0,0,2.829,0Z"/><path class="b" d="M151.763,75.656a13.115,13.115,0,0,1-.771,3.535c-.065.2-.47,1.188-.154.513-.118.252-.23.507-.355.756a30.728,30.728,0,0,1-2.646,4.252c-2.209,3.03-5.417,6.374-9.134,7.246-2.5.588-1.444,4.445,1.064,3.857,4.824-1.132,8.557-5.065,11.394-8.907,2.442-3.306,4.432-7.054,4.6-11.252.1-2.574-3.9-2.569-4,0Z"/><path class="b" d="M108.009,62.264a5.612,5.612,0,0,0-6.991-.4c-2.159,1.6-2.428,4.373-2.22,6.872.392,4.72,2.883,10.575,8.09,11.508a2.055,2.055,0,0,0,2.46-1.4,2.017,2.017,0,0,0-1.4-2.46c-3.138-.562-4.526-3.976-5.041-6.8a7.718,7.718,0,0,1,.118-4.125,1.529,1.529,0,0,1,2.152-.372,2.057,2.057,0,0,0,2.829,0,2.017,2.017,0,0,0,0-2.829Z"/><path class="b" d="M105.635,75.558a28.219,28.219,0,0,0,6.034,13.5,20.267,20.267,0,0,0,13.247,7.487,2.013,2.013,0,0,0,2-2,2.046,2.046,0,0,0-2-2c-4.326-.467-7.969-3.3-10.637-6.578A24.665,24.665,0,0,1,109.492,74.5a2.016,2.016,0,0,0-2.46-1.4,2.045,2.045,0,0,0-1.4,2.46Z"/><path class="b" d="M148.58,36.911c3.7,1.806,6.484,6.228,7.7,10.026a24.266,24.266,0,0,1,.223,14.647c-.783,2.458,3.077,3.511,3.857,1.063a28.079,28.079,0,0,0-.369-17.217,24.25,24.25,0,0,0-4-7.2,16.429,16.429,0,0,0-5.389-4.77c-2.3-1.124-4.335,2.324-2.019,3.454Z"/><path class="b" d="M112.347,31.008c-5.676,2.192-9.64,7.752-11.4,13.423-1.909,6.166-1.442,12.916.015,19.118.589,2.505,4.447,1.444,3.857-1.064-1.253-5.333-1.683-11.059-.191-16.393,1.236-4.418,4.3-9.5,8.778-11.226a2.059,2.059,0,0,0,1.4-2.461,2.016,2.016,0,0,0-2.46-1.4Z"/><path class="b" d="M147.277,31.27c-4.511-6.065-11.376-8.388-18.751-8.433-7.832-.047-15.532,2.247-21.2,7.844-1.834,1.813.995,4.641,2.828,2.829,4.829-4.773,11.351-6.66,18.017-6.673,5.915-.012,11.953,1.486,15.647,6.452a2.061,2.061,0,0,0,2.736.717,2.015,2.015,0,0,0,.718-2.736Z"/><path class="b" d="M135.184,45.584c-2.37,1.455-4.709,2.979-7.148,4.318-.2.11-.4.215-.6.322-.086.045-.172.088-.259.129-.225.1-.2.1.069-.023-.127.407,1.908,1.47,1.693.607a3.525,3.525,0,0,0-.285-.574,9.8,9.8,0,0,1-.882-2.35c-.289-1.651-2.294-1.7-3.343-.883-6.189,4.848-12.624,9.322-18.38,14.7-1.885,1.762.948,4.586,2.828,2.829,5.756-5.379,12.192-9.855,18.38-14.7l-3.343-.883a13.991,13.991,0,0,0,1.387,3.518,2.456,2.456,0,0,0,3.367,1.445c3.013-1.234,5.776-3.3,8.539-5,2.19-1.345.183-4.806-2.019-3.454Z"/><path class="b" d="M140.02,50.927a18.924,18.924,0,0,1,3.992,2.14,21.165,21.165,0,0,1,3.519,3.322,33.7,33.7,0,0,1,5.078,8.032,2.016,2.016,0,0,0,2.736.718,2.047,2.047,0,0,0,.718-2.737,36.893,36.893,0,0,0-5.865-9.025,24.942,24.942,0,0,0-4.27-3.837,22.574,22.574,0,0,0-4.845-2.47,2.014,2.014,0,0,0-2.46,1.4,2.046,2.046,0,0,0,1.4,2.46Z"/><path class="g" d="M180.237,125.566c-.248-4.943-1.141-8.736-6.033-12.641-1.146-.915-2.754-1.175-4.042-1.875a201.314,201.314,0,0,0-23.285-11.185,121.229,121.229,0,0,1-3.975,17.154,249.4,249.4,0,0,1-10.467,29.166l-.008-.006-.751-1.553c-2.856-6.167-8.163-18.548-12.035-29.642-2-5.727-3.623-10.831-4.635-14.126A209.587,209.587,0,0,0,94.183,111.05c-1.288.7-2.9.96-4.042,1.875-4.892,3.905-5.785,7.7-6.033,12.641-.648,12.888-1.458,26.514-2.233,40.141,20.768-.039,59.4-.118,100.583-.21C181.686,151.94,180.882,138.387,180.237,125.566Z"/><path class="b" d="M147.36,102.2c4.991,2.036,9.874,4.315,14.664,6.785,2.262,1.167,4.5,2.381,6.74,3.585,1.064.571,2.2.913,3.293,1.4a9.172,9.172,0,0,1,2.729,2.18c3.044,3.179,3.331,7.11,3.542,11.291q.429,8.468.876,16.935.526,9.915,1.086,19.828c.145,2.56,4.146,2.577,4,0q-1.024-18.144-1.938-36.3c-.244-4.81-.557-9.4-3.651-13.329a14,14,0,0,0-5.932-4.6,66.75,66.75,0,0,1-6.876-3.482q-8.542-4.494-17.47-8.153a2.013,2.013,0,0,0-2.46,1.4,2.049,2.049,0,0,0,1.4,2.46Z"/><path class="b" d="M136.72,158.707a3.858,3.858,0,0,1,.031-.468l-.071.532a3.137,3.137,0,0,1,.2-.731l-.2.478a2.553,2.553,0,0,1,.324-.553l-.313.405a2.415,2.415,0,0,1,.384-.379l-.405.312a2.592,2.592,0,0,1,.5-.291l-.478.2a3.186,3.186,0,0,1,.78-.207l-.532.072a3.592,3.592,0,0,1,.915,0l-.531-.072a3.186,3.186,0,0,1,.7.19l-.478-.2a2.655,2.655,0,0,1,.51.291l-.405-.313a2.51,2.51,0,0,1,.438.436l-.313-.4a2.8,2.8,0,0,1,.31.532l-.2-.478a3.439,3.439,0,0,1,.233.862l-.072-.531a3.559,3.559,0,0,1,.012.869l.071-.532a2.971,2.971,0,0,1-.189.706l.2-.478a2.81,2.81,0,0,1-.334.58l.313-.405a2.653,2.653,0,0,1-.414.42l.405-.312a2.7,2.7,0,0,1-.547.326l.478-.2a3.151,3.151,0,0,1-.769.209l.532-.071a3.853,3.853,0,0,1-.9.008l.532.072a2.8,2.8,0,0,1-.68-.177l.478.2a2.456,2.456,0,0,1-.487-.281l.4.313a2.463,2.463,0,0,1-.414-.415l.313.405a2.866,2.866,0,0,1-.341-.59l.2.477a3.56,3.56,0,0,1-.229-.842l.072.532a3.972,3.972,0,0,1-.035-.5,2,2,0,0,0-4,0,4.8,4.8,0,0,0,2.348,4.286,4.937,4.937,0,0,0,5.823-.965,4.57,4.57,0,0,0,1.091-2.235,5.3,5.3,0,0,0-.2-2.679,4.588,4.588,0,0,0-1.927-2.422,4.214,4.214,0,0,0-1.363-.521,6.105,6.105,0,0,0-2.093-.022,4.372,4.372,0,0,0-2.893,1.844,4.757,4.757,0,0,0-.79,2.714,2,2,0,0,0,4,0Z"/><path class="b" d="M168.836,162.339c.479-7.78.984-15.594,1.98-23.328,1.124-8.728,3.316-17.294,4-26.084.2-2.567-3.8-2.554-4,0-.679,8.78-2.878,17.359-4,26.084-.99,7.735-1.5,15.547-1.98,23.328-.158,2.571,3.843,2.562,4,0Z"/><path class="b" d="M89.7,112.927c.69,8.981,2.77,17.769,3.856,26.7.938,7.71,1.278,15.5,1.808,23.247.174,2.555,4.176,2.574,4,0-.53-7.745-.87-15.537-1.808-23.247-1.086-8.927-3.166-17.723-3.856-26.7-.2-2.55-4.2-2.571-4,0Z"/><path class="b" d="M83.775,164.271c.647-11.342,1.461-22.674,2.089-34.017.227-4.1-.068-8.65,2.229-12.263a10.417,10.417,0,0,1,4.724-4.223,59.479,59.479,0,0,0,6.812-3.376c5.237-2.776,10.564-5.375,16.039-7.651a2.068,2.068,0,0,0,1.4-2.461,2.012,2.012,0,0,0-2.461-1.4q-7.8,3.245-15.293,7.159a70.652,70.652,0,0,1-7.025,3.671A12.987,12.987,0,0,0,89.13,111.2a18,18,0,0,0-3.032,2.818c-3.026,3.559-3.791,7.716-4.022,12.255-.3,5.814-.655,11.625-1.025,17.434-.437,6.854-.885,13.707-1.276,20.563-.147,2.572,3.853,2.563,4,0Z"/><path class="g" d="M131.676,144.626c-2.856-6.167-8.163-18.548-12.035-29.642-2.419-6.93-4.289-12.95-5.189-15.952-1.619,0-9.94,8.531-11.095,11.531-.076.2,4.572,4.206,6.139,5.612a40.967,40.967,0,0,0-4.159,4.807c-.032.215,21.349,26.865,23.839,29.393Z"/><path class="b" d="M112.523,99.563a349.076,349.076,0,0,0,17.426,46.072,2.015,2.015,0,0,0,2.736.718,2.047,2.047,0,0,0,.718-2.737A341.814,341.814,0,0,1,116.38,98.5c-.738-2.459-4.6-1.411-3.857,1.063Z"/><path class="b" d="M108.082,114.761a36.2,36.2,0,0,0-3.787,4.248c-.824,1.05-1.284,2.092-.463,3.3,1.32,1.945,2.923,3.75,4.386,5.588q7.212,9.057,14.557,18.01c1.624,1.974,3.2,4.049,4.986,5.881s4.629-.984,2.829-2.829c-3.283-3.364-6.127-7.256-9.087-10.9q-6-7.377-11.908-14.82-1-1.257-1.981-2.52c-.327-.417.272.367-.095-.123-.071-.094-.139-.193-.215-.284-.277-.33-.18-.552-.038.134v1.063c-.255.735-.11.226.066.056-.292.281.164-.2.182-.22.4-.476.8-.95,1.209-1.416a31.081,31.081,0,0,1,2.188-2.344c1.894-1.752-.94-4.575-2.829-2.828Z"/><path class="b" d="M114.452,97.032c-1.6.077-2.971,1.356-4.12,2.347a50.308,50.308,0,0,0-4.384,4.341,34.118,34.118,0,0,0-3.735,4.724c-.587.941-1.192,2.07-.578,3.154a6.941,6.941,0,0,0,1.4,1.5c1.655,1.529,3.372,2.99,5.05,4.493a2.046,2.046,0,0,0,2.829,0,2.02,2.02,0,0,0,0-2.828c-1.172-1.049-2.361-2.08-3.536-3.126-.584-.521-1.169-1.042-1.741-1.578-.183-.172-.358-.353-.543-.522a2.315,2.315,0,0,0-.181-.189c-.242-.176.287.472.174.222l.273,1.009c.044,1.044-.341,1.02-.111.629.068-.116.124-.24.19-.357.143-.252.3-.5.459-.739.171-.257.35-.508.533-.757.1-.135.2-.268.3-.4-.266.348.094-.117.119-.147,1.012-1.269,2.1-2.479,3.227-3.647A44.933,44.933,0,0,1,113.4,102c.117-.1.236-.194.353-.292.094-.078.464-.351.04-.037.2-.147.394-.3.6-.43.157-.1.363-.185.508-.3.252-.2-.513.156-.167.069s-.565.038-.287.025a2.043,2.043,0,0,0,2-2,2.02,2.02,0,0,0-2-2Z"/><path class="g" d="M137.091,149.732c.888-1.35,1.407-2.145,2.379-3.633,7.321-11.208,16.7-24.9,16.665-25.117a40.967,40.967,0,0,0-4.159-4.807c1.567-1.406,6.215-5.416,6.14-5.612-1.155-3-9.476-11.531-11.1-11.531a178.259,178.259,0,0,1-4.119,17.987c-3.925,13.173-8.818,26.052-12.1,32.644-1.093,2.3-2.348,4.146-2.348,8.431Z"/><path class="b" d="M131.035,163.172c-.186-1.685-.534-3.386-.587-5.081a12.3,12.3,0,0,1,1.219-5.669c1.666-3.5,3.291-6.98,4.741-10.574a221.73,221.73,0,0,0,10.034-30.3q1.447-5.948,2.508-11.985a2.057,2.057,0,0,0-1.4-2.46,2.017,2.017,0,0,0-2.461,1.4,186.254,186.254,0,0,1-6.641,26.035,205.076,205.076,0,0,1-10.117,25.62,17.6,17.6,0,0,0-1.842,6.6,35.816,35.816,0,0,0,.542,6.421,2.059,2.059,0,0,0,2,2,2.013,2.013,0,0,0,2-2Z"/><path class="b" d="M150.562,117.589a31.068,31.068,0,0,1,2.187,2.344c.41.466.811.94,1.209,1.416.056.066.473.5.183.22.176.17.32.678.066-.056V120.45c.109-.624.236-.456.034-.176-.148.208-.276.437-.414.651-.488.753-.987,1.5-1.485,2.246q-2.351,3.526-4.718,7.04-6.183,9.222-12.26,18.511c-1.419,2.157,2.043,4.163,3.454,2.019q6.3-9.584,12.671-19.124,2.349-3.5,4.692-7c.694-1.044,2.094-2.538,1.919-3.9-.153-1.184-1.319-2.22-2.061-3.081a34.481,34.481,0,0,0-2.649-2.874c-1.887-1.746-4.723,1.076-2.828,2.828Z"/><path class="b" d="M147.021,101.032c.274.013-.6-.1-.319-.035.356.08-.228-.163-.173-.078.07.108.437.249.546.321.206.135.4.283.6.43-.449-.333.259.217.392.329a44.541,44.541,0,0,1,3.329,3.159c1.127,1.168,2.215,2.378,3.228,3.647.056.07.377.484.119.147.1.133.2.267.3.4.182.249.361.5.532.757.15.225.3.452.429.686.068.118.125.245.195.361.266.432-.128.447-.086-.58l.273-1.009c-.109.243.376-.358.2-.247a1.653,1.653,0,0,0-.2.214c-.185.17-.36.35-.544.522-.571.536-1.156,1.057-1.741,1.578-1.175,1.046-2.363,2.077-3.535,3.126a2,2,0,0,0,2.828,2.828c1.509-1.35,3.044-2.67,4.544-4.03a18.5,18.5,0,0,0,1.5-1.435,2.552,2.552,0,0,0,.113-3.189,26.162,26.162,0,0,0-3.431-4.55,53.785,53.785,0,0,0-4.473-4.561c-1.257-1.13-2.826-2.706-4.624-2.792a2,2,0,0,0,0,4Z"/><path class="b" d="M125.972,83.691A10.434,10.434,0,0,0,131,84.87a8.347,8.347,0,0,0,5.23-1.61,2,2,0,0,0,.586-1.414,2.036,2.036,0,0,0-.586-1.414,2.012,2.012,0,0,0-1.414-.586,2.352,2.352,0,0,0-1.415.586c.7-.546.08-.079-.136.034-.17.089-.579.219.086-.02-.132.047-.261.1-.394.143-.364.117-.735.164-1.1.252.165-.039.438-.052.107-.019-.108.01-.217.019-.325.026-.261.017-.523.024-.784.022q-.352,0-.7-.025c-.108-.007-.215-.016-.322-.027-.2-.02-.443-.141.057.012-.333-.1-.694-.128-1.031-.229-.144-.043-.285-.094-.427-.143-.412-.142.465.217.09.041-.177-.083-.351-.17-.524-.262a2,2,0,0,0-2.019,3.454Z"/><path class="b" d="M129.617,72.324a21.71,21.71,0,0,1,.511,2.336l-.072-.532a1.389,1.389,0,0,1,.009.322l.071-.531a.73.73,0,0,1-.035.145l.2-.478a.528.528,0,0,1-.052.093l.313-.405a.5.5,0,0,1-.076.076l.405-.313a1.636,1.636,0,0,1-.185.1l.477-.2a1.292,1.292,0,0,1-.311.091l.531-.071a1.24,1.24,0,0,1-.292,0l.531.072c-.11-.016-.218-.043-.329-.057a2.244,2.244,0,0,0-1.541.2,2,2,0,0,0-.717,2.737l.312.4a2,2,0,0,0,.883.515c.322.043.635.123.964.137a3.22,3.22,0,0,0,1.511-.372,2.356,2.356,0,0,0,1.253-1.532,3.482,3.482,0,0,0-.011-1.56c-.127-.752-.3-1.5-.5-2.236a2,2,0,0,0-2.46-1.4,2.021,2.021,0,0,0-1.2.919,2.1,2.1,0,0,0-.2,1.541Z"/><path class="b" d="M118.041,65.5c-.39,1.268-.135,4.184,2.266,4.432,3.174-.019,3.342-3.544,2.274-5.2C121.706,63.369,119.134,62.805,118.041,65.5Z"/><path class="b" d="M143.457,65.5c.39,1.267.136,4.183-2.266,4.431-3.173-.019-3.342-3.544-2.274-5.2C139.792,63.369,142.364,62.805,143.457,65.5Z"/></svg>