<?xml version="1.0" encoding="iso-8859-1"?>
<!-- Generator: Adobe Illustrator 18.0.0, SVG Export Plug-In . SVG Version: 6.00 Build 0)  -->
<!DOCTYPE svg PUBLIC "-//W3C//DTD SVG 1.1//EN" "http://www.w3.org/Graphics/SVG/1.1/DTD/svg11.dtd">
<!-- License: CC0. Made by SVG Repo: https://www.svgrepo.com/svg/94313/wedding-rings -->
<svg version="1.1" id="Capa_1" xmlns="http://www.w3.org/2000/svg" xmlns:xlink="http://www.w3.org/1999/xlink" x="0px" y="0px"
	 viewBox="0 0 422.5 422.5" style="enable-background:new 0 0 422.5 422.5;" xml:space="preserve">
<g>
	<g>
		<path d="M281.538,177.828c-25.486,0-49.659,7.705-70.3,22.258c-14.168-9.979-30.54-17.031-48.229-20.264l47.805-31.299
			c2.93-1.918,4.142-5.607,2.921-8.891l-14.211-38.193c-1.093-2.938-3.896-4.885-7.029-4.885H89.986
			c-3.133,0-5.937,1.947-7.029,4.885l-14.213,38.193c-1.221,3.281-0.009,6.973,2.921,8.891l47.68,31.217
			C62.163,189.977,18.626,240.08,18.626,300.162c0,67.457,54.88,122.338,122.336,122.338c25.456,0,49.681-7.688,70.332-22.246
			c19.894,14.004,44.121,22.246,70.244,22.246c67.456,0,122.336-54.881,122.336-122.338
			C403.874,232.707,348.994,177.828,281.538,177.828z M33.626,300.162c0-59.186,48.15-107.334,107.336-107.334
			c59.186,0,107.336,48.148,107.336,107.334c0,19.404-5.169,38.172-14.977,54.691c-5.201-4.592-9.726-9.924-13.453-15.807
			c5.931-12.033,9.055-25.379,9.055-38.885c0-48.502-39.459-87.959-87.961-87.959c-48.502,0-87.961,39.457-87.961,87.959
			c0,48.502,39.459,87.963,87.961,87.963c15.852,0,31.14-4.186,44.629-12.154c4.093,5.17,8.598,9.996,13.456,14.441
			c-17.302,11.189-37.217,17.088-58.085,17.088C81.776,407.5,33.626,359.348,33.626,300.162z M140.962,373.125
			c-40.23,0-72.961-32.732-72.961-72.963c0-40.23,32.73-72.959,72.961-72.959c13.076,0,25.349,3.475,35.974,9.523
			c-11.614,19.092-17.733,40.853-17.733,63.436c0,23.217,6.501,44.941,17.777,63.455
			C166.041,369.848,153.725,373.125,140.962,373.125z M211.254,280.6c1.737,6.227,2.669,12.787,2.669,19.563
			c0,6.629-0.925,13.205-2.683,19.541c-1.733-6.221-2.663-12.773-2.663-19.541C208.577,293.525,209.493,286.939,211.254,280.6z
			 M245.52,236.717c10.94-6.234,23.256-9.514,36.019-9.514c40.23,0,72.961,32.728,72.961,72.959c0,40.23-32.73,72.963-72.961,72.963
			c-13.077,0-25.351-3.477-35.976-9.525c11.61-19.098,17.735-40.893,17.735-63.438C263.298,276.947,256.794,255.227,245.52,236.717z
			 M179.028,134.748h-75.456l37.824-22.01L179.028,134.748z M187.282,111.555l5.063,13.606l-23.262-13.606H187.282z M95.198,111.555
			h18.407L90.11,125.227L95.198,111.555z M100.921,149.748h80.637l-40.318,26.398L100.921,149.748z M281.538,407.5
			c-59.186,0-107.336-48.152-107.336-107.338c0-19.436,5.17-38.174,14.982-54.686c5.199,4.59,9.722,9.92,13.447,15.803
			c-5.93,12.033-9.055,25.377-9.055,38.883c0,48.502,39.459,87.963,87.961,87.963c48.502,0,87.961-39.461,87.961-87.963
			c0-48.502-39.459-87.959-87.961-87.959c-15.853,0-31.142,4.186-44.633,12.154c-4.09-5.166-8.592-9.99-13.447-14.434
			c17.293-11.191,37.182-17.096,58.08-17.096c59.186,0,107.336,48.148,107.336,107.334C388.874,359.348,340.724,407.5,281.538,407.5
			z"/>
		<path d="M141.238,49.291c4.143,0,7.5-3.357,7.5-7.5V7.5c0-4.143-3.357-7.5-7.5-7.5c-4.143,0-7.5,3.357-7.5,7.5v34.291
			C133.738,45.934,137.096,49.291,141.238,49.291z"/>
		<path d="M57.964,80.623c1.465,1.465,3.384,2.197,5.304,2.197c1.919,0,3.839-0.732,5.303-2.197c2.93-2.928,2.93-7.678,0.001-10.605
			L44.325,45.77c-2.929-2.928-7.678-2.93-10.606,0c-2.93,2.928-2.93,7.678-0.001,10.605L57.964,80.623z"/>
		<path d="M219.211,82.82c1.919,0,3.839-0.732,5.304-2.197l24.246-24.248c2.929-2.928,2.929-7.678-0.001-10.605
			c-2.928-2.928-7.677-2.93-10.606,0l-24.246,24.248c-2.929,2.928-2.929,7.678,0.001,10.605
			C215.372,82.088,217.292,82.82,219.211,82.82z"/>
	</g>
</g>
</svg>
