<?xml version="1.0" encoding="utf-8"?>

<!DOCTYPE svg PUBLIC "-//W3C//DTD SVG 1.1//EN" "http://www.w3.org/Graphics/SVG/1.1/DTD/svg11.dtd">

<!-- License: CC0 License. Made by SVG Repo: https://www.svgrepo.com/svg/427832/write -->
<svg fill="#000000" version="1.1" id="Layer_1" xmlns="http://www.w3.org/2000/svg" xmlns:xlink="http://www.w3.org/1999/xlink" 
	 width="800px" height="800px" viewBox="0 0 20 20" enable-background="new 0 0 20 20" xml:space="preserve">
<path d="M18,20H2c-0.6,0-1-0.4-1-1s0.4-1,1-1h16c0.6,0,1,0.4,1,1S18.6,20,18,20z"/>
<path d="M7,16H3c-0.6,0-1-0.4-1-1v-4c0-0.3,0.1-0.5,0.3-0.7l10-10c0.4-0.4,1-0.4,1.4,0l4,4c0.4,0.4,0.4,1,0,1.4l-10,10
	C7.5,15.9,7.3,16,7,16z M4,14h2.6l9-9L13,2.4l-9,9V14z"/>
</svg>