<?xml version="1.0" encoding="UTF-8"?>

<!-- License: CC Attribution. Made by Mike Hunter: https://casinoshunter.com/ -->
<svg viewBox="0.5 0 34 34" version="1.1" xmlns="http://www.w3.org/2000/svg" xmlns:xlink="http://www.w3.org/1999/xlink">
    
    <title>home</title>
    <desc>Created with Sketch.</desc>
    <g id="icons" stroke="none" stroke-width="1" fill="none" fill-rule="evenodd">
        <g id="ui-gambling-website-lined-icnos-casinoshunter" transform="translate(-83.000000, -153.000000)" fill="#252528" fill-rule="nonzero">
            <g id="square-filled" transform="translate(50.000000, 120.000000)">
                <path d="M35.0026185,49.8218969 C33.8966028,49.8218969 33,48.9673526 33,47.9132188 C33,47.386939 33.2279956,46.884013 33.6300945,46.5233194 L48.1274731,33.5187787 C48.8985814,32.8270738 50.1014129,32.8270738 50.8725211,33.5187787 L65.3698998,46.5233194 C66.1753004,47.2457855 66.2137066,48.4537391 65.4556825,49.2213594 C65.0772365,49.6045963 64.5495577,49.8218969 63.9973758,49.8218969 L63.5183266,49.8218969 L63.5183266,63.1826438 C63.5183266,65.2909114 61.7251209,67 59.5130896,67 L55.5039249,67 C53.8470706,67 52.5039249,65.6568542 52.5039249,64 L52.5039249,57.4566094 L52.5039249,57.4566094 C52.5039249,56.4443825 51.6743634,55.6094251 50.6488932,55.5523934 L50.5013064,55.5479313 L48.4986879,55.5479313 C47.4366417,55.5479313 46.5605898,56.3385791 46.5007511,57.3159457 L46.4960694,57.4566094 L46.4960694,64 C46.4960694,65.6568542 45.1529236,67 43.4960694,67 L39.4869047,67 L39.4869047,67 C37.2748734,67 35.4816677,65.2909114 35.4816677,63.1826438 L35.4816677,49.8218969 L35.0026185,49.8218969 Z M56.1065434,65.0913219 L59.5130896,65.0913219 L59.5130896,65.0913219 C60.6191052,65.0913219 61.5157081,64.2367776 61.5157081,63.1826438 L61.5157081,48.1132188 C61.5157081,48.0027618 61.6052511,47.9132188 61.7157081,47.9132188 L63.4748998,47.9132188 C63.5853567,47.9132188 63.6748998,47.8236757 63.6748998,47.7132188 C63.6748998,47.6564068 63.6507384,47.6022757 63.608448,47.5643401 L50.1677383,35.50766 C49.787807,35.1668514 49.2121872,35.1668514 48.832256,35.50766 L35.3915462,47.5643401 C35.3093228,47.6380967 35.3024591,47.7645436 35.3762158,47.846767 C35.4141514,47.8890574 35.4682825,47.9132188 35.5250945,47.9132188 L37.2842862,47.9132188 C37.3947431,47.9132188 37.4842862,48.0027618 37.4842862,48.1132188 L37.4842862,63.1826438 L37.4842862,63.1826438 C37.4842862,64.2367776 38.380889,65.0913219 39.4869047,65.0913219 L42.8934971,65.0913219 C43.7771225,65.0912443 44.4934543,64.3749472 44.4935747,63.4913219 L44.4938685,57.4290491 L44.4938685,57.4290491 L44.5002268,57.2331823 C44.6226127,55.2200264 46.3741379,53.6392531 48.4986879,53.6392531 L50.5302231,53.6396512 L50.73573,53.6457112 C52.8479684,53.7623562 54.5065434,55.4317194 54.5065434,57.4566094 L54.5065434,63.4913219 C54.5065434,64.3749775 55.2228878,65.0913219 56.1065434,65.0913219 Z" id="home">

</path>
            </g>
        </g>
    </g>
</svg>