<svg width="20" height="20" viewBox="0 0 20 20" xmlns="http://www.w3.org/2000/svg">
<path  clip-rule="evenodd" d="M11.8655 2.31871C10.823 1.40785 9.177 1.40785 8.13449 2.31871L2.59427 7.15926C2.45853 7.27786 2.36723 7.43235 2.33329 7.60084C1.66971 10.8958 1.62073 14.269 2.1884 17.5788L2.32315 18.3644H5.88749V11.5917C5.88749 11.1401 6.2896 10.774 6.78563 10.774H13.2144C13.7104 10.774 14.1125 11.1401 14.1125 11.5917V18.3644H17.6768L17.8116 17.5788C18.3793 14.269 18.3303 10.8958 17.6667 7.60084C17.6328 7.43235 17.5415 7.27786 17.4057 7.15926L11.8655 2.31871ZM6.89082 1.13857C8.62834 -0.379524 11.3717 -0.379524 13.1092 1.13857L18.6494 5.97912C19.0572 6.33545 19.3316 6.79962 19.4335 7.30583C20.1335 10.7815 20.1852 14.3398 19.5864 17.8312L19.3699 19.0933C19.2804 19.6152 18.7866 20 18.2065 20H13.2144C12.7183 20 12.3162 19.6339 12.3162 19.1822V12.4095H7.68376V19.1822C7.68376 19.6339 7.28165 20 6.78563 20H1.79353C1.21335 20 0.719634 19.6152 0.630113 19.0933L0.413648 17.8312C-0.185165 14.3398 -0.133496 10.7815 0.566486 7.30583C0.668433 6.79962 0.942764 6.33545 1.3506 5.97912L6.89082 1.13857Z" />
</svg>
