<svg width="20" height="20" viewBox="0 0 20 20" fill="none" xmlns="http://www.w3.org/2000/svg">
<path fill-rule="evenodd" clip-rule="evenodd" d="M4.01134 5.08458V4.95941C4.01134 2.6961 5.86166 0.719915 8.50858 0.156257C9.48695 -0.0520855 10.5131 -0.0520856 11.4914 0.156257C14.1383 0.719915 15.9887 2.6961 15.9887 4.95942V5.08458H17.8812C18.6015 5.08458 19.2128 5.52203 19.3172 6.1122L19.5929 7.67045C20.1357 10.7385 20.1357 13.8556 19.5929 16.9236C19.3308 18.4052 17.8881 19.5506 16.0895 19.7051L15.2967 19.7732C11.775 20.0756 8.225 20.0756 4.70334 19.7732L3.91048 19.7051C2.11194 19.5506 0.669249 18.4052 0.407112 16.9236C-0.135704 13.8556 -0.135704 10.7385 0.407113 7.67045L0.682811 6.1122C0.787228 5.52203 1.39851 5.08458 2.11876 5.08458H4.01134ZM8.97956 1.67304C9.64897 1.53049 10.351 1.53049 11.0205 1.67304C12.8315 2.05871 14.0975 3.41083 14.0975 4.95942V5.08458H5.9025V4.95941C5.9025 3.41083 7.16851 2.05871 8.97956 1.67304ZM4.01134 6.65071V8.9999C4.01134 9.43238 4.43469 9.78297 4.95692 9.78297C5.47915 9.78297 5.9025 9.43238 5.9025 8.9999V6.65071H14.0975V8.9999C14.0975 9.43238 14.5209 9.78297 15.0431 9.78297C15.5653 9.78297 15.9887 9.43238 15.9887 8.9999V6.65071H17.5011L17.7217 7.89749C18.2379 10.8149 18.2379 13.7791 17.7217 16.6966C17.585 17.4693 16.8325 18.0667 15.8944 18.1473L15.1016 18.2154C11.7096 18.5067 8.29038 18.5067 4.89841 18.2154L4.10555 18.1473C3.16748 18.0667 2.41501 17.4693 2.27829 16.6966C1.76211 13.7791 1.76211 10.8149 2.27829 7.89749L2.49888 6.65071H4.01134Z" fill="#FF647C"/>
</svg>
