<svg width="16" height="20" viewBox="0 0 16 20" fill="none" xmlns="http://www.w3.org/2000/svg">
<path d="M7.99896 10.7498C10.894 10.7498 13.249 8.39476 13.249 5.49976C13.249 2.60476 10.894 0.249756 7.99896 0.249756C5.10396 0.249756 2.74896 2.60476 2.74896 5.49976C2.74896 8.39476 5.10396 10.7498 7.99896 10.7498ZM7.99896 1.74976C10.067 1.74976 11.749 3.43176 11.749 5.49976C11.749 7.56775 10.067 9.24975 7.99896 9.24975C5.93096 9.24975 4.24896 7.56775 4.24896 5.49976C4.24896 3.43176 5.93096 1.74976 7.99896 1.74976ZM15.749 15.9668V16.9778C15.749 17.9128 15.408 18.8088 14.788 19.4998C14.64 19.6658 14.4349 19.7498 14.2289 19.7498C14.0509 19.7498 13.8719 19.6867 13.7289 19.5587C13.4199 19.2827 13.395 18.8088 13.671 18.4998C14.044 18.0828 14.2499 17.5428 14.2499 16.9788V15.9678C14.2499 14.4538 13.2459 13.1437 11.8069 12.7827C11.5539 12.7187 11.282 12.7538 11.061 12.8788C9.15997 13.9368 6.83395 13.9327 4.94495 12.8817C4.71895 12.7527 4.44697 12.7157 4.19397 12.7817C2.75497 13.1437 1.74994 14.4538 1.74994 15.9678V16.9788C1.74994 17.5438 1.95598 18.0838 2.32898 18.4998C2.60498 18.8088 2.57893 19.2827 2.27093 19.5587C1.96093 19.8357 1.48697 19.8087 1.21197 19.5007C0.591975 18.8087 0.250977 17.9128 0.250977 16.9788V15.9678C0.250977 13.7658 1.72194 11.8578 3.82794 11.3278C4.45094 11.1698 5.12795 11.2598 5.68195 11.5758C7.11194 12.3718 8.88399 12.3748 10.326 11.5728C10.873 11.2608 11.55 11.1717 12.175 11.3287C14.278 11.8557 15.749 13.7638 15.749 15.9668Z" fill="black"/>
</svg>
