<svg width="16" height="20" viewBox="0 0 16 20" fill="none" xmlns="http://www.w3.org/2000/svg">
<path d="M7.74798 10.5C10.643 10.5 12.998 8.145 12.998 5.25C12.998 2.355 10.643 0 7.74798 0C4.85299 0 2.49799 2.355 2.49799 5.25C2.49799 8.145 4.85299 10.5 7.74798 10.5ZM7.74798 1.5C9.81598 1.5 11.498 3.182 11.498 5.25C11.498 7.318 9.81598 9 7.74798 9C5.67999 9 3.99799 7.318 3.99799 5.25C3.99799 3.182 5.67999 1.5 7.74798 1.5ZM15.498 15.717V16.728C15.498 17.663 15.157 18.559 14.537 19.25C14.389 19.416 14.184 19.5 13.978 19.5C13.8 19.5 13.621 19.437 13.478 19.309C13.169 19.033 13.144 18.559 13.42 18.25C13.793 17.833 13.999 17.293 13.999 16.729V15.718C13.999 14.204 12.995 12.894 11.556 12.533C11.303 12.469 11.031 12.504 10.81 12.629C8.909 13.687 6.58297 13.683 4.69397 12.632C4.46797 12.503 4.19599 12.466 3.94299 12.532C2.50399 12.894 1.49896 14.204 1.49896 15.718V16.729C1.49896 17.294 1.705 17.834 2.078 18.25C2.354 18.559 2.32796 19.033 2.01996 19.309C1.70996 19.586 1.236 19.559 0.960998 19.251C0.340998 18.559 0 17.663 0 16.729V15.718C0 13.516 1.47097 11.608 3.57696 11.078C4.19996 10.92 4.87697 11.01 5.43097 11.326C6.86097 12.122 8.63301 12.125 10.075 11.323C10.622 11.011 11.299 10.922 11.924 11.079C14.027 11.606 15.498 13.514 15.498 15.717Z" fill="#FF647C"/>
</svg>
