<svg width="20" height="23" viewBox="0 0 20 23" fill="none" xmlns="http://www.w3.org/2000/svg">
<path d="M10.0001 4.28572C8.40884 4.28572 6.88272 4.91786 5.7575 6.04307C4.63228 7.16829 4.00014 8.69442 4.00014 10.2857V14.5714C4.00014 15.2534 3.72922 15.9075 3.24699 16.3897C2.76475 16.8719 2.1107 17.1429 1.42871 17.1429H18.5716C17.8896 17.1429 17.2355 16.8719 16.7533 16.3897C16.2711 15.9075 16.0001 15.2534 16.0001 14.5714V10.2857C16.0001 8.69442 15.368 7.16829 14.2428 6.04307C13.1176 4.91786 11.5914 4.28572 10.0001 4.28572ZM10.0001 4.28572V1.71429M11.483 20.5714C11.3323 20.8312 11.116 21.0468 10.8558 21.1967C10.5955 21.3466 10.3005 21.4255 10.0001 21.4255C9.69981 21.4255 9.40476 21.3466 9.14452 21.1967C8.88427 21.0468 8.66798 20.8312 8.51728 20.5714" stroke="#FF647C" stroke-width="1.5" stroke-linecap="round" stroke-linejoin="round"/>
</svg>
