<svg width="20" height="22" viewBox="0 0 20 22" fill="none" xmlns="http://www.w3.org/2000/svg">
<path d="M19 7H1M14 1V4M6 1V4M5.8 21H14.2C15.8802 21 16.7202 21 17.362 20.673C17.9265 20.3854 18.3854 19.9265 18.673 19.362C19 18.7202 19 17.8802 19 16.2V7.8C19 6.11984 19 5.27976 18.673 4.63803C18.3854 4.07354 17.9265 3.6146 17.362 3.32698C16.7202 3 15.8802 3 14.2 3H5.8C4.11984 3 3.27976 3 2.63803 3.32698C2.07354 3.6146 1.6146 4.07354 1.32698 4.63803C1 5.27976 1 6.11984 1 7.8V16.2C1 17.8802 1 18.7202 1.32698 19.362C1.6146 19.9265 2.07354 20.3854 2.63803 20.673C3.27976 21 4.11984 21 5.8 21ZM9.99726 11.3306C9.19752 10.4216 7.8639 10.1771 6.86188 11.0094C5.85986 11.8418 5.71879 13.2335 6.50568 14.2179C7.077 14.9327 8.65927 16.3397 9.48333 17.0569C9.66198 17.2124 9.7513 17.2902 9.85597 17.321C9.94664 17.3477 10.0479 17.3477 10.1386 17.321C10.2432 17.2902 10.3325 17.2124 10.5112 17.0569C11.3353 16.3397 12.9175 14.9327 13.4888 14.2179C14.2757 13.2335 14.1519 11.8331 13.1326 11.0094C12.1134 10.1858 10.797 10.4216 9.99726 11.3306Z" stroke="black" stroke-width="1.45" stroke-linecap="round" stroke-linejoin="round"/>
</svg>
